G04 #@! TF.GenerationSoftware,KiCad,Pcbnew,(5.1.5)-3*
G04 #@! TF.CreationDate,2020-03-07T08:42:07-06:00*
G04 #@! TF.ProjectId,DSKY_alarm,44534b59-5f61-46c6-9172-6d2e6b696361,4*
G04 #@! TF.SameCoordinates,Original*
G04 #@! TF.FileFunction,Legend,Bot*
G04 #@! TF.FilePolarity,Positive*
%FSLAX46Y46*%
G04 Gerber Fmt 4.6, Leading zero omitted, Abs format (unit mm)*
G04 Created by KiCad (PCBNEW (5.1.5)-3) date 2020-03-07 08:42:07*
%MOMM*%
%LPD*%
G04 APERTURE LIST*
%ADD10C,0.200000*%
%ADD11C,0.120000*%
G04 APERTURE END LIST*
D10*
X89495758Y-144949841D02*
G75*
G03X89495758Y-144949841I-3556000J0D01*
G01*
X97877758Y-144949841D02*
G75*
G03X97877758Y-144949841I-3556000J0D01*
G01*
X106259758Y-144949841D02*
G75*
G03X106259758Y-144949841I-3556000J0D01*
G01*
X89495758Y-129709841D02*
G75*
G03X89495758Y-129709841I-3556000J0D01*
G01*
X97877758Y-129709841D02*
G75*
G03X97877758Y-129709841I-3556000J0D01*
G01*
X106259758Y-129709841D02*
G75*
G03X106259758Y-129709841I-3556000J0D01*
G01*
X89495758Y-114469841D02*
G75*
G03X89495758Y-114469841I-3556000J0D01*
G01*
X97877758Y-114469841D02*
G75*
G03X97877758Y-114469841I-3556000J0D01*
G01*
X106259758Y-114469841D02*
G75*
G03X106259758Y-114469841I-3556000J0D01*
G01*
X89495758Y-99229841D02*
G75*
G03X89495758Y-99229841I-3556000J0D01*
G01*
X97877758Y-99229841D02*
G75*
G03X97877758Y-99229841I-3556000J0D01*
G01*
X106259758Y-99229841D02*
G75*
G03X106259758Y-99229841I-3556000J0D01*
G01*
X89495758Y-83989841D02*
G75*
G03X89495758Y-83989841I-3556000J0D01*
G01*
X97877758Y-83989841D02*
G75*
G03X97877758Y-83989841I-3556000J0D01*
G01*
X106259758Y-83989841D02*
G75*
G03X106259758Y-83989841I-3556000J0D01*
G01*
X89495758Y-68749841D02*
G75*
G03X89495758Y-68749841I-3556000J0D01*
G01*
X97877758Y-68749841D02*
G75*
G03X97877758Y-68749841I-3556000J0D01*
G01*
X106259758Y-68749841D02*
G75*
G03X106259758Y-68749841I-3556000J0D01*
G01*
X89495758Y-53509841D02*
G75*
G03X89495758Y-53509841I-3556000J0D01*
G01*
X97877758Y-53509841D02*
G75*
G03X97877758Y-53509841I-3556000J0D01*
G01*
X119975758Y-144949841D02*
G75*
G03X119975758Y-144949841I-3556000J0D01*
G01*
X128357758Y-144949841D02*
G75*
G03X128357758Y-144949841I-3556000J0D01*
G01*
X136739758Y-144949841D02*
G75*
G03X136739758Y-144949841I-3556000J0D01*
G01*
X119975758Y-129709841D02*
G75*
G03X119975758Y-129709841I-3556000J0D01*
G01*
X128357758Y-129709841D02*
G75*
G03X128357758Y-129709841I-3556000J0D01*
G01*
X136739758Y-129709841D02*
G75*
G03X136739758Y-129709841I-3556000J0D01*
G01*
X119975758Y-114469841D02*
G75*
G03X119975758Y-114469841I-3556000J0D01*
G01*
X128357758Y-114469841D02*
G75*
G03X128357758Y-114469841I-3556000J0D01*
G01*
X136739758Y-114469841D02*
G75*
G03X136739758Y-114469841I-3556000J0D01*
G01*
X119975758Y-99229841D02*
G75*
G03X119975758Y-99229841I-3556000J0D01*
G01*
X128357758Y-99229841D02*
G75*
G03X128357758Y-99229841I-3556000J0D01*
G01*
X136739758Y-99229841D02*
G75*
G03X136739758Y-99229841I-3556000J0D01*
G01*
X119975758Y-83989841D02*
G75*
G03X119975758Y-83989841I-3556000J0D01*
G01*
X128357758Y-83989841D02*
G75*
G03X128357758Y-83989841I-3556000J0D01*
G01*
X136739758Y-83989841D02*
G75*
G03X136739758Y-83989841I-3556000J0D01*
G01*
X119975758Y-68749841D02*
G75*
G03X119975758Y-68749841I-3556000J0D01*
G01*
X128357758Y-68749841D02*
G75*
G03X128357758Y-68749841I-3556000J0D01*
G01*
X136739758Y-68749841D02*
G75*
G03X136739758Y-68749841I-3556000J0D01*
G01*
X119975758Y-53509841D02*
G75*
G03X119975758Y-53509841I-3556000J0D01*
G01*
X128357758Y-53509841D02*
G75*
G03X128357758Y-53509841I-3556000J0D01*
G01*
X80732758Y-48429841D02*
X138390758Y-48429841D01*
X106259758Y-53509841D02*
G75*
G03X106259758Y-53509841I-3556000J0D01*
G01*
X136739758Y-53509841D02*
G75*
G03X136739758Y-53509841I-3556000J0D01*
G01*
D11*
X89060000Y-144780000D02*
G75*
G03X89060000Y-144780000I-3320000J0D01*
G01*
X97315000Y-144780000D02*
G75*
G03X97315000Y-144780000I-3320000J0D01*
G01*
X105570000Y-144780000D02*
G75*
G03X105570000Y-144780000I-3320000J0D01*
G01*
X89060000Y-129540000D02*
G75*
G03X89060000Y-129540000I-3320000J0D01*
G01*
X97315000Y-129540000D02*
G75*
G03X97315000Y-129540000I-3320000J0D01*
G01*
X105570000Y-129540000D02*
G75*
G03X105570000Y-129540000I-3320000J0D01*
G01*
X89060000Y-114300000D02*
G75*
G03X89060000Y-114300000I-3320000J0D01*
G01*
X97315000Y-114300000D02*
G75*
G03X97315000Y-114300000I-3320000J0D01*
G01*
X105570000Y-114300000D02*
G75*
G03X105570000Y-114300000I-3320000J0D01*
G01*
X89060000Y-99060000D02*
G75*
G03X89060000Y-99060000I-3320000J0D01*
G01*
X97315000Y-99060000D02*
G75*
G03X97315000Y-99060000I-3320000J0D01*
G01*
X105570000Y-99060000D02*
G75*
G03X105570000Y-99060000I-3320000J0D01*
G01*
X89060000Y-83820000D02*
G75*
G03X89060000Y-83820000I-3320000J0D01*
G01*
X97315000Y-83820000D02*
G75*
G03X97315000Y-83820000I-3320000J0D01*
G01*
X105570000Y-83820000D02*
G75*
G03X105570000Y-83820000I-3320000J0D01*
G01*
X89060000Y-68580000D02*
G75*
G03X89060000Y-68580000I-3320000J0D01*
G01*
X97315000Y-68580000D02*
G75*
G03X97315000Y-68580000I-3320000J0D01*
G01*
X105570000Y-68580000D02*
G75*
G03X105570000Y-68580000I-3320000J0D01*
G01*
X119540000Y-144780000D02*
G75*
G03X119540000Y-144780000I-3320000J0D01*
G01*
X127795000Y-144780000D02*
G75*
G03X127795000Y-144780000I-3320000J0D01*
G01*
X136050000Y-144780000D02*
G75*
G03X136050000Y-144780000I-3320000J0D01*
G01*
X119540000Y-129540000D02*
G75*
G03X119540000Y-129540000I-3320000J0D01*
G01*
X127795000Y-129540000D02*
G75*
G03X127795000Y-129540000I-3320000J0D01*
G01*
X136050000Y-129540000D02*
G75*
G03X136050000Y-129540000I-3320000J0D01*
G01*
X119540000Y-114300000D02*
G75*
G03X119540000Y-114300000I-3320000J0D01*
G01*
X127795000Y-114300000D02*
G75*
G03X127795000Y-114300000I-3320000J0D01*
G01*
X136050000Y-114300000D02*
G75*
G03X136050000Y-114300000I-3320000J0D01*
G01*
X119540000Y-99060000D02*
G75*
G03X119540000Y-99060000I-3320000J0D01*
G01*
X127795000Y-99060000D02*
G75*
G03X127795000Y-99060000I-3320000J0D01*
G01*
X136050000Y-99060000D02*
G75*
G03X136050000Y-99060000I-3320000J0D01*
G01*
X119540000Y-83820000D02*
G75*
G03X119540000Y-83820000I-3320000J0D01*
G01*
X127795000Y-83820000D02*
G75*
G03X127795000Y-83820000I-3320000J0D01*
G01*
X136050000Y-83820000D02*
G75*
G03X136050000Y-83820000I-3320000J0D01*
G01*
X119540000Y-68580000D02*
G75*
G03X119540000Y-68580000I-3320000J0D01*
G01*
X127795000Y-68580000D02*
G75*
G03X127795000Y-68580000I-3320000J0D01*
G01*
X136050000Y-68580000D02*
G75*
G03X136050000Y-68580000I-3320000J0D01*
G01*
X89060000Y-53340000D02*
G75*
G03X89060000Y-53340000I-3320000J0D01*
G01*
X97315000Y-53340000D02*
G75*
G03X97315000Y-53340000I-3320000J0D01*
G01*
X105570000Y-53340000D02*
G75*
G03X105570000Y-53340000I-3320000J0D01*
G01*
X119540000Y-53340000D02*
G75*
G03X119540000Y-53340000I-3320000J0D01*
G01*
X127795000Y-53340000D02*
G75*
G03X127795000Y-53340000I-3320000J0D01*
G01*
X136050000Y-53340000D02*
G75*
G03X136050000Y-53340000I-3320000J0D01*
G01*
M02*
