G04 #@! TF.GenerationSoftware,KiCad,Pcbnew,(5.1.5)-3*
G04 #@! TF.CreationDate,2020-03-07T08:42:06-06:00*
G04 #@! TF.ProjectId,DSKY_alarm,44534b59-5f61-46c6-9172-6d2e6b696361,4*
G04 #@! TF.SameCoordinates,Original*
G04 #@! TF.FileFunction,Copper,L2,Inr*
G04 #@! TF.FilePolarity,Positive*
%FSLAX46Y46*%
G04 Gerber Fmt 4.6, Leading zero omitted, Abs format (unit mm)*
G04 Created by KiCad (PCBNEW (5.1.5)-3) date 2020-03-07 08:42:06*
%MOMM*%
%LPD*%
G04 APERTURE LIST*
%ADD10R,0.800000X2.000000*%
%ADD11C,1.930400*%
%ADD12C,0.800000*%
%ADD13C,0.250000*%
%ADD14C,1.041400*%
G04 APERTURE END LIST*
D10*
X85090000Y-144780000D03*
X86360000Y-144780000D03*
X93345000Y-144780000D03*
X94615000Y-144780000D03*
X101600000Y-144780000D03*
X102870000Y-144780000D03*
X85090000Y-129540000D03*
X86360000Y-129540000D03*
X93345000Y-129540000D03*
X94615000Y-129540000D03*
X101600000Y-129540000D03*
X102870000Y-129540000D03*
X85090000Y-114300000D03*
X86360000Y-114300000D03*
X93345000Y-114300000D03*
X94615000Y-114300000D03*
X101600000Y-114300000D03*
X102870000Y-114300000D03*
X85090000Y-99060000D03*
X86360000Y-99060000D03*
X93345000Y-99060000D03*
X94615000Y-99060000D03*
X101600000Y-99060000D03*
X102870000Y-99060000D03*
X85090000Y-83820000D03*
X86360000Y-83820000D03*
X93345000Y-83820000D03*
X94615000Y-83820000D03*
X101600000Y-83820000D03*
X102870000Y-83820000D03*
X85090000Y-68580000D03*
X86360000Y-68580000D03*
X93345000Y-68580000D03*
X94615000Y-68580000D03*
X101600000Y-68580000D03*
X102870000Y-68580000D03*
X115570000Y-144780000D03*
X116840000Y-144780000D03*
X123825000Y-144780000D03*
X125095000Y-144780000D03*
X132080000Y-144780000D03*
X133350000Y-144780000D03*
X115570000Y-129540000D03*
X116840000Y-129540000D03*
X123825000Y-129540000D03*
X125095000Y-129540000D03*
X132080000Y-129540000D03*
X133350000Y-129540000D03*
X115570000Y-114300000D03*
X116840000Y-114300000D03*
X123825000Y-114300000D03*
X125095000Y-114300000D03*
X132080000Y-114300000D03*
X133350000Y-114300000D03*
X115570000Y-99060000D03*
X116840000Y-99060000D03*
X123825000Y-99060000D03*
X125095000Y-99060000D03*
X132080000Y-99060000D03*
X133350000Y-99060000D03*
X115570000Y-83820000D03*
X116840000Y-83820000D03*
X123825000Y-83820000D03*
X125095000Y-83820000D03*
X132080000Y-83820000D03*
X133350000Y-83820000D03*
X115570000Y-68580000D03*
X116840000Y-68580000D03*
X123825000Y-68580000D03*
X125095000Y-68580000D03*
X132080000Y-68580000D03*
X133350000Y-68580000D03*
X85090000Y-53340000D03*
X86360000Y-53340000D03*
X93345000Y-53340000D03*
X94615000Y-53340000D03*
X101600000Y-53340000D03*
X102870000Y-53340000D03*
X115570000Y-53340000D03*
X116840000Y-53340000D03*
X123825000Y-53340000D03*
X125095000Y-53340000D03*
X132080000Y-53340000D03*
X133350000Y-53340000D03*
D11*
X114935000Y-95250000D03*
X112395000Y-95250000D03*
X109855000Y-95250000D03*
X107315000Y-95250000D03*
X104775000Y-95250000D03*
D12*
X96132300Y-96672400D03*
X105410000Y-125095000D03*
X112395000Y-125095000D03*
X107920000Y-136434900D03*
X122300000Y-129507600D03*
X122944100Y-74211700D03*
X89305900Y-96167000D03*
X115204100Y-93673700D03*
X114298500Y-76801100D03*
X135435100Y-72098900D03*
X125117300Y-107419100D03*
X111635700Y-109261300D03*
X84455000Y-107317500D03*
X113399500Y-106100800D03*
X112982300Y-107867200D03*
X88887100Y-108611900D03*
X100330000Y-105933800D03*
X107160700Y-103737200D03*
X108950600Y-104834500D03*
X93827500Y-60151400D03*
X110223100Y-109953900D03*
X115827800Y-132419200D03*
X109319300Y-107659100D03*
X123362400Y-122324700D03*
X107863100Y-110220300D03*
X107899700Y-106038300D03*
X125882500Y-112243000D03*
X98591800Y-68010400D03*
X109468400Y-106558200D03*
X123672500Y-94445500D03*
X111453100Y-102701000D03*
X121560100Y-88775200D03*
X117974300Y-103786800D03*
X111152300Y-106080500D03*
X119527500Y-106423500D03*
X122596600Y-62865000D03*
X112773600Y-104018300D03*
X123524400Y-60175300D03*
X90460300Y-59993800D03*
X104668900Y-119525900D03*
D13*
X96132300Y-96672400D02*
X98849600Y-93955100D01*
X98849600Y-93955100D02*
X108560100Y-93955100D01*
X108560100Y-93955100D02*
X109855000Y-95250000D01*
X122300000Y-129507600D02*
X115372700Y-136434900D01*
X115372700Y-136434900D02*
X107920000Y-136434900D01*
X115204100Y-93673700D02*
X115017600Y-93487200D01*
X115017600Y-93487200D02*
X91985700Y-93487200D01*
X91985700Y-93487200D02*
X89305900Y-96167000D01*
X114298500Y-76801100D02*
X130732900Y-76801100D01*
X130732900Y-76801100D02*
X135435100Y-72098900D01*
X113399500Y-106100800D02*
X112198400Y-106100800D01*
X112198400Y-106100800D02*
X111452800Y-105355200D01*
X111452800Y-105355200D02*
X110851900Y-105355200D01*
X110851900Y-105355200D02*
X110374300Y-105832800D01*
X110374300Y-105832800D02*
X110374300Y-105832900D01*
X110374300Y-105832900D02*
X109168000Y-105832900D01*
X109168000Y-105832900D02*
X107683400Y-107317500D01*
X107683400Y-107317500D02*
X84455000Y-107317500D01*
X112982300Y-107867200D02*
X112313500Y-108536000D01*
X112313500Y-108536000D02*
X88963000Y-108536000D01*
X88963000Y-108536000D02*
X88887100Y-108611900D01*
X107160700Y-103737200D02*
X102526600Y-103737200D01*
X102526600Y-103737200D02*
X100330000Y-105933800D01*
X123362400Y-122324700D02*
X119967500Y-122324700D01*
X119967500Y-122324700D02*
X107863100Y-110220300D01*
X125882500Y-112243000D02*
X125882500Y-111752700D01*
X125882500Y-111752700D02*
X119263100Y-105133300D01*
X119263100Y-105133300D02*
X112289600Y-105133300D01*
X112289600Y-105133300D02*
X111265400Y-104109100D01*
X111265400Y-104109100D02*
X108642200Y-104109100D01*
X108642200Y-104109100D02*
X107899700Y-104851600D01*
X107899700Y-104851600D02*
X107899700Y-106038300D01*
X111453100Y-102701000D02*
X111453100Y-101243000D01*
X111453100Y-101243000D02*
X118250500Y-94445600D01*
X118250500Y-94445600D02*
X123672500Y-94445600D01*
X123672500Y-94445600D02*
X123672500Y-94445500D01*
X119527500Y-106423500D02*
X119082600Y-106868400D01*
X119082600Y-106868400D02*
X111940200Y-106868400D01*
X111940200Y-106868400D02*
X111152300Y-106080500D01*
X115570000Y-53340000D02*
X115570000Y-54665300D01*
X123825000Y-54665300D02*
X115570000Y-54665300D01*
X123825000Y-54552700D02*
X123825000Y-54665300D01*
X123825000Y-53340000D02*
X123825000Y-54552700D01*
X132080000Y-53340000D02*
X131354700Y-53340000D01*
X131354700Y-53340000D02*
X130029400Y-54665300D01*
X130029400Y-54665300D02*
X123825000Y-54665300D01*
X115570000Y-68580000D02*
X115570000Y-67254700D01*
X123825000Y-68099400D02*
X122980300Y-67254700D01*
X122980300Y-67254700D02*
X115570000Y-67254700D01*
X123825000Y-68099400D02*
X123825000Y-67254700D01*
X123825000Y-68580000D02*
X123825000Y-68099400D01*
X132080000Y-68580000D02*
X131354700Y-68580000D01*
X131354700Y-68580000D02*
X130029400Y-67254700D01*
X130029400Y-67254700D02*
X123825000Y-67254700D01*
X115570000Y-83820000D02*
X115570000Y-85145300D01*
X123825000Y-85145300D02*
X115570000Y-85145300D01*
X123825000Y-85032700D02*
X123825000Y-85145300D01*
X123825000Y-83820000D02*
X123825000Y-85032700D01*
X132080000Y-83820000D02*
X131354700Y-83820000D01*
X131354700Y-83820000D02*
X130029400Y-85145300D01*
X130029400Y-85145300D02*
X123825000Y-85145300D01*
X115570000Y-99060000D02*
X115570000Y-100385300D01*
X123825000Y-100385300D02*
X115570000Y-100385300D01*
X123825000Y-100272700D02*
X123825000Y-100385300D01*
X123825000Y-99060000D02*
X123825000Y-100272700D01*
X132080000Y-99060000D02*
X131354700Y-99060000D01*
X131354700Y-99060000D02*
X130029400Y-100385300D01*
X130029400Y-100385300D02*
X123825000Y-100385300D01*
X115570000Y-114300000D02*
X115570000Y-112974700D01*
X123825000Y-112974700D02*
X115570000Y-112974700D01*
X123825000Y-113087300D02*
X123825000Y-112974700D01*
X123825000Y-114300000D02*
X123825000Y-113087300D01*
X132080000Y-114300000D02*
X131354700Y-114300000D01*
X131354700Y-114300000D02*
X130029400Y-112974700D01*
X130029400Y-112974700D02*
X123825000Y-112974700D01*
X85090000Y-53340000D02*
X85090000Y-54665300D01*
X93345000Y-54200400D02*
X92880100Y-54665300D01*
X92880100Y-54665300D02*
X85090000Y-54665300D01*
X93345000Y-54200400D02*
X93345000Y-54665300D01*
X93345000Y-53340000D02*
X93345000Y-54200400D01*
X101600000Y-53340000D02*
X100874700Y-53340000D01*
X100874700Y-53340000D02*
X99549400Y-54665300D01*
X99549400Y-54665300D02*
X93345000Y-54665300D01*
X90460300Y-67254700D02*
X85090000Y-67254700D01*
X93345000Y-67497500D02*
X93102200Y-67254700D01*
X93102200Y-67254700D02*
X90460300Y-67254700D01*
X90460300Y-67254700D02*
X90460300Y-59993800D01*
X85090000Y-68580000D02*
X85090000Y-67254700D01*
X93345000Y-67497500D02*
X93345000Y-67254700D01*
X93345000Y-68580000D02*
X93345000Y-67917300D01*
X93345000Y-67917300D02*
X93345000Y-67497500D01*
X101600000Y-68580000D02*
X100874700Y-68580000D01*
X100874700Y-68580000D02*
X99549400Y-67254700D01*
X99549400Y-67254700D02*
X93345000Y-67254700D01*
X85090000Y-83820000D02*
X85090000Y-82494700D01*
X93345000Y-82494700D02*
X85090000Y-82494700D01*
X93345000Y-82607300D02*
X93345000Y-82494700D01*
X93345000Y-83820000D02*
X93345000Y-82607300D01*
X101600000Y-83820000D02*
X100874700Y-83820000D01*
X100874700Y-83820000D02*
X99549400Y-82494700D01*
X99549400Y-82494700D02*
X93345000Y-82494700D01*
X85090000Y-99060000D02*
X85090000Y-100385300D01*
X93345000Y-100385300D02*
X85090000Y-100385300D01*
X93345000Y-100272700D02*
X93345000Y-100385300D01*
X93345000Y-99060000D02*
X93345000Y-100272700D01*
X101600000Y-99060000D02*
X100874700Y-99060000D01*
X100874700Y-99060000D02*
X99549400Y-100385300D01*
X99549400Y-100385300D02*
X93345000Y-100385300D01*
X85090000Y-114300000D02*
X85090000Y-112974700D01*
X93345000Y-113637300D02*
X92682400Y-112974700D01*
X92682400Y-112974700D02*
X85090000Y-112974700D01*
X93345000Y-113637300D02*
X93345000Y-112974700D01*
X93345000Y-114300000D02*
X93345000Y-113637300D01*
X101600000Y-114300000D02*
X100874700Y-114300000D01*
X100874700Y-114300000D02*
X99549400Y-112974700D01*
X99549400Y-112974700D02*
X93345000Y-112974700D01*
X85090000Y-129540000D02*
X85090000Y-128214700D01*
X93345000Y-128214700D02*
X85090000Y-128214700D01*
X93345000Y-128327300D02*
X93345000Y-128214700D01*
X93345000Y-129540000D02*
X93345000Y-128327300D01*
X101600000Y-129540000D02*
X100874700Y-129540000D01*
X100874700Y-129540000D02*
X99549400Y-128214700D01*
X99549400Y-128214700D02*
X93345000Y-128214700D01*
X85090000Y-144780000D02*
X85090000Y-146105300D01*
X93345000Y-146105300D02*
X85090000Y-146105300D01*
X93345000Y-145992700D02*
X93345000Y-146105300D01*
X93345000Y-144780000D02*
X93345000Y-145992700D01*
X101600000Y-144780000D02*
X100874700Y-144780000D01*
X100874700Y-144780000D02*
X99549400Y-146105300D01*
X99549400Y-146105300D02*
X93345000Y-146105300D01*
X123825000Y-130090000D02*
X123825000Y-130006800D01*
X123825000Y-130006800D02*
X122032900Y-128214700D01*
X122032900Y-128214700D02*
X115570000Y-128214700D01*
X115570000Y-129540000D02*
X115570000Y-128214700D01*
X123825000Y-130090000D02*
X123825000Y-130865300D01*
X123825000Y-129540000D02*
X123825000Y-130090000D01*
X132080000Y-129540000D02*
X131354700Y-129540000D01*
X131354700Y-129540000D02*
X130029400Y-130865300D01*
X130029400Y-130865300D02*
X123825000Y-130865300D01*
X115570000Y-144780000D02*
X115570000Y-146105300D01*
X123825000Y-146105300D02*
X115570000Y-146105300D01*
X123825000Y-145992700D02*
X123825000Y-146105300D01*
X123825000Y-144780000D02*
X123825000Y-145992700D01*
X132080000Y-144780000D02*
X131354700Y-144780000D01*
X131354700Y-144780000D02*
X130029400Y-146105300D01*
X130029400Y-146105300D02*
X123825000Y-146105300D01*
D14*
X95736000Y-97793400D02*
X96596700Y-97793400D01*
X96596700Y-97793400D02*
X97060200Y-97329900D01*
X97060200Y-97329900D02*
X102870000Y-97329900D01*
X87481000Y-99060000D02*
X89211100Y-97329900D01*
X89211100Y-97329900D02*
X95204500Y-97329900D01*
X95204500Y-97329900D02*
X95668000Y-97793400D01*
X95668000Y-97793400D02*
X95736000Y-97793400D01*
X95736000Y-97793400D02*
X95736000Y-99060000D01*
X95736000Y-143059000D02*
X89202000Y-143059000D01*
X89202000Y-143059000D02*
X87481000Y-144780000D01*
X102870000Y-143059000D02*
X95736000Y-143059000D01*
X95736000Y-143059000D02*
X95736000Y-144780000D01*
X86360000Y-144780000D02*
X87481000Y-144780000D01*
X94615000Y-144780000D02*
X95736000Y-144780000D01*
X102870000Y-144780000D02*
X102870000Y-143059000D01*
X95736000Y-131261000D02*
X89202000Y-131261000D01*
X89202000Y-131261000D02*
X87481000Y-129540000D01*
X102870000Y-131261000D02*
X95736000Y-131261000D01*
X95736000Y-131261000D02*
X95736000Y-129540000D01*
X86360000Y-129540000D02*
X87481000Y-129540000D01*
X94615000Y-129540000D02*
X95736000Y-129540000D01*
X102870000Y-129540000D02*
X102870000Y-131261000D01*
X95736000Y-116021000D02*
X89202000Y-116021000D01*
X89202000Y-116021000D02*
X87481000Y-114300000D01*
X102870000Y-116021000D02*
X95736000Y-116021000D01*
X95736000Y-116021000D02*
X95736000Y-114300000D01*
X86360000Y-114300000D02*
X87481000Y-114300000D01*
X94615000Y-114300000D02*
X95736000Y-114300000D01*
X102870000Y-114300000D02*
X102870000Y-116021000D01*
X86360000Y-99060000D02*
X87481000Y-99060000D01*
X102870000Y-97329900D02*
X102870000Y-99060000D01*
X104775000Y-95250000D02*
X102870000Y-97155000D01*
X102870000Y-97155000D02*
X102870000Y-97329900D01*
X94615000Y-99060000D02*
X95736000Y-99060000D01*
X126272400Y-114356400D02*
X127937000Y-116021000D01*
X127937000Y-116021000D02*
X133350000Y-116021000D01*
X126216000Y-114300000D02*
X126272400Y-114356400D01*
X117961000Y-114300000D02*
X119682100Y-116021100D01*
X119682100Y-116021100D02*
X124607700Y-116021100D01*
X124607700Y-116021100D02*
X126272400Y-114356400D01*
X116840000Y-114300000D02*
X117961000Y-114300000D01*
X133350000Y-114300000D02*
X133350000Y-116021000D01*
X125095000Y-114300000D02*
X126216000Y-114300000D01*
X118005100Y-53295900D02*
X117961000Y-53340000D01*
X126216000Y-51619000D02*
X119682000Y-51619000D01*
X119682000Y-51619000D02*
X118005100Y-53295900D01*
X118005100Y-53295900D02*
X116328200Y-51619000D01*
X116328200Y-51619000D02*
X102870000Y-51619000D01*
X95780100Y-53295900D02*
X95736000Y-53340000D01*
X102870000Y-51619000D02*
X97457000Y-51619000D01*
X97457000Y-51619000D02*
X95780100Y-53295900D01*
X95780100Y-53295900D02*
X94103100Y-51618900D01*
X94103100Y-51618900D02*
X89202100Y-51618900D01*
X89202100Y-51618900D02*
X87481000Y-53340000D01*
X86360000Y-53340000D02*
X87481000Y-53340000D01*
X94615000Y-53340000D02*
X95736000Y-53340000D01*
X102870000Y-53340000D02*
X102870000Y-51619000D01*
X133350000Y-51619000D02*
X126216000Y-51619000D01*
X126216000Y-51619000D02*
X126216000Y-53340000D01*
X116840000Y-53340000D02*
X117961000Y-53340000D01*
X125095000Y-53340000D02*
X126216000Y-53340000D01*
X133350000Y-53340000D02*
X133350000Y-51619000D01*
M02*
