G04 #@! TF.GenerationSoftware,KiCad,Pcbnew,(5.1.5)-3*
G04 #@! TF.CreationDate,2020-03-07T08:42:07-06:00*
G04 #@! TF.ProjectId,DSKY_alarm,44534b59-5f61-46c6-9172-6d2e6b696361,4*
G04 #@! TF.SameCoordinates,Original*
G04 #@! TF.FileFunction,Profile,NP*
%FSLAX46Y46*%
G04 Gerber Fmt 4.6, Leading zero omitted, Abs format (unit mm)*
G04 Created by KiCad (PCBNEW (5.1.5)-3) date 2020-03-07 08:42:07*
%MOMM*%
%LPD*%
G04 APERTURE LIST*
%ADD10C,0.050000*%
%ADD11C,0.005000*%
G04 APERTURE END LIST*
D10*
X80645000Y-149860000D02*
X80645000Y-48260000D01*
X138430000Y-149860000D02*
X80645000Y-149860000D01*
X138430000Y-48260000D02*
X138430000Y-149860000D01*
X80645000Y-48260000D02*
X138430000Y-48260000D01*
D11*
X109770000Y-140830000D02*
G75*
G03X110020000Y-140580000I0J250000D01*
G01*
X108670000Y-140830000D02*
X109770000Y-140830000D01*
X108420000Y-140580000D02*
G75*
G03X108670000Y-140830000I250000J0D01*
G01*
X108670000Y-140330000D02*
G75*
G03X108420000Y-140580000I0J-250000D01*
G01*
X109770000Y-140330000D02*
X108670000Y-140330000D01*
X110020000Y-140580000D02*
G75*
G03X109770000Y-140330000I-250000J0D01*
G01*
X112620000Y-138430000D02*
G75*
G03X112370000Y-138180000I-250000J0D01*
G01*
X112370000Y-138680000D02*
G75*
G03X112620000Y-138430000I0J250000D01*
G01*
X111670000Y-138680000D02*
X112370000Y-138680000D01*
X111420000Y-138430000D02*
G75*
G03X111670000Y-138680000I250000J0D01*
G01*
X111670000Y-138180000D02*
G75*
G03X111420000Y-138430000I0J-250000D01*
G01*
X112370000Y-138180000D02*
X111670000Y-138180000D01*
X107020000Y-138430000D02*
G75*
G03X106770000Y-138180000I-250000J0D01*
G01*
X106770000Y-138680000D02*
G75*
G03X107020000Y-138430000I0J250000D01*
G01*
X106070000Y-138680000D02*
X106770000Y-138680000D01*
X105820000Y-138430000D02*
G75*
G03X106070000Y-138680000I250000J0D01*
G01*
X106070000Y-138180000D02*
G75*
G03X105820000Y-138430000I0J-250000D01*
G01*
X106770000Y-138180000D02*
X106070000Y-138180000D01*
M02*
