G04 #@! TF.GenerationSoftware,KiCad,Pcbnew,(5.1.5)-3*
G04 #@! TF.CreationDate,2020-03-07T08:42:07-06:00*
G04 #@! TF.ProjectId,DSKY_alarm,44534b59-5f61-46c6-9172-6d2e6b696361,4*
G04 #@! TF.SameCoordinates,Original*
G04 #@! TF.FileFunction,Paste,Top*
G04 #@! TF.FilePolarity,Positive*
%FSLAX46Y46*%
G04 Gerber Fmt 4.6, Leading zero omitted, Abs format (unit mm)*
G04 Created by KiCad (PCBNEW (5.1.5)-3) date 2020-03-07 08:42:07*
%MOMM*%
%LPD*%
G04 APERTURE LIST*
%ADD10C,0.005000*%
%ADD11R,0.450000X1.500000*%
%ADD12R,1.200000X0.800000*%
%ADD13C,0.100000*%
%ADD14R,1.200000X0.550000*%
%ADD15R,1.000000X1.075000*%
%ADD16R,0.900000X0.900000*%
%ADD17R,0.800000X0.800000*%
%ADD18R,0.910000X1.220000*%
%ADD19R,1.500000X1.240000*%
%ADD20R,1.075000X1.000000*%
%ADD21R,1.240000X1.500000*%
G04 APERTURE END LIST*
D10*
G36*
X109220000Y-140330000D02*
G01*
X109220000Y-140030000D01*
X108670000Y-140030000D01*
X108641215Y-140030754D01*
X108612509Y-140033013D01*
X108583961Y-140036771D01*
X108555649Y-140042019D01*
X108527650Y-140048741D01*
X108500041Y-140056919D01*
X108472898Y-140066531D01*
X108446295Y-140077550D01*
X108420305Y-140089946D01*
X108395000Y-140103686D01*
X108370449Y-140118731D01*
X108346718Y-140135041D01*
X108323874Y-140152570D01*
X108301978Y-140171270D01*
X108281091Y-140191091D01*
X108261270Y-140211978D01*
X108242570Y-140233874D01*
X108225041Y-140256718D01*
X108208731Y-140280449D01*
X108193686Y-140305000D01*
X108179946Y-140330305D01*
X108167550Y-140356295D01*
X108156531Y-140382898D01*
X108146919Y-140410041D01*
X108138741Y-140437650D01*
X108132019Y-140465649D01*
X108126771Y-140493961D01*
X108123013Y-140522509D01*
X108120754Y-140551215D01*
X108120000Y-140580000D01*
X108120754Y-140608785D01*
X108123013Y-140637491D01*
X108126771Y-140666039D01*
X108132019Y-140694351D01*
X108138741Y-140722350D01*
X108146919Y-140749959D01*
X108156531Y-140777102D01*
X108167550Y-140803705D01*
X108179946Y-140829695D01*
X108193686Y-140855000D01*
X108208731Y-140879551D01*
X108225041Y-140903282D01*
X108242570Y-140926126D01*
X108261270Y-140948022D01*
X108281091Y-140968909D01*
X108301978Y-140988730D01*
X108323874Y-141007430D01*
X108346718Y-141024959D01*
X108370449Y-141041269D01*
X108395000Y-141056314D01*
X108420305Y-141070054D01*
X108446295Y-141082450D01*
X108472898Y-141093469D01*
X108500041Y-141103081D01*
X108527650Y-141111259D01*
X108555649Y-141117981D01*
X108583961Y-141123229D01*
X108612509Y-141126987D01*
X108641215Y-141129246D01*
X108670000Y-141130000D01*
X109770000Y-141130000D01*
X109798785Y-141129246D01*
X109827491Y-141126987D01*
X109856039Y-141123229D01*
X109884351Y-141117981D01*
X109912350Y-141111259D01*
X109939959Y-141103081D01*
X109967102Y-141093469D01*
X109993705Y-141082450D01*
X110019695Y-141070054D01*
X110045000Y-141056314D01*
X110069551Y-141041269D01*
X110093282Y-141024959D01*
X110116126Y-141007430D01*
X110138022Y-140988730D01*
X110158909Y-140968909D01*
X110178730Y-140948022D01*
X110197430Y-140926126D01*
X110214959Y-140903282D01*
X110231269Y-140879551D01*
X110246314Y-140855000D01*
X110260054Y-140829695D01*
X110272450Y-140803705D01*
X110283469Y-140777102D01*
X110293081Y-140749959D01*
X110301259Y-140722350D01*
X110307981Y-140694351D01*
X110313229Y-140666039D01*
X110316987Y-140637491D01*
X110319246Y-140608785D01*
X110320000Y-140580000D01*
X110319246Y-140551215D01*
X110316987Y-140522509D01*
X110313229Y-140493961D01*
X110307981Y-140465649D01*
X110301259Y-140437650D01*
X110293081Y-140410041D01*
X110283469Y-140382898D01*
X110272450Y-140356295D01*
X110260054Y-140330305D01*
X110246314Y-140305000D01*
X110231269Y-140280449D01*
X110214959Y-140256718D01*
X110197430Y-140233874D01*
X110178730Y-140211978D01*
X110158909Y-140191091D01*
X110138022Y-140171270D01*
X110116126Y-140152570D01*
X110093282Y-140135041D01*
X110069551Y-140118731D01*
X110045000Y-140103686D01*
X110019695Y-140089946D01*
X109993705Y-140077550D01*
X109967102Y-140066531D01*
X109939959Y-140056919D01*
X109912350Y-140048741D01*
X109884351Y-140042019D01*
X109856039Y-140036771D01*
X109827491Y-140033013D01*
X109798785Y-140030754D01*
X109770000Y-140030000D01*
X109220000Y-140030000D01*
X109220000Y-140330000D01*
X109770000Y-140330000D01*
X109783084Y-140330343D01*
X109796132Y-140331370D01*
X109809109Y-140333078D01*
X109821978Y-140335463D01*
X109834705Y-140338519D01*
X109847254Y-140342236D01*
X109859592Y-140346605D01*
X109871684Y-140351614D01*
X109883498Y-140357248D01*
X109895000Y-140363494D01*
X109906160Y-140370332D01*
X109916946Y-140377746D01*
X109927330Y-140385714D01*
X109937283Y-140394214D01*
X109946777Y-140403223D01*
X109955786Y-140412717D01*
X109964286Y-140422670D01*
X109972254Y-140433054D01*
X109979668Y-140443840D01*
X109986506Y-140455000D01*
X109992752Y-140466502D01*
X109998386Y-140478316D01*
X110003395Y-140490408D01*
X110007764Y-140502746D01*
X110011481Y-140515295D01*
X110014537Y-140528022D01*
X110016922Y-140540891D01*
X110018630Y-140553868D01*
X110019657Y-140566916D01*
X110020000Y-140580000D01*
X110019657Y-140593084D01*
X110018630Y-140606132D01*
X110016922Y-140619109D01*
X110014537Y-140631978D01*
X110011481Y-140644705D01*
X110007764Y-140657254D01*
X110003395Y-140669592D01*
X109998386Y-140681684D01*
X109992752Y-140693498D01*
X109986506Y-140705000D01*
X109979668Y-140716160D01*
X109972254Y-140726946D01*
X109964286Y-140737330D01*
X109955786Y-140747283D01*
X109946777Y-140756777D01*
X109937283Y-140765786D01*
X109927330Y-140774286D01*
X109916946Y-140782254D01*
X109906160Y-140789668D01*
X109895000Y-140796506D01*
X109883498Y-140802752D01*
X109871684Y-140808386D01*
X109859592Y-140813395D01*
X109847254Y-140817764D01*
X109834705Y-140821481D01*
X109821978Y-140824537D01*
X109809109Y-140826922D01*
X109796132Y-140828630D01*
X109783084Y-140829657D01*
X109770000Y-140830000D01*
X108670000Y-140830000D01*
X108656916Y-140829657D01*
X108643868Y-140828630D01*
X108630891Y-140826922D01*
X108618022Y-140824537D01*
X108605295Y-140821481D01*
X108592746Y-140817764D01*
X108580408Y-140813395D01*
X108568316Y-140808386D01*
X108556502Y-140802752D01*
X108545000Y-140796506D01*
X108533840Y-140789668D01*
X108523054Y-140782254D01*
X108512670Y-140774286D01*
X108502717Y-140765786D01*
X108493223Y-140756777D01*
X108484214Y-140747283D01*
X108475714Y-140737330D01*
X108467746Y-140726946D01*
X108460332Y-140716160D01*
X108453494Y-140705000D01*
X108447248Y-140693498D01*
X108441614Y-140681684D01*
X108436605Y-140669592D01*
X108432236Y-140657254D01*
X108428519Y-140644705D01*
X108425463Y-140631978D01*
X108423078Y-140619109D01*
X108421370Y-140606132D01*
X108420343Y-140593084D01*
X108420000Y-140580000D01*
X108420343Y-140566916D01*
X108421370Y-140553868D01*
X108423078Y-140540891D01*
X108425463Y-140528022D01*
X108428519Y-140515295D01*
X108432236Y-140502746D01*
X108436605Y-140490408D01*
X108441614Y-140478316D01*
X108447248Y-140466502D01*
X108453494Y-140455000D01*
X108460332Y-140443840D01*
X108467746Y-140433054D01*
X108475714Y-140422670D01*
X108484214Y-140412717D01*
X108493223Y-140403223D01*
X108502717Y-140394214D01*
X108512670Y-140385714D01*
X108523054Y-140377746D01*
X108533840Y-140370332D01*
X108545000Y-140363494D01*
X108556502Y-140357248D01*
X108568316Y-140351614D01*
X108580408Y-140346605D01*
X108592746Y-140342236D01*
X108605295Y-140338519D01*
X108618022Y-140335463D01*
X108630891Y-140333078D01*
X108643868Y-140331370D01*
X108656916Y-140330343D01*
X108670000Y-140330000D01*
X109220000Y-140330000D01*
G37*
X109220000Y-140330000D02*
X109220000Y-140030000D01*
X108670000Y-140030000D01*
X108641215Y-140030754D01*
X108612509Y-140033013D01*
X108583961Y-140036771D01*
X108555649Y-140042019D01*
X108527650Y-140048741D01*
X108500041Y-140056919D01*
X108472898Y-140066531D01*
X108446295Y-140077550D01*
X108420305Y-140089946D01*
X108395000Y-140103686D01*
X108370449Y-140118731D01*
X108346718Y-140135041D01*
X108323874Y-140152570D01*
X108301978Y-140171270D01*
X108281091Y-140191091D01*
X108261270Y-140211978D01*
X108242570Y-140233874D01*
X108225041Y-140256718D01*
X108208731Y-140280449D01*
X108193686Y-140305000D01*
X108179946Y-140330305D01*
X108167550Y-140356295D01*
X108156531Y-140382898D01*
X108146919Y-140410041D01*
X108138741Y-140437650D01*
X108132019Y-140465649D01*
X108126771Y-140493961D01*
X108123013Y-140522509D01*
X108120754Y-140551215D01*
X108120000Y-140580000D01*
X108120754Y-140608785D01*
X108123013Y-140637491D01*
X108126771Y-140666039D01*
X108132019Y-140694351D01*
X108138741Y-140722350D01*
X108146919Y-140749959D01*
X108156531Y-140777102D01*
X108167550Y-140803705D01*
X108179946Y-140829695D01*
X108193686Y-140855000D01*
X108208731Y-140879551D01*
X108225041Y-140903282D01*
X108242570Y-140926126D01*
X108261270Y-140948022D01*
X108281091Y-140968909D01*
X108301978Y-140988730D01*
X108323874Y-141007430D01*
X108346718Y-141024959D01*
X108370449Y-141041269D01*
X108395000Y-141056314D01*
X108420305Y-141070054D01*
X108446295Y-141082450D01*
X108472898Y-141093469D01*
X108500041Y-141103081D01*
X108527650Y-141111259D01*
X108555649Y-141117981D01*
X108583961Y-141123229D01*
X108612509Y-141126987D01*
X108641215Y-141129246D01*
X108670000Y-141130000D01*
X109770000Y-141130000D01*
X109798785Y-141129246D01*
X109827491Y-141126987D01*
X109856039Y-141123229D01*
X109884351Y-141117981D01*
X109912350Y-141111259D01*
X109939959Y-141103081D01*
X109967102Y-141093469D01*
X109993705Y-141082450D01*
X110019695Y-141070054D01*
X110045000Y-141056314D01*
X110069551Y-141041269D01*
X110093282Y-141024959D01*
X110116126Y-141007430D01*
X110138022Y-140988730D01*
X110158909Y-140968909D01*
X110178730Y-140948022D01*
X110197430Y-140926126D01*
X110214959Y-140903282D01*
X110231269Y-140879551D01*
X110246314Y-140855000D01*
X110260054Y-140829695D01*
X110272450Y-140803705D01*
X110283469Y-140777102D01*
X110293081Y-140749959D01*
X110301259Y-140722350D01*
X110307981Y-140694351D01*
X110313229Y-140666039D01*
X110316987Y-140637491D01*
X110319246Y-140608785D01*
X110320000Y-140580000D01*
X110319246Y-140551215D01*
X110316987Y-140522509D01*
X110313229Y-140493961D01*
X110307981Y-140465649D01*
X110301259Y-140437650D01*
X110293081Y-140410041D01*
X110283469Y-140382898D01*
X110272450Y-140356295D01*
X110260054Y-140330305D01*
X110246314Y-140305000D01*
X110231269Y-140280449D01*
X110214959Y-140256718D01*
X110197430Y-140233874D01*
X110178730Y-140211978D01*
X110158909Y-140191091D01*
X110138022Y-140171270D01*
X110116126Y-140152570D01*
X110093282Y-140135041D01*
X110069551Y-140118731D01*
X110045000Y-140103686D01*
X110019695Y-140089946D01*
X109993705Y-140077550D01*
X109967102Y-140066531D01*
X109939959Y-140056919D01*
X109912350Y-140048741D01*
X109884351Y-140042019D01*
X109856039Y-140036771D01*
X109827491Y-140033013D01*
X109798785Y-140030754D01*
X109770000Y-140030000D01*
X109220000Y-140030000D01*
X109220000Y-140330000D01*
X109770000Y-140330000D01*
X109783084Y-140330343D01*
X109796132Y-140331370D01*
X109809109Y-140333078D01*
X109821978Y-140335463D01*
X109834705Y-140338519D01*
X109847254Y-140342236D01*
X109859592Y-140346605D01*
X109871684Y-140351614D01*
X109883498Y-140357248D01*
X109895000Y-140363494D01*
X109906160Y-140370332D01*
X109916946Y-140377746D01*
X109927330Y-140385714D01*
X109937283Y-140394214D01*
X109946777Y-140403223D01*
X109955786Y-140412717D01*
X109964286Y-140422670D01*
X109972254Y-140433054D01*
X109979668Y-140443840D01*
X109986506Y-140455000D01*
X109992752Y-140466502D01*
X109998386Y-140478316D01*
X110003395Y-140490408D01*
X110007764Y-140502746D01*
X110011481Y-140515295D01*
X110014537Y-140528022D01*
X110016922Y-140540891D01*
X110018630Y-140553868D01*
X110019657Y-140566916D01*
X110020000Y-140580000D01*
X110019657Y-140593084D01*
X110018630Y-140606132D01*
X110016922Y-140619109D01*
X110014537Y-140631978D01*
X110011481Y-140644705D01*
X110007764Y-140657254D01*
X110003395Y-140669592D01*
X109998386Y-140681684D01*
X109992752Y-140693498D01*
X109986506Y-140705000D01*
X109979668Y-140716160D01*
X109972254Y-140726946D01*
X109964286Y-140737330D01*
X109955786Y-140747283D01*
X109946777Y-140756777D01*
X109937283Y-140765786D01*
X109927330Y-140774286D01*
X109916946Y-140782254D01*
X109906160Y-140789668D01*
X109895000Y-140796506D01*
X109883498Y-140802752D01*
X109871684Y-140808386D01*
X109859592Y-140813395D01*
X109847254Y-140817764D01*
X109834705Y-140821481D01*
X109821978Y-140824537D01*
X109809109Y-140826922D01*
X109796132Y-140828630D01*
X109783084Y-140829657D01*
X109770000Y-140830000D01*
X108670000Y-140830000D01*
X108656916Y-140829657D01*
X108643868Y-140828630D01*
X108630891Y-140826922D01*
X108618022Y-140824537D01*
X108605295Y-140821481D01*
X108592746Y-140817764D01*
X108580408Y-140813395D01*
X108568316Y-140808386D01*
X108556502Y-140802752D01*
X108545000Y-140796506D01*
X108533840Y-140789668D01*
X108523054Y-140782254D01*
X108512670Y-140774286D01*
X108502717Y-140765786D01*
X108493223Y-140756777D01*
X108484214Y-140747283D01*
X108475714Y-140737330D01*
X108467746Y-140726946D01*
X108460332Y-140716160D01*
X108453494Y-140705000D01*
X108447248Y-140693498D01*
X108441614Y-140681684D01*
X108436605Y-140669592D01*
X108432236Y-140657254D01*
X108428519Y-140644705D01*
X108425463Y-140631978D01*
X108423078Y-140619109D01*
X108421370Y-140606132D01*
X108420343Y-140593084D01*
X108420000Y-140580000D01*
X108420343Y-140566916D01*
X108421370Y-140553868D01*
X108423078Y-140540891D01*
X108425463Y-140528022D01*
X108428519Y-140515295D01*
X108432236Y-140502746D01*
X108436605Y-140490408D01*
X108441614Y-140478316D01*
X108447248Y-140466502D01*
X108453494Y-140455000D01*
X108460332Y-140443840D01*
X108467746Y-140433054D01*
X108475714Y-140422670D01*
X108484214Y-140412717D01*
X108493223Y-140403223D01*
X108502717Y-140394214D01*
X108512670Y-140385714D01*
X108523054Y-140377746D01*
X108533840Y-140370332D01*
X108545000Y-140363494D01*
X108556502Y-140357248D01*
X108568316Y-140351614D01*
X108580408Y-140346605D01*
X108592746Y-140342236D01*
X108605295Y-140338519D01*
X108618022Y-140335463D01*
X108630891Y-140333078D01*
X108643868Y-140331370D01*
X108656916Y-140330343D01*
X108670000Y-140330000D01*
X109220000Y-140330000D01*
G36*
X111420000Y-138430000D02*
G01*
X111420343Y-138443084D01*
X111421370Y-138456132D01*
X111423078Y-138469109D01*
X111425463Y-138481978D01*
X111428519Y-138494705D01*
X111432236Y-138507254D01*
X111436605Y-138519592D01*
X111441614Y-138531684D01*
X111447248Y-138543498D01*
X111453494Y-138555000D01*
X111460332Y-138566160D01*
X111467746Y-138576946D01*
X111475714Y-138587330D01*
X111484214Y-138597283D01*
X111493223Y-138606777D01*
X111502717Y-138615786D01*
X111512670Y-138624286D01*
X111523054Y-138632254D01*
X111533840Y-138639668D01*
X111545000Y-138646506D01*
X111556502Y-138652752D01*
X111568316Y-138658386D01*
X111580408Y-138663395D01*
X111592746Y-138667764D01*
X111605295Y-138671481D01*
X111618022Y-138674537D01*
X111630891Y-138676922D01*
X111643868Y-138678630D01*
X111656916Y-138679657D01*
X111670000Y-138680000D01*
X112370000Y-138680000D01*
X112383084Y-138679657D01*
X112396132Y-138678630D01*
X112409109Y-138676922D01*
X112421978Y-138674537D01*
X112434705Y-138671481D01*
X112447254Y-138667764D01*
X112459592Y-138663395D01*
X112471684Y-138658386D01*
X112483498Y-138652752D01*
X112495000Y-138646506D01*
X112506160Y-138639668D01*
X112516946Y-138632254D01*
X112527330Y-138624286D01*
X112537283Y-138615786D01*
X112546777Y-138606777D01*
X112555786Y-138597283D01*
X112564286Y-138587330D01*
X112572254Y-138576946D01*
X112579668Y-138566160D01*
X112586506Y-138555000D01*
X112592752Y-138543498D01*
X112598386Y-138531684D01*
X112603395Y-138519592D01*
X112607764Y-138507254D01*
X112611481Y-138494705D01*
X112614537Y-138481978D01*
X112616922Y-138469109D01*
X112618630Y-138456132D01*
X112619657Y-138443084D01*
X112620000Y-138430000D01*
X112619657Y-138416916D01*
X112618630Y-138403868D01*
X112616922Y-138390891D01*
X112614537Y-138378022D01*
X112611481Y-138365295D01*
X112607764Y-138352746D01*
X112603395Y-138340408D01*
X112598386Y-138328316D01*
X112592752Y-138316502D01*
X112586506Y-138305000D01*
X112579668Y-138293840D01*
X112572254Y-138283054D01*
X112564286Y-138272670D01*
X112555786Y-138262717D01*
X112546777Y-138253223D01*
X112537283Y-138244214D01*
X112527330Y-138235714D01*
X112516946Y-138227746D01*
X112506160Y-138220332D01*
X112495000Y-138213494D01*
X112483498Y-138207248D01*
X112471684Y-138201614D01*
X112459592Y-138196605D01*
X112447254Y-138192236D01*
X112434705Y-138188519D01*
X112421978Y-138185463D01*
X112409109Y-138183078D01*
X112396132Y-138181370D01*
X112383084Y-138180343D01*
X112370000Y-138180000D01*
X112020000Y-138180000D01*
X112020000Y-137880000D01*
X112370000Y-137880000D01*
X112398785Y-137880754D01*
X112427491Y-137883013D01*
X112456039Y-137886771D01*
X112484351Y-137892019D01*
X112512350Y-137898741D01*
X112539959Y-137906919D01*
X112567102Y-137916531D01*
X112593705Y-137927550D01*
X112619695Y-137939946D01*
X112645000Y-137953686D01*
X112669551Y-137968731D01*
X112693282Y-137985041D01*
X112716126Y-138002570D01*
X112738022Y-138021270D01*
X112758909Y-138041091D01*
X112778730Y-138061978D01*
X112797430Y-138083874D01*
X112814959Y-138106718D01*
X112831269Y-138130449D01*
X112846314Y-138155000D01*
X112860054Y-138180305D01*
X112872450Y-138206295D01*
X112883469Y-138232898D01*
X112893081Y-138260041D01*
X112901259Y-138287650D01*
X112907981Y-138315649D01*
X112913229Y-138343961D01*
X112916987Y-138372509D01*
X112919246Y-138401215D01*
X112920000Y-138430000D01*
X112919246Y-138458785D01*
X112916987Y-138487491D01*
X112913229Y-138516039D01*
X112907981Y-138544351D01*
X112901259Y-138572350D01*
X112893081Y-138599959D01*
X112883469Y-138627102D01*
X112872450Y-138653705D01*
X112860054Y-138679695D01*
X112846314Y-138705000D01*
X112831269Y-138729551D01*
X112814959Y-138753282D01*
X112797430Y-138776126D01*
X112778730Y-138798022D01*
X112758909Y-138818909D01*
X112738022Y-138838730D01*
X112716126Y-138857430D01*
X112693282Y-138874959D01*
X112669551Y-138891269D01*
X112645000Y-138906314D01*
X112619695Y-138920054D01*
X112593705Y-138932450D01*
X112567102Y-138943469D01*
X112539959Y-138953081D01*
X112512350Y-138961259D01*
X112484351Y-138967981D01*
X112456039Y-138973229D01*
X112427491Y-138976987D01*
X112398785Y-138979246D01*
X112370000Y-138980000D01*
X111670000Y-138980000D01*
X111641215Y-138979246D01*
X111612509Y-138976987D01*
X111583961Y-138973229D01*
X111555649Y-138967981D01*
X111527650Y-138961259D01*
X111500041Y-138953081D01*
X111472898Y-138943469D01*
X111446295Y-138932450D01*
X111420305Y-138920054D01*
X111395000Y-138906314D01*
X111370449Y-138891269D01*
X111346718Y-138874959D01*
X111323874Y-138857430D01*
X111301978Y-138838730D01*
X111281091Y-138818909D01*
X111261270Y-138798022D01*
X111242570Y-138776126D01*
X111225041Y-138753282D01*
X111208731Y-138729551D01*
X111193686Y-138705000D01*
X111179946Y-138679695D01*
X111167550Y-138653705D01*
X111156531Y-138627102D01*
X111146919Y-138599959D01*
X111138741Y-138572350D01*
X111132019Y-138544351D01*
X111126771Y-138516039D01*
X111123013Y-138487491D01*
X111120754Y-138458785D01*
X111120000Y-138430000D01*
X111120754Y-138401215D01*
X111123013Y-138372509D01*
X111126771Y-138343961D01*
X111132019Y-138315649D01*
X111138741Y-138287650D01*
X111146919Y-138260041D01*
X111156531Y-138232898D01*
X111167550Y-138206295D01*
X111179946Y-138180305D01*
X111193686Y-138155000D01*
X111208731Y-138130449D01*
X111225041Y-138106718D01*
X111242570Y-138083874D01*
X111261270Y-138061978D01*
X111281091Y-138041091D01*
X111301978Y-138021270D01*
X111323874Y-138002570D01*
X111346718Y-137985041D01*
X111370449Y-137968731D01*
X111395000Y-137953686D01*
X111420305Y-137939946D01*
X111446295Y-137927550D01*
X111472898Y-137916531D01*
X111500041Y-137906919D01*
X111527650Y-137898741D01*
X111555649Y-137892019D01*
X111583961Y-137886771D01*
X111612509Y-137883013D01*
X111641215Y-137880754D01*
X111670000Y-137880000D01*
X112020000Y-137880000D01*
X112020000Y-138180000D01*
X111670000Y-138180000D01*
X111656916Y-138180343D01*
X111643868Y-138181370D01*
X111630891Y-138183078D01*
X111618022Y-138185463D01*
X111605295Y-138188519D01*
X111592746Y-138192236D01*
X111580408Y-138196605D01*
X111568316Y-138201614D01*
X111556502Y-138207248D01*
X111545000Y-138213494D01*
X111533840Y-138220332D01*
X111523054Y-138227746D01*
X111512670Y-138235714D01*
X111502717Y-138244214D01*
X111493223Y-138253223D01*
X111484214Y-138262717D01*
X111475714Y-138272670D01*
X111467746Y-138283054D01*
X111460332Y-138293840D01*
X111453494Y-138305000D01*
X111447248Y-138316502D01*
X111441614Y-138328316D01*
X111436605Y-138340408D01*
X111432236Y-138352746D01*
X111428519Y-138365295D01*
X111425463Y-138378022D01*
X111423078Y-138390891D01*
X111421370Y-138403868D01*
X111420343Y-138416916D01*
X111420000Y-138430000D01*
G37*
X111420000Y-138430000D02*
X111420343Y-138443084D01*
X111421370Y-138456132D01*
X111423078Y-138469109D01*
X111425463Y-138481978D01*
X111428519Y-138494705D01*
X111432236Y-138507254D01*
X111436605Y-138519592D01*
X111441614Y-138531684D01*
X111447248Y-138543498D01*
X111453494Y-138555000D01*
X111460332Y-138566160D01*
X111467746Y-138576946D01*
X111475714Y-138587330D01*
X111484214Y-138597283D01*
X111493223Y-138606777D01*
X111502717Y-138615786D01*
X111512670Y-138624286D01*
X111523054Y-138632254D01*
X111533840Y-138639668D01*
X111545000Y-138646506D01*
X111556502Y-138652752D01*
X111568316Y-138658386D01*
X111580408Y-138663395D01*
X111592746Y-138667764D01*
X111605295Y-138671481D01*
X111618022Y-138674537D01*
X111630891Y-138676922D01*
X111643868Y-138678630D01*
X111656916Y-138679657D01*
X111670000Y-138680000D01*
X112370000Y-138680000D01*
X112383084Y-138679657D01*
X112396132Y-138678630D01*
X112409109Y-138676922D01*
X112421978Y-138674537D01*
X112434705Y-138671481D01*
X112447254Y-138667764D01*
X112459592Y-138663395D01*
X112471684Y-138658386D01*
X112483498Y-138652752D01*
X112495000Y-138646506D01*
X112506160Y-138639668D01*
X112516946Y-138632254D01*
X112527330Y-138624286D01*
X112537283Y-138615786D01*
X112546777Y-138606777D01*
X112555786Y-138597283D01*
X112564286Y-138587330D01*
X112572254Y-138576946D01*
X112579668Y-138566160D01*
X112586506Y-138555000D01*
X112592752Y-138543498D01*
X112598386Y-138531684D01*
X112603395Y-138519592D01*
X112607764Y-138507254D01*
X112611481Y-138494705D01*
X112614537Y-138481978D01*
X112616922Y-138469109D01*
X112618630Y-138456132D01*
X112619657Y-138443084D01*
X112620000Y-138430000D01*
X112619657Y-138416916D01*
X112618630Y-138403868D01*
X112616922Y-138390891D01*
X112614537Y-138378022D01*
X112611481Y-138365295D01*
X112607764Y-138352746D01*
X112603395Y-138340408D01*
X112598386Y-138328316D01*
X112592752Y-138316502D01*
X112586506Y-138305000D01*
X112579668Y-138293840D01*
X112572254Y-138283054D01*
X112564286Y-138272670D01*
X112555786Y-138262717D01*
X112546777Y-138253223D01*
X112537283Y-138244214D01*
X112527330Y-138235714D01*
X112516946Y-138227746D01*
X112506160Y-138220332D01*
X112495000Y-138213494D01*
X112483498Y-138207248D01*
X112471684Y-138201614D01*
X112459592Y-138196605D01*
X112447254Y-138192236D01*
X112434705Y-138188519D01*
X112421978Y-138185463D01*
X112409109Y-138183078D01*
X112396132Y-138181370D01*
X112383084Y-138180343D01*
X112370000Y-138180000D01*
X112020000Y-138180000D01*
X112020000Y-137880000D01*
X112370000Y-137880000D01*
X112398785Y-137880754D01*
X112427491Y-137883013D01*
X112456039Y-137886771D01*
X112484351Y-137892019D01*
X112512350Y-137898741D01*
X112539959Y-137906919D01*
X112567102Y-137916531D01*
X112593705Y-137927550D01*
X112619695Y-137939946D01*
X112645000Y-137953686D01*
X112669551Y-137968731D01*
X112693282Y-137985041D01*
X112716126Y-138002570D01*
X112738022Y-138021270D01*
X112758909Y-138041091D01*
X112778730Y-138061978D01*
X112797430Y-138083874D01*
X112814959Y-138106718D01*
X112831269Y-138130449D01*
X112846314Y-138155000D01*
X112860054Y-138180305D01*
X112872450Y-138206295D01*
X112883469Y-138232898D01*
X112893081Y-138260041D01*
X112901259Y-138287650D01*
X112907981Y-138315649D01*
X112913229Y-138343961D01*
X112916987Y-138372509D01*
X112919246Y-138401215D01*
X112920000Y-138430000D01*
X112919246Y-138458785D01*
X112916987Y-138487491D01*
X112913229Y-138516039D01*
X112907981Y-138544351D01*
X112901259Y-138572350D01*
X112893081Y-138599959D01*
X112883469Y-138627102D01*
X112872450Y-138653705D01*
X112860054Y-138679695D01*
X112846314Y-138705000D01*
X112831269Y-138729551D01*
X112814959Y-138753282D01*
X112797430Y-138776126D01*
X112778730Y-138798022D01*
X112758909Y-138818909D01*
X112738022Y-138838730D01*
X112716126Y-138857430D01*
X112693282Y-138874959D01*
X112669551Y-138891269D01*
X112645000Y-138906314D01*
X112619695Y-138920054D01*
X112593705Y-138932450D01*
X112567102Y-138943469D01*
X112539959Y-138953081D01*
X112512350Y-138961259D01*
X112484351Y-138967981D01*
X112456039Y-138973229D01*
X112427491Y-138976987D01*
X112398785Y-138979246D01*
X112370000Y-138980000D01*
X111670000Y-138980000D01*
X111641215Y-138979246D01*
X111612509Y-138976987D01*
X111583961Y-138973229D01*
X111555649Y-138967981D01*
X111527650Y-138961259D01*
X111500041Y-138953081D01*
X111472898Y-138943469D01*
X111446295Y-138932450D01*
X111420305Y-138920054D01*
X111395000Y-138906314D01*
X111370449Y-138891269D01*
X111346718Y-138874959D01*
X111323874Y-138857430D01*
X111301978Y-138838730D01*
X111281091Y-138818909D01*
X111261270Y-138798022D01*
X111242570Y-138776126D01*
X111225041Y-138753282D01*
X111208731Y-138729551D01*
X111193686Y-138705000D01*
X111179946Y-138679695D01*
X111167550Y-138653705D01*
X111156531Y-138627102D01*
X111146919Y-138599959D01*
X111138741Y-138572350D01*
X111132019Y-138544351D01*
X111126771Y-138516039D01*
X111123013Y-138487491D01*
X111120754Y-138458785D01*
X111120000Y-138430000D01*
X111120754Y-138401215D01*
X111123013Y-138372509D01*
X111126771Y-138343961D01*
X111132019Y-138315649D01*
X111138741Y-138287650D01*
X111146919Y-138260041D01*
X111156531Y-138232898D01*
X111167550Y-138206295D01*
X111179946Y-138180305D01*
X111193686Y-138155000D01*
X111208731Y-138130449D01*
X111225041Y-138106718D01*
X111242570Y-138083874D01*
X111261270Y-138061978D01*
X111281091Y-138041091D01*
X111301978Y-138021270D01*
X111323874Y-138002570D01*
X111346718Y-137985041D01*
X111370449Y-137968731D01*
X111395000Y-137953686D01*
X111420305Y-137939946D01*
X111446295Y-137927550D01*
X111472898Y-137916531D01*
X111500041Y-137906919D01*
X111527650Y-137898741D01*
X111555649Y-137892019D01*
X111583961Y-137886771D01*
X111612509Y-137883013D01*
X111641215Y-137880754D01*
X111670000Y-137880000D01*
X112020000Y-137880000D01*
X112020000Y-138180000D01*
X111670000Y-138180000D01*
X111656916Y-138180343D01*
X111643868Y-138181370D01*
X111630891Y-138183078D01*
X111618022Y-138185463D01*
X111605295Y-138188519D01*
X111592746Y-138192236D01*
X111580408Y-138196605D01*
X111568316Y-138201614D01*
X111556502Y-138207248D01*
X111545000Y-138213494D01*
X111533840Y-138220332D01*
X111523054Y-138227746D01*
X111512670Y-138235714D01*
X111502717Y-138244214D01*
X111493223Y-138253223D01*
X111484214Y-138262717D01*
X111475714Y-138272670D01*
X111467746Y-138283054D01*
X111460332Y-138293840D01*
X111453494Y-138305000D01*
X111447248Y-138316502D01*
X111441614Y-138328316D01*
X111436605Y-138340408D01*
X111432236Y-138352746D01*
X111428519Y-138365295D01*
X111425463Y-138378022D01*
X111423078Y-138390891D01*
X111421370Y-138403868D01*
X111420343Y-138416916D01*
X111420000Y-138430000D01*
G36*
X105820000Y-138430000D02*
G01*
X105820343Y-138443084D01*
X105821370Y-138456132D01*
X105823078Y-138469109D01*
X105825463Y-138481978D01*
X105828519Y-138494705D01*
X105832236Y-138507254D01*
X105836605Y-138519592D01*
X105841614Y-138531684D01*
X105847248Y-138543498D01*
X105853494Y-138555000D01*
X105860332Y-138566160D01*
X105867746Y-138576946D01*
X105875714Y-138587330D01*
X105884214Y-138597283D01*
X105893223Y-138606777D01*
X105902717Y-138615786D01*
X105912670Y-138624286D01*
X105923054Y-138632254D01*
X105933840Y-138639668D01*
X105945000Y-138646506D01*
X105956502Y-138652752D01*
X105968316Y-138658386D01*
X105980408Y-138663395D01*
X105992746Y-138667764D01*
X106005295Y-138671481D01*
X106018022Y-138674537D01*
X106030891Y-138676922D01*
X106043868Y-138678630D01*
X106056916Y-138679657D01*
X106070000Y-138680000D01*
X106770000Y-138680000D01*
X106783084Y-138679657D01*
X106796132Y-138678630D01*
X106809109Y-138676922D01*
X106821978Y-138674537D01*
X106834705Y-138671481D01*
X106847254Y-138667764D01*
X106859592Y-138663395D01*
X106871684Y-138658386D01*
X106883498Y-138652752D01*
X106895000Y-138646506D01*
X106906160Y-138639668D01*
X106916946Y-138632254D01*
X106927330Y-138624286D01*
X106937283Y-138615786D01*
X106946777Y-138606777D01*
X106955786Y-138597283D01*
X106964286Y-138587330D01*
X106972254Y-138576946D01*
X106979668Y-138566160D01*
X106986506Y-138555000D01*
X106992752Y-138543498D01*
X106998386Y-138531684D01*
X107003395Y-138519592D01*
X107007764Y-138507254D01*
X107011481Y-138494705D01*
X107014537Y-138481978D01*
X107016922Y-138469109D01*
X107018630Y-138456132D01*
X107019657Y-138443084D01*
X107020000Y-138430000D01*
X107019657Y-138416916D01*
X107018630Y-138403868D01*
X107016922Y-138390891D01*
X107014537Y-138378022D01*
X107011481Y-138365295D01*
X107007764Y-138352746D01*
X107003395Y-138340408D01*
X106998386Y-138328316D01*
X106992752Y-138316502D01*
X106986506Y-138305000D01*
X106979668Y-138293840D01*
X106972254Y-138283054D01*
X106964286Y-138272670D01*
X106955786Y-138262717D01*
X106946777Y-138253223D01*
X106937283Y-138244214D01*
X106927330Y-138235714D01*
X106916946Y-138227746D01*
X106906160Y-138220332D01*
X106895000Y-138213494D01*
X106883498Y-138207248D01*
X106871684Y-138201614D01*
X106859592Y-138196605D01*
X106847254Y-138192236D01*
X106834705Y-138188519D01*
X106821978Y-138185463D01*
X106809109Y-138183078D01*
X106796132Y-138181370D01*
X106783084Y-138180343D01*
X106770000Y-138180000D01*
X106420000Y-138180000D01*
X106420000Y-137880000D01*
X106770000Y-137880000D01*
X106798785Y-137880754D01*
X106827491Y-137883013D01*
X106856039Y-137886771D01*
X106884351Y-137892019D01*
X106912350Y-137898741D01*
X106939959Y-137906919D01*
X106967102Y-137916531D01*
X106993705Y-137927550D01*
X107019695Y-137939946D01*
X107045000Y-137953686D01*
X107069551Y-137968731D01*
X107093282Y-137985041D01*
X107116126Y-138002570D01*
X107138022Y-138021270D01*
X107158909Y-138041091D01*
X107178730Y-138061978D01*
X107197430Y-138083874D01*
X107214959Y-138106718D01*
X107231269Y-138130449D01*
X107246314Y-138155000D01*
X107260054Y-138180305D01*
X107272450Y-138206295D01*
X107283469Y-138232898D01*
X107293081Y-138260041D01*
X107301259Y-138287650D01*
X107307981Y-138315649D01*
X107313229Y-138343961D01*
X107316987Y-138372509D01*
X107319246Y-138401215D01*
X107320000Y-138430000D01*
X107319246Y-138458785D01*
X107316987Y-138487491D01*
X107313229Y-138516039D01*
X107307981Y-138544351D01*
X107301259Y-138572350D01*
X107293081Y-138599959D01*
X107283469Y-138627102D01*
X107272450Y-138653705D01*
X107260054Y-138679695D01*
X107246314Y-138705000D01*
X107231269Y-138729551D01*
X107214959Y-138753282D01*
X107197430Y-138776126D01*
X107178730Y-138798022D01*
X107158909Y-138818909D01*
X107138022Y-138838730D01*
X107116126Y-138857430D01*
X107093282Y-138874959D01*
X107069551Y-138891269D01*
X107045000Y-138906314D01*
X107019695Y-138920054D01*
X106993705Y-138932450D01*
X106967102Y-138943469D01*
X106939959Y-138953081D01*
X106912350Y-138961259D01*
X106884351Y-138967981D01*
X106856039Y-138973229D01*
X106827491Y-138976987D01*
X106798785Y-138979246D01*
X106770000Y-138980000D01*
X106070000Y-138980000D01*
X106041215Y-138979246D01*
X106012509Y-138976987D01*
X105983961Y-138973229D01*
X105955649Y-138967981D01*
X105927650Y-138961259D01*
X105900041Y-138953081D01*
X105872898Y-138943469D01*
X105846295Y-138932450D01*
X105820305Y-138920054D01*
X105795000Y-138906314D01*
X105770449Y-138891269D01*
X105746718Y-138874959D01*
X105723874Y-138857430D01*
X105701978Y-138838730D01*
X105681091Y-138818909D01*
X105661270Y-138798022D01*
X105642570Y-138776126D01*
X105625041Y-138753282D01*
X105608731Y-138729551D01*
X105593686Y-138705000D01*
X105579946Y-138679695D01*
X105567550Y-138653705D01*
X105556531Y-138627102D01*
X105546919Y-138599959D01*
X105538741Y-138572350D01*
X105532019Y-138544351D01*
X105526771Y-138516039D01*
X105523013Y-138487491D01*
X105520754Y-138458785D01*
X105520000Y-138430000D01*
X105520754Y-138401215D01*
X105523013Y-138372509D01*
X105526771Y-138343961D01*
X105532019Y-138315649D01*
X105538741Y-138287650D01*
X105546919Y-138260041D01*
X105556531Y-138232898D01*
X105567550Y-138206295D01*
X105579946Y-138180305D01*
X105593686Y-138155000D01*
X105608731Y-138130449D01*
X105625041Y-138106718D01*
X105642570Y-138083874D01*
X105661270Y-138061978D01*
X105681091Y-138041091D01*
X105701978Y-138021270D01*
X105723874Y-138002570D01*
X105746718Y-137985041D01*
X105770449Y-137968731D01*
X105795000Y-137953686D01*
X105820305Y-137939946D01*
X105846295Y-137927550D01*
X105872898Y-137916531D01*
X105900041Y-137906919D01*
X105927650Y-137898741D01*
X105955649Y-137892019D01*
X105983961Y-137886771D01*
X106012509Y-137883013D01*
X106041215Y-137880754D01*
X106070000Y-137880000D01*
X106420000Y-137880000D01*
X106420000Y-138180000D01*
X106070000Y-138180000D01*
X106056916Y-138180343D01*
X106043868Y-138181370D01*
X106030891Y-138183078D01*
X106018022Y-138185463D01*
X106005295Y-138188519D01*
X105992746Y-138192236D01*
X105980408Y-138196605D01*
X105968316Y-138201614D01*
X105956502Y-138207248D01*
X105945000Y-138213494D01*
X105933840Y-138220332D01*
X105923054Y-138227746D01*
X105912670Y-138235714D01*
X105902717Y-138244214D01*
X105893223Y-138253223D01*
X105884214Y-138262717D01*
X105875714Y-138272670D01*
X105867746Y-138283054D01*
X105860332Y-138293840D01*
X105853494Y-138305000D01*
X105847248Y-138316502D01*
X105841614Y-138328316D01*
X105836605Y-138340408D01*
X105832236Y-138352746D01*
X105828519Y-138365295D01*
X105825463Y-138378022D01*
X105823078Y-138390891D01*
X105821370Y-138403868D01*
X105820343Y-138416916D01*
X105820000Y-138430000D01*
G37*
X105820000Y-138430000D02*
X105820343Y-138443084D01*
X105821370Y-138456132D01*
X105823078Y-138469109D01*
X105825463Y-138481978D01*
X105828519Y-138494705D01*
X105832236Y-138507254D01*
X105836605Y-138519592D01*
X105841614Y-138531684D01*
X105847248Y-138543498D01*
X105853494Y-138555000D01*
X105860332Y-138566160D01*
X105867746Y-138576946D01*
X105875714Y-138587330D01*
X105884214Y-138597283D01*
X105893223Y-138606777D01*
X105902717Y-138615786D01*
X105912670Y-138624286D01*
X105923054Y-138632254D01*
X105933840Y-138639668D01*
X105945000Y-138646506D01*
X105956502Y-138652752D01*
X105968316Y-138658386D01*
X105980408Y-138663395D01*
X105992746Y-138667764D01*
X106005295Y-138671481D01*
X106018022Y-138674537D01*
X106030891Y-138676922D01*
X106043868Y-138678630D01*
X106056916Y-138679657D01*
X106070000Y-138680000D01*
X106770000Y-138680000D01*
X106783084Y-138679657D01*
X106796132Y-138678630D01*
X106809109Y-138676922D01*
X106821978Y-138674537D01*
X106834705Y-138671481D01*
X106847254Y-138667764D01*
X106859592Y-138663395D01*
X106871684Y-138658386D01*
X106883498Y-138652752D01*
X106895000Y-138646506D01*
X106906160Y-138639668D01*
X106916946Y-138632254D01*
X106927330Y-138624286D01*
X106937283Y-138615786D01*
X106946777Y-138606777D01*
X106955786Y-138597283D01*
X106964286Y-138587330D01*
X106972254Y-138576946D01*
X106979668Y-138566160D01*
X106986506Y-138555000D01*
X106992752Y-138543498D01*
X106998386Y-138531684D01*
X107003395Y-138519592D01*
X107007764Y-138507254D01*
X107011481Y-138494705D01*
X107014537Y-138481978D01*
X107016922Y-138469109D01*
X107018630Y-138456132D01*
X107019657Y-138443084D01*
X107020000Y-138430000D01*
X107019657Y-138416916D01*
X107018630Y-138403868D01*
X107016922Y-138390891D01*
X107014537Y-138378022D01*
X107011481Y-138365295D01*
X107007764Y-138352746D01*
X107003395Y-138340408D01*
X106998386Y-138328316D01*
X106992752Y-138316502D01*
X106986506Y-138305000D01*
X106979668Y-138293840D01*
X106972254Y-138283054D01*
X106964286Y-138272670D01*
X106955786Y-138262717D01*
X106946777Y-138253223D01*
X106937283Y-138244214D01*
X106927330Y-138235714D01*
X106916946Y-138227746D01*
X106906160Y-138220332D01*
X106895000Y-138213494D01*
X106883498Y-138207248D01*
X106871684Y-138201614D01*
X106859592Y-138196605D01*
X106847254Y-138192236D01*
X106834705Y-138188519D01*
X106821978Y-138185463D01*
X106809109Y-138183078D01*
X106796132Y-138181370D01*
X106783084Y-138180343D01*
X106770000Y-138180000D01*
X106420000Y-138180000D01*
X106420000Y-137880000D01*
X106770000Y-137880000D01*
X106798785Y-137880754D01*
X106827491Y-137883013D01*
X106856039Y-137886771D01*
X106884351Y-137892019D01*
X106912350Y-137898741D01*
X106939959Y-137906919D01*
X106967102Y-137916531D01*
X106993705Y-137927550D01*
X107019695Y-137939946D01*
X107045000Y-137953686D01*
X107069551Y-137968731D01*
X107093282Y-137985041D01*
X107116126Y-138002570D01*
X107138022Y-138021270D01*
X107158909Y-138041091D01*
X107178730Y-138061978D01*
X107197430Y-138083874D01*
X107214959Y-138106718D01*
X107231269Y-138130449D01*
X107246314Y-138155000D01*
X107260054Y-138180305D01*
X107272450Y-138206295D01*
X107283469Y-138232898D01*
X107293081Y-138260041D01*
X107301259Y-138287650D01*
X107307981Y-138315649D01*
X107313229Y-138343961D01*
X107316987Y-138372509D01*
X107319246Y-138401215D01*
X107320000Y-138430000D01*
X107319246Y-138458785D01*
X107316987Y-138487491D01*
X107313229Y-138516039D01*
X107307981Y-138544351D01*
X107301259Y-138572350D01*
X107293081Y-138599959D01*
X107283469Y-138627102D01*
X107272450Y-138653705D01*
X107260054Y-138679695D01*
X107246314Y-138705000D01*
X107231269Y-138729551D01*
X107214959Y-138753282D01*
X107197430Y-138776126D01*
X107178730Y-138798022D01*
X107158909Y-138818909D01*
X107138022Y-138838730D01*
X107116126Y-138857430D01*
X107093282Y-138874959D01*
X107069551Y-138891269D01*
X107045000Y-138906314D01*
X107019695Y-138920054D01*
X106993705Y-138932450D01*
X106967102Y-138943469D01*
X106939959Y-138953081D01*
X106912350Y-138961259D01*
X106884351Y-138967981D01*
X106856039Y-138973229D01*
X106827491Y-138976987D01*
X106798785Y-138979246D01*
X106770000Y-138980000D01*
X106070000Y-138980000D01*
X106041215Y-138979246D01*
X106012509Y-138976987D01*
X105983961Y-138973229D01*
X105955649Y-138967981D01*
X105927650Y-138961259D01*
X105900041Y-138953081D01*
X105872898Y-138943469D01*
X105846295Y-138932450D01*
X105820305Y-138920054D01*
X105795000Y-138906314D01*
X105770449Y-138891269D01*
X105746718Y-138874959D01*
X105723874Y-138857430D01*
X105701978Y-138838730D01*
X105681091Y-138818909D01*
X105661270Y-138798022D01*
X105642570Y-138776126D01*
X105625041Y-138753282D01*
X105608731Y-138729551D01*
X105593686Y-138705000D01*
X105579946Y-138679695D01*
X105567550Y-138653705D01*
X105556531Y-138627102D01*
X105546919Y-138599959D01*
X105538741Y-138572350D01*
X105532019Y-138544351D01*
X105526771Y-138516039D01*
X105523013Y-138487491D01*
X105520754Y-138458785D01*
X105520000Y-138430000D01*
X105520754Y-138401215D01*
X105523013Y-138372509D01*
X105526771Y-138343961D01*
X105532019Y-138315649D01*
X105538741Y-138287650D01*
X105546919Y-138260041D01*
X105556531Y-138232898D01*
X105567550Y-138206295D01*
X105579946Y-138180305D01*
X105593686Y-138155000D01*
X105608731Y-138130449D01*
X105625041Y-138106718D01*
X105642570Y-138083874D01*
X105661270Y-138061978D01*
X105681091Y-138041091D01*
X105701978Y-138021270D01*
X105723874Y-138002570D01*
X105746718Y-137985041D01*
X105770449Y-137968731D01*
X105795000Y-137953686D01*
X105820305Y-137939946D01*
X105846295Y-137927550D01*
X105872898Y-137916531D01*
X105900041Y-137906919D01*
X105927650Y-137898741D01*
X105955649Y-137892019D01*
X105983961Y-137886771D01*
X106012509Y-137883013D01*
X106041215Y-137880754D01*
X106070000Y-137880000D01*
X106420000Y-137880000D01*
X106420000Y-138180000D01*
X106070000Y-138180000D01*
X106056916Y-138180343D01*
X106043868Y-138181370D01*
X106030891Y-138183078D01*
X106018022Y-138185463D01*
X106005295Y-138188519D01*
X105992746Y-138192236D01*
X105980408Y-138196605D01*
X105968316Y-138201614D01*
X105956502Y-138207248D01*
X105945000Y-138213494D01*
X105933840Y-138220332D01*
X105923054Y-138227746D01*
X105912670Y-138235714D01*
X105902717Y-138244214D01*
X105893223Y-138253223D01*
X105884214Y-138262717D01*
X105875714Y-138272670D01*
X105867746Y-138283054D01*
X105860332Y-138293840D01*
X105853494Y-138305000D01*
X105847248Y-138316502D01*
X105841614Y-138328316D01*
X105836605Y-138340408D01*
X105832236Y-138352746D01*
X105828519Y-138365295D01*
X105825463Y-138378022D01*
X105823078Y-138390891D01*
X105821370Y-138403868D01*
X105820343Y-138416916D01*
X105820000Y-138430000D01*
D11*
X110520000Y-138680000D03*
X109870000Y-138680000D03*
X109220000Y-138680000D03*
X108570000Y-138680000D03*
X107920000Y-138680000D03*
D12*
X96980000Y-138430000D03*
X90980000Y-138430000D03*
X90980000Y-135890000D03*
X96980000Y-135890000D03*
X105870000Y-122555000D03*
X99870000Y-122555000D03*
X99870000Y-120015000D03*
X105870000Y-120015000D03*
X89535000Y-122555000D03*
X83535000Y-122555000D03*
X83535000Y-120015000D03*
X89535000Y-120015000D03*
X89535000Y-92075000D03*
X83535000Y-92075000D03*
X83535000Y-89535000D03*
X89535000Y-89535000D03*
X105870000Y-92075000D03*
X99870000Y-92075000D03*
X99870000Y-89535000D03*
X105870000Y-89535000D03*
X89535000Y-61595000D03*
X83535000Y-61595000D03*
X83535000Y-59055000D03*
X89535000Y-59055000D03*
X105870000Y-61595000D03*
X99870000Y-61595000D03*
X99870000Y-59055000D03*
X105870000Y-59055000D03*
X129365000Y-137795000D03*
X123365000Y-137795000D03*
X123365000Y-135255000D03*
X129365000Y-135255000D03*
X135080000Y-122555000D03*
X129080000Y-122555000D03*
X129080000Y-120015000D03*
X135080000Y-120015000D03*
X119380000Y-122555000D03*
X113380000Y-122555000D03*
X113380000Y-120015000D03*
X119380000Y-120015000D03*
X135080000Y-92075000D03*
X129080000Y-92075000D03*
X129080000Y-89535000D03*
X135080000Y-89535000D03*
X119380000Y-92075000D03*
X113380000Y-92075000D03*
X113380000Y-89535000D03*
X119380000Y-89535000D03*
X135080000Y-61595000D03*
X129080000Y-61595000D03*
X129080000Y-59055000D03*
X135080000Y-59055000D03*
X119380000Y-61595000D03*
X113380000Y-61595000D03*
X113380000Y-59055000D03*
X119380000Y-59055000D03*
D13*
G36*
X101052691Y-135416053D02*
G01*
X101073926Y-135419203D01*
X101094750Y-135424419D01*
X101114962Y-135431651D01*
X101134368Y-135440830D01*
X101152781Y-135451866D01*
X101170024Y-135464654D01*
X101185930Y-135479070D01*
X101200346Y-135494976D01*
X101213134Y-135512219D01*
X101224170Y-135530632D01*
X101233349Y-135550038D01*
X101240581Y-135570250D01*
X101245797Y-135591074D01*
X101248947Y-135612309D01*
X101250000Y-135633750D01*
X101250000Y-136146250D01*
X101248947Y-136167691D01*
X101245797Y-136188926D01*
X101240581Y-136209750D01*
X101233349Y-136229962D01*
X101224170Y-136249368D01*
X101213134Y-136267781D01*
X101200346Y-136285024D01*
X101185930Y-136300930D01*
X101170024Y-136315346D01*
X101152781Y-136328134D01*
X101134368Y-136339170D01*
X101114962Y-136348349D01*
X101094750Y-136355581D01*
X101073926Y-136360797D01*
X101052691Y-136363947D01*
X101031250Y-136365000D01*
X100593750Y-136365000D01*
X100572309Y-136363947D01*
X100551074Y-136360797D01*
X100530250Y-136355581D01*
X100510038Y-136348349D01*
X100490632Y-136339170D01*
X100472219Y-136328134D01*
X100454976Y-136315346D01*
X100439070Y-136300930D01*
X100424654Y-136285024D01*
X100411866Y-136267781D01*
X100400830Y-136249368D01*
X100391651Y-136229962D01*
X100384419Y-136209750D01*
X100379203Y-136188926D01*
X100376053Y-136167691D01*
X100375000Y-136146250D01*
X100375000Y-135633750D01*
X100376053Y-135612309D01*
X100379203Y-135591074D01*
X100384419Y-135570250D01*
X100391651Y-135550038D01*
X100400830Y-135530632D01*
X100411866Y-135512219D01*
X100424654Y-135494976D01*
X100439070Y-135479070D01*
X100454976Y-135464654D01*
X100472219Y-135451866D01*
X100490632Y-135440830D01*
X100510038Y-135431651D01*
X100530250Y-135424419D01*
X100551074Y-135419203D01*
X100572309Y-135416053D01*
X100593750Y-135415000D01*
X101031250Y-135415000D01*
X101052691Y-135416053D01*
G37*
G36*
X102627691Y-135416053D02*
G01*
X102648926Y-135419203D01*
X102669750Y-135424419D01*
X102689962Y-135431651D01*
X102709368Y-135440830D01*
X102727781Y-135451866D01*
X102745024Y-135464654D01*
X102760930Y-135479070D01*
X102775346Y-135494976D01*
X102788134Y-135512219D01*
X102799170Y-135530632D01*
X102808349Y-135550038D01*
X102815581Y-135570250D01*
X102820797Y-135591074D01*
X102823947Y-135612309D01*
X102825000Y-135633750D01*
X102825000Y-136146250D01*
X102823947Y-136167691D01*
X102820797Y-136188926D01*
X102815581Y-136209750D01*
X102808349Y-136229962D01*
X102799170Y-136249368D01*
X102788134Y-136267781D01*
X102775346Y-136285024D01*
X102760930Y-136300930D01*
X102745024Y-136315346D01*
X102727781Y-136328134D01*
X102709368Y-136339170D01*
X102689962Y-136348349D01*
X102669750Y-136355581D01*
X102648926Y-136360797D01*
X102627691Y-136363947D01*
X102606250Y-136365000D01*
X102168750Y-136365000D01*
X102147309Y-136363947D01*
X102126074Y-136360797D01*
X102105250Y-136355581D01*
X102085038Y-136348349D01*
X102065632Y-136339170D01*
X102047219Y-136328134D01*
X102029976Y-136315346D01*
X102014070Y-136300930D01*
X101999654Y-136285024D01*
X101986866Y-136267781D01*
X101975830Y-136249368D01*
X101966651Y-136229962D01*
X101959419Y-136209750D01*
X101954203Y-136188926D01*
X101951053Y-136167691D01*
X101950000Y-136146250D01*
X101950000Y-135633750D01*
X101951053Y-135612309D01*
X101954203Y-135591074D01*
X101959419Y-135570250D01*
X101966651Y-135550038D01*
X101975830Y-135530632D01*
X101986866Y-135512219D01*
X101999654Y-135494976D01*
X102014070Y-135479070D01*
X102029976Y-135464654D01*
X102047219Y-135451866D01*
X102065632Y-135440830D01*
X102085038Y-135431651D01*
X102105250Y-135424419D01*
X102126074Y-135419203D01*
X102147309Y-135416053D01*
X102168750Y-135415000D01*
X102606250Y-135415000D01*
X102627691Y-135416053D01*
G37*
G36*
X95490191Y-118906053D02*
G01*
X95511426Y-118909203D01*
X95532250Y-118914419D01*
X95552462Y-118921651D01*
X95571868Y-118930830D01*
X95590281Y-118941866D01*
X95607524Y-118954654D01*
X95623430Y-118969070D01*
X95637846Y-118984976D01*
X95650634Y-119002219D01*
X95661670Y-119020632D01*
X95670849Y-119040038D01*
X95678081Y-119060250D01*
X95683297Y-119081074D01*
X95686447Y-119102309D01*
X95687500Y-119123750D01*
X95687500Y-119636250D01*
X95686447Y-119657691D01*
X95683297Y-119678926D01*
X95678081Y-119699750D01*
X95670849Y-119719962D01*
X95661670Y-119739368D01*
X95650634Y-119757781D01*
X95637846Y-119775024D01*
X95623430Y-119790930D01*
X95607524Y-119805346D01*
X95590281Y-119818134D01*
X95571868Y-119829170D01*
X95552462Y-119838349D01*
X95532250Y-119845581D01*
X95511426Y-119850797D01*
X95490191Y-119853947D01*
X95468750Y-119855000D01*
X95031250Y-119855000D01*
X95009809Y-119853947D01*
X94988574Y-119850797D01*
X94967750Y-119845581D01*
X94947538Y-119838349D01*
X94928132Y-119829170D01*
X94909719Y-119818134D01*
X94892476Y-119805346D01*
X94876570Y-119790930D01*
X94862154Y-119775024D01*
X94849366Y-119757781D01*
X94838330Y-119739368D01*
X94829151Y-119719962D01*
X94821919Y-119699750D01*
X94816703Y-119678926D01*
X94813553Y-119657691D01*
X94812500Y-119636250D01*
X94812500Y-119123750D01*
X94813553Y-119102309D01*
X94816703Y-119081074D01*
X94821919Y-119060250D01*
X94829151Y-119040038D01*
X94838330Y-119020632D01*
X94849366Y-119002219D01*
X94862154Y-118984976D01*
X94876570Y-118969070D01*
X94892476Y-118954654D01*
X94909719Y-118941866D01*
X94928132Y-118930830D01*
X94947538Y-118921651D01*
X94967750Y-118914419D01*
X94988574Y-118909203D01*
X95009809Y-118906053D01*
X95031250Y-118905000D01*
X95468750Y-118905000D01*
X95490191Y-118906053D01*
G37*
G36*
X93915191Y-118906053D02*
G01*
X93936426Y-118909203D01*
X93957250Y-118914419D01*
X93977462Y-118921651D01*
X93996868Y-118930830D01*
X94015281Y-118941866D01*
X94032524Y-118954654D01*
X94048430Y-118969070D01*
X94062846Y-118984976D01*
X94075634Y-119002219D01*
X94086670Y-119020632D01*
X94095849Y-119040038D01*
X94103081Y-119060250D01*
X94108297Y-119081074D01*
X94111447Y-119102309D01*
X94112500Y-119123750D01*
X94112500Y-119636250D01*
X94111447Y-119657691D01*
X94108297Y-119678926D01*
X94103081Y-119699750D01*
X94095849Y-119719962D01*
X94086670Y-119739368D01*
X94075634Y-119757781D01*
X94062846Y-119775024D01*
X94048430Y-119790930D01*
X94032524Y-119805346D01*
X94015281Y-119818134D01*
X93996868Y-119829170D01*
X93977462Y-119838349D01*
X93957250Y-119845581D01*
X93936426Y-119850797D01*
X93915191Y-119853947D01*
X93893750Y-119855000D01*
X93456250Y-119855000D01*
X93434809Y-119853947D01*
X93413574Y-119850797D01*
X93392750Y-119845581D01*
X93372538Y-119838349D01*
X93353132Y-119829170D01*
X93334719Y-119818134D01*
X93317476Y-119805346D01*
X93301570Y-119790930D01*
X93287154Y-119775024D01*
X93274366Y-119757781D01*
X93263330Y-119739368D01*
X93254151Y-119719962D01*
X93246919Y-119699750D01*
X93241703Y-119678926D01*
X93238553Y-119657691D01*
X93237500Y-119636250D01*
X93237500Y-119123750D01*
X93238553Y-119102309D01*
X93241703Y-119081074D01*
X93246919Y-119060250D01*
X93254151Y-119040038D01*
X93263330Y-119020632D01*
X93274366Y-119002219D01*
X93287154Y-118984976D01*
X93301570Y-118969070D01*
X93317476Y-118954654D01*
X93334719Y-118941866D01*
X93353132Y-118930830D01*
X93372538Y-118921651D01*
X93392750Y-118914419D01*
X93413574Y-118909203D01*
X93434809Y-118906053D01*
X93456250Y-118905000D01*
X93893750Y-118905000D01*
X93915191Y-118906053D01*
G37*
G36*
X93915191Y-122716053D02*
G01*
X93936426Y-122719203D01*
X93957250Y-122724419D01*
X93977462Y-122731651D01*
X93996868Y-122740830D01*
X94015281Y-122751866D01*
X94032524Y-122764654D01*
X94048430Y-122779070D01*
X94062846Y-122794976D01*
X94075634Y-122812219D01*
X94086670Y-122830632D01*
X94095849Y-122850038D01*
X94103081Y-122870250D01*
X94108297Y-122891074D01*
X94111447Y-122912309D01*
X94112500Y-122933750D01*
X94112500Y-123446250D01*
X94111447Y-123467691D01*
X94108297Y-123488926D01*
X94103081Y-123509750D01*
X94095849Y-123529962D01*
X94086670Y-123549368D01*
X94075634Y-123567781D01*
X94062846Y-123585024D01*
X94048430Y-123600930D01*
X94032524Y-123615346D01*
X94015281Y-123628134D01*
X93996868Y-123639170D01*
X93977462Y-123648349D01*
X93957250Y-123655581D01*
X93936426Y-123660797D01*
X93915191Y-123663947D01*
X93893750Y-123665000D01*
X93456250Y-123665000D01*
X93434809Y-123663947D01*
X93413574Y-123660797D01*
X93392750Y-123655581D01*
X93372538Y-123648349D01*
X93353132Y-123639170D01*
X93334719Y-123628134D01*
X93317476Y-123615346D01*
X93301570Y-123600930D01*
X93287154Y-123585024D01*
X93274366Y-123567781D01*
X93263330Y-123549368D01*
X93254151Y-123529962D01*
X93246919Y-123509750D01*
X93241703Y-123488926D01*
X93238553Y-123467691D01*
X93237500Y-123446250D01*
X93237500Y-122933750D01*
X93238553Y-122912309D01*
X93241703Y-122891074D01*
X93246919Y-122870250D01*
X93254151Y-122850038D01*
X93263330Y-122830632D01*
X93274366Y-122812219D01*
X93287154Y-122794976D01*
X93301570Y-122779070D01*
X93317476Y-122764654D01*
X93334719Y-122751866D01*
X93353132Y-122740830D01*
X93372538Y-122731651D01*
X93392750Y-122724419D01*
X93413574Y-122719203D01*
X93434809Y-122716053D01*
X93456250Y-122715000D01*
X93893750Y-122715000D01*
X93915191Y-122716053D01*
G37*
G36*
X95490191Y-122716053D02*
G01*
X95511426Y-122719203D01*
X95532250Y-122724419D01*
X95552462Y-122731651D01*
X95571868Y-122740830D01*
X95590281Y-122751866D01*
X95607524Y-122764654D01*
X95623430Y-122779070D01*
X95637846Y-122794976D01*
X95650634Y-122812219D01*
X95661670Y-122830632D01*
X95670849Y-122850038D01*
X95678081Y-122870250D01*
X95683297Y-122891074D01*
X95686447Y-122912309D01*
X95687500Y-122933750D01*
X95687500Y-123446250D01*
X95686447Y-123467691D01*
X95683297Y-123488926D01*
X95678081Y-123509750D01*
X95670849Y-123529962D01*
X95661670Y-123549368D01*
X95650634Y-123567781D01*
X95637846Y-123585024D01*
X95623430Y-123600930D01*
X95607524Y-123615346D01*
X95590281Y-123628134D01*
X95571868Y-123639170D01*
X95552462Y-123648349D01*
X95532250Y-123655581D01*
X95511426Y-123660797D01*
X95490191Y-123663947D01*
X95468750Y-123665000D01*
X95031250Y-123665000D01*
X95009809Y-123663947D01*
X94988574Y-123660797D01*
X94967750Y-123655581D01*
X94947538Y-123648349D01*
X94928132Y-123639170D01*
X94909719Y-123628134D01*
X94892476Y-123615346D01*
X94876570Y-123600930D01*
X94862154Y-123585024D01*
X94849366Y-123567781D01*
X94838330Y-123549368D01*
X94829151Y-123529962D01*
X94821919Y-123509750D01*
X94816703Y-123488926D01*
X94813553Y-123467691D01*
X94812500Y-123446250D01*
X94812500Y-122933750D01*
X94813553Y-122912309D01*
X94816703Y-122891074D01*
X94821919Y-122870250D01*
X94829151Y-122850038D01*
X94838330Y-122830632D01*
X94849366Y-122812219D01*
X94862154Y-122794976D01*
X94876570Y-122779070D01*
X94892476Y-122764654D01*
X94909719Y-122751866D01*
X94928132Y-122740830D01*
X94947538Y-122731651D01*
X94967750Y-122724419D01*
X94988574Y-122719203D01*
X95009809Y-122716053D01*
X95031250Y-122715000D01*
X95468750Y-122715000D01*
X95490191Y-122716053D01*
G37*
G36*
X93280191Y-92871053D02*
G01*
X93301426Y-92874203D01*
X93322250Y-92879419D01*
X93342462Y-92886651D01*
X93361868Y-92895830D01*
X93380281Y-92906866D01*
X93397524Y-92919654D01*
X93413430Y-92934070D01*
X93427846Y-92949976D01*
X93440634Y-92967219D01*
X93451670Y-92985632D01*
X93460849Y-93005038D01*
X93468081Y-93025250D01*
X93473297Y-93046074D01*
X93476447Y-93067309D01*
X93477500Y-93088750D01*
X93477500Y-93601250D01*
X93476447Y-93622691D01*
X93473297Y-93643926D01*
X93468081Y-93664750D01*
X93460849Y-93684962D01*
X93451670Y-93704368D01*
X93440634Y-93722781D01*
X93427846Y-93740024D01*
X93413430Y-93755930D01*
X93397524Y-93770346D01*
X93380281Y-93783134D01*
X93361868Y-93794170D01*
X93342462Y-93803349D01*
X93322250Y-93810581D01*
X93301426Y-93815797D01*
X93280191Y-93818947D01*
X93258750Y-93820000D01*
X92821250Y-93820000D01*
X92799809Y-93818947D01*
X92778574Y-93815797D01*
X92757750Y-93810581D01*
X92737538Y-93803349D01*
X92718132Y-93794170D01*
X92699719Y-93783134D01*
X92682476Y-93770346D01*
X92666570Y-93755930D01*
X92652154Y-93740024D01*
X92639366Y-93722781D01*
X92628330Y-93704368D01*
X92619151Y-93684962D01*
X92611919Y-93664750D01*
X92606703Y-93643926D01*
X92603553Y-93622691D01*
X92602500Y-93601250D01*
X92602500Y-93088750D01*
X92603553Y-93067309D01*
X92606703Y-93046074D01*
X92611919Y-93025250D01*
X92619151Y-93005038D01*
X92628330Y-92985632D01*
X92639366Y-92967219D01*
X92652154Y-92949976D01*
X92666570Y-92934070D01*
X92682476Y-92919654D01*
X92699719Y-92906866D01*
X92718132Y-92895830D01*
X92737538Y-92886651D01*
X92757750Y-92879419D01*
X92778574Y-92874203D01*
X92799809Y-92871053D01*
X92821250Y-92870000D01*
X93258750Y-92870000D01*
X93280191Y-92871053D01*
G37*
G36*
X94855191Y-92871053D02*
G01*
X94876426Y-92874203D01*
X94897250Y-92879419D01*
X94917462Y-92886651D01*
X94936868Y-92895830D01*
X94955281Y-92906866D01*
X94972524Y-92919654D01*
X94988430Y-92934070D01*
X95002846Y-92949976D01*
X95015634Y-92967219D01*
X95026670Y-92985632D01*
X95035849Y-93005038D01*
X95043081Y-93025250D01*
X95048297Y-93046074D01*
X95051447Y-93067309D01*
X95052500Y-93088750D01*
X95052500Y-93601250D01*
X95051447Y-93622691D01*
X95048297Y-93643926D01*
X95043081Y-93664750D01*
X95035849Y-93684962D01*
X95026670Y-93704368D01*
X95015634Y-93722781D01*
X95002846Y-93740024D01*
X94988430Y-93755930D01*
X94972524Y-93770346D01*
X94955281Y-93783134D01*
X94936868Y-93794170D01*
X94917462Y-93803349D01*
X94897250Y-93810581D01*
X94876426Y-93815797D01*
X94855191Y-93818947D01*
X94833750Y-93820000D01*
X94396250Y-93820000D01*
X94374809Y-93818947D01*
X94353574Y-93815797D01*
X94332750Y-93810581D01*
X94312538Y-93803349D01*
X94293132Y-93794170D01*
X94274719Y-93783134D01*
X94257476Y-93770346D01*
X94241570Y-93755930D01*
X94227154Y-93740024D01*
X94214366Y-93722781D01*
X94203330Y-93704368D01*
X94194151Y-93684962D01*
X94186919Y-93664750D01*
X94181703Y-93643926D01*
X94178553Y-93622691D01*
X94177500Y-93601250D01*
X94177500Y-93088750D01*
X94178553Y-93067309D01*
X94181703Y-93046074D01*
X94186919Y-93025250D01*
X94194151Y-93005038D01*
X94203330Y-92985632D01*
X94214366Y-92967219D01*
X94227154Y-92949976D01*
X94241570Y-92934070D01*
X94257476Y-92919654D01*
X94274719Y-92906866D01*
X94293132Y-92895830D01*
X94312538Y-92886651D01*
X94332750Y-92879419D01*
X94353574Y-92874203D01*
X94374809Y-92871053D01*
X94396250Y-92870000D01*
X94833750Y-92870000D01*
X94855191Y-92871053D01*
G37*
G36*
X94855191Y-89696053D02*
G01*
X94876426Y-89699203D01*
X94897250Y-89704419D01*
X94917462Y-89711651D01*
X94936868Y-89720830D01*
X94955281Y-89731866D01*
X94972524Y-89744654D01*
X94988430Y-89759070D01*
X95002846Y-89774976D01*
X95015634Y-89792219D01*
X95026670Y-89810632D01*
X95035849Y-89830038D01*
X95043081Y-89850250D01*
X95048297Y-89871074D01*
X95051447Y-89892309D01*
X95052500Y-89913750D01*
X95052500Y-90426250D01*
X95051447Y-90447691D01*
X95048297Y-90468926D01*
X95043081Y-90489750D01*
X95035849Y-90509962D01*
X95026670Y-90529368D01*
X95015634Y-90547781D01*
X95002846Y-90565024D01*
X94988430Y-90580930D01*
X94972524Y-90595346D01*
X94955281Y-90608134D01*
X94936868Y-90619170D01*
X94917462Y-90628349D01*
X94897250Y-90635581D01*
X94876426Y-90640797D01*
X94855191Y-90643947D01*
X94833750Y-90645000D01*
X94396250Y-90645000D01*
X94374809Y-90643947D01*
X94353574Y-90640797D01*
X94332750Y-90635581D01*
X94312538Y-90628349D01*
X94293132Y-90619170D01*
X94274719Y-90608134D01*
X94257476Y-90595346D01*
X94241570Y-90580930D01*
X94227154Y-90565024D01*
X94214366Y-90547781D01*
X94203330Y-90529368D01*
X94194151Y-90509962D01*
X94186919Y-90489750D01*
X94181703Y-90468926D01*
X94178553Y-90447691D01*
X94177500Y-90426250D01*
X94177500Y-89913750D01*
X94178553Y-89892309D01*
X94181703Y-89871074D01*
X94186919Y-89850250D01*
X94194151Y-89830038D01*
X94203330Y-89810632D01*
X94214366Y-89792219D01*
X94227154Y-89774976D01*
X94241570Y-89759070D01*
X94257476Y-89744654D01*
X94274719Y-89731866D01*
X94293132Y-89720830D01*
X94312538Y-89711651D01*
X94332750Y-89704419D01*
X94353574Y-89699203D01*
X94374809Y-89696053D01*
X94396250Y-89695000D01*
X94833750Y-89695000D01*
X94855191Y-89696053D01*
G37*
G36*
X93280191Y-89696053D02*
G01*
X93301426Y-89699203D01*
X93322250Y-89704419D01*
X93342462Y-89711651D01*
X93361868Y-89720830D01*
X93380281Y-89731866D01*
X93397524Y-89744654D01*
X93413430Y-89759070D01*
X93427846Y-89774976D01*
X93440634Y-89792219D01*
X93451670Y-89810632D01*
X93460849Y-89830038D01*
X93468081Y-89850250D01*
X93473297Y-89871074D01*
X93476447Y-89892309D01*
X93477500Y-89913750D01*
X93477500Y-90426250D01*
X93476447Y-90447691D01*
X93473297Y-90468926D01*
X93468081Y-90489750D01*
X93460849Y-90509962D01*
X93451670Y-90529368D01*
X93440634Y-90547781D01*
X93427846Y-90565024D01*
X93413430Y-90580930D01*
X93397524Y-90595346D01*
X93380281Y-90608134D01*
X93361868Y-90619170D01*
X93342462Y-90628349D01*
X93322250Y-90635581D01*
X93301426Y-90640797D01*
X93280191Y-90643947D01*
X93258750Y-90645000D01*
X92821250Y-90645000D01*
X92799809Y-90643947D01*
X92778574Y-90640797D01*
X92757750Y-90635581D01*
X92737538Y-90628349D01*
X92718132Y-90619170D01*
X92699719Y-90608134D01*
X92682476Y-90595346D01*
X92666570Y-90580930D01*
X92652154Y-90565024D01*
X92639366Y-90547781D01*
X92628330Y-90529368D01*
X92619151Y-90509962D01*
X92611919Y-90489750D01*
X92606703Y-90468926D01*
X92603553Y-90447691D01*
X92602500Y-90426250D01*
X92602500Y-89913750D01*
X92603553Y-89892309D01*
X92606703Y-89871074D01*
X92611919Y-89850250D01*
X92619151Y-89830038D01*
X92628330Y-89810632D01*
X92639366Y-89792219D01*
X92652154Y-89774976D01*
X92666570Y-89759070D01*
X92682476Y-89744654D01*
X92699719Y-89731866D01*
X92718132Y-89720830D01*
X92737538Y-89711651D01*
X92757750Y-89704419D01*
X92778574Y-89699203D01*
X92799809Y-89696053D01*
X92821250Y-89695000D01*
X93258750Y-89695000D01*
X93280191Y-89696053D01*
G37*
G36*
X95642691Y-61756053D02*
G01*
X95663926Y-61759203D01*
X95684750Y-61764419D01*
X95704962Y-61771651D01*
X95724368Y-61780830D01*
X95742781Y-61791866D01*
X95760024Y-61804654D01*
X95775930Y-61819070D01*
X95790346Y-61834976D01*
X95803134Y-61852219D01*
X95814170Y-61870632D01*
X95823349Y-61890038D01*
X95830581Y-61910250D01*
X95835797Y-61931074D01*
X95838947Y-61952309D01*
X95840000Y-61973750D01*
X95840000Y-62486250D01*
X95838947Y-62507691D01*
X95835797Y-62528926D01*
X95830581Y-62549750D01*
X95823349Y-62569962D01*
X95814170Y-62589368D01*
X95803134Y-62607781D01*
X95790346Y-62625024D01*
X95775930Y-62640930D01*
X95760024Y-62655346D01*
X95742781Y-62668134D01*
X95724368Y-62679170D01*
X95704962Y-62688349D01*
X95684750Y-62695581D01*
X95663926Y-62700797D01*
X95642691Y-62703947D01*
X95621250Y-62705000D01*
X95183750Y-62705000D01*
X95162309Y-62703947D01*
X95141074Y-62700797D01*
X95120250Y-62695581D01*
X95100038Y-62688349D01*
X95080632Y-62679170D01*
X95062219Y-62668134D01*
X95044976Y-62655346D01*
X95029070Y-62640930D01*
X95014654Y-62625024D01*
X95001866Y-62607781D01*
X94990830Y-62589368D01*
X94981651Y-62569962D01*
X94974419Y-62549750D01*
X94969203Y-62528926D01*
X94966053Y-62507691D01*
X94965000Y-62486250D01*
X94965000Y-61973750D01*
X94966053Y-61952309D01*
X94969203Y-61931074D01*
X94974419Y-61910250D01*
X94981651Y-61890038D01*
X94990830Y-61870632D01*
X95001866Y-61852219D01*
X95014654Y-61834976D01*
X95029070Y-61819070D01*
X95044976Y-61804654D01*
X95062219Y-61791866D01*
X95080632Y-61780830D01*
X95100038Y-61771651D01*
X95120250Y-61764419D01*
X95141074Y-61759203D01*
X95162309Y-61756053D01*
X95183750Y-61755000D01*
X95621250Y-61755000D01*
X95642691Y-61756053D01*
G37*
G36*
X94067691Y-61756053D02*
G01*
X94088926Y-61759203D01*
X94109750Y-61764419D01*
X94129962Y-61771651D01*
X94149368Y-61780830D01*
X94167781Y-61791866D01*
X94185024Y-61804654D01*
X94200930Y-61819070D01*
X94215346Y-61834976D01*
X94228134Y-61852219D01*
X94239170Y-61870632D01*
X94248349Y-61890038D01*
X94255581Y-61910250D01*
X94260797Y-61931074D01*
X94263947Y-61952309D01*
X94265000Y-61973750D01*
X94265000Y-62486250D01*
X94263947Y-62507691D01*
X94260797Y-62528926D01*
X94255581Y-62549750D01*
X94248349Y-62569962D01*
X94239170Y-62589368D01*
X94228134Y-62607781D01*
X94215346Y-62625024D01*
X94200930Y-62640930D01*
X94185024Y-62655346D01*
X94167781Y-62668134D01*
X94149368Y-62679170D01*
X94129962Y-62688349D01*
X94109750Y-62695581D01*
X94088926Y-62700797D01*
X94067691Y-62703947D01*
X94046250Y-62705000D01*
X93608750Y-62705000D01*
X93587309Y-62703947D01*
X93566074Y-62700797D01*
X93545250Y-62695581D01*
X93525038Y-62688349D01*
X93505632Y-62679170D01*
X93487219Y-62668134D01*
X93469976Y-62655346D01*
X93454070Y-62640930D01*
X93439654Y-62625024D01*
X93426866Y-62607781D01*
X93415830Y-62589368D01*
X93406651Y-62569962D01*
X93399419Y-62549750D01*
X93394203Y-62528926D01*
X93391053Y-62507691D01*
X93390000Y-62486250D01*
X93390000Y-61973750D01*
X93391053Y-61952309D01*
X93394203Y-61931074D01*
X93399419Y-61910250D01*
X93406651Y-61890038D01*
X93415830Y-61870632D01*
X93426866Y-61852219D01*
X93439654Y-61834976D01*
X93454070Y-61819070D01*
X93469976Y-61804654D01*
X93487219Y-61791866D01*
X93505632Y-61780830D01*
X93525038Y-61771651D01*
X93545250Y-61764419D01*
X93566074Y-61759203D01*
X93587309Y-61756053D01*
X93608750Y-61755000D01*
X94046250Y-61755000D01*
X94067691Y-61756053D01*
G37*
G36*
X95642691Y-58581053D02*
G01*
X95663926Y-58584203D01*
X95684750Y-58589419D01*
X95704962Y-58596651D01*
X95724368Y-58605830D01*
X95742781Y-58616866D01*
X95760024Y-58629654D01*
X95775930Y-58644070D01*
X95790346Y-58659976D01*
X95803134Y-58677219D01*
X95814170Y-58695632D01*
X95823349Y-58715038D01*
X95830581Y-58735250D01*
X95835797Y-58756074D01*
X95838947Y-58777309D01*
X95840000Y-58798750D01*
X95840000Y-59311250D01*
X95838947Y-59332691D01*
X95835797Y-59353926D01*
X95830581Y-59374750D01*
X95823349Y-59394962D01*
X95814170Y-59414368D01*
X95803134Y-59432781D01*
X95790346Y-59450024D01*
X95775930Y-59465930D01*
X95760024Y-59480346D01*
X95742781Y-59493134D01*
X95724368Y-59504170D01*
X95704962Y-59513349D01*
X95684750Y-59520581D01*
X95663926Y-59525797D01*
X95642691Y-59528947D01*
X95621250Y-59530000D01*
X95183750Y-59530000D01*
X95162309Y-59528947D01*
X95141074Y-59525797D01*
X95120250Y-59520581D01*
X95100038Y-59513349D01*
X95080632Y-59504170D01*
X95062219Y-59493134D01*
X95044976Y-59480346D01*
X95029070Y-59465930D01*
X95014654Y-59450024D01*
X95001866Y-59432781D01*
X94990830Y-59414368D01*
X94981651Y-59394962D01*
X94974419Y-59374750D01*
X94969203Y-59353926D01*
X94966053Y-59332691D01*
X94965000Y-59311250D01*
X94965000Y-58798750D01*
X94966053Y-58777309D01*
X94969203Y-58756074D01*
X94974419Y-58735250D01*
X94981651Y-58715038D01*
X94990830Y-58695632D01*
X95001866Y-58677219D01*
X95014654Y-58659976D01*
X95029070Y-58644070D01*
X95044976Y-58629654D01*
X95062219Y-58616866D01*
X95080632Y-58605830D01*
X95100038Y-58596651D01*
X95120250Y-58589419D01*
X95141074Y-58584203D01*
X95162309Y-58581053D01*
X95183750Y-58580000D01*
X95621250Y-58580000D01*
X95642691Y-58581053D01*
G37*
G36*
X94067691Y-58581053D02*
G01*
X94088926Y-58584203D01*
X94109750Y-58589419D01*
X94129962Y-58596651D01*
X94149368Y-58605830D01*
X94167781Y-58616866D01*
X94185024Y-58629654D01*
X94200930Y-58644070D01*
X94215346Y-58659976D01*
X94228134Y-58677219D01*
X94239170Y-58695632D01*
X94248349Y-58715038D01*
X94255581Y-58735250D01*
X94260797Y-58756074D01*
X94263947Y-58777309D01*
X94265000Y-58798750D01*
X94265000Y-59311250D01*
X94263947Y-59332691D01*
X94260797Y-59353926D01*
X94255581Y-59374750D01*
X94248349Y-59394962D01*
X94239170Y-59414368D01*
X94228134Y-59432781D01*
X94215346Y-59450024D01*
X94200930Y-59465930D01*
X94185024Y-59480346D01*
X94167781Y-59493134D01*
X94149368Y-59504170D01*
X94129962Y-59513349D01*
X94109750Y-59520581D01*
X94088926Y-59525797D01*
X94067691Y-59528947D01*
X94046250Y-59530000D01*
X93608750Y-59530000D01*
X93587309Y-59528947D01*
X93566074Y-59525797D01*
X93545250Y-59520581D01*
X93525038Y-59513349D01*
X93505632Y-59504170D01*
X93487219Y-59493134D01*
X93469976Y-59480346D01*
X93454070Y-59465930D01*
X93439654Y-59450024D01*
X93426866Y-59432781D01*
X93415830Y-59414368D01*
X93406651Y-59394962D01*
X93399419Y-59374750D01*
X93394203Y-59353926D01*
X93391053Y-59332691D01*
X93390000Y-59311250D01*
X93390000Y-58798750D01*
X93391053Y-58777309D01*
X93394203Y-58756074D01*
X93399419Y-58735250D01*
X93406651Y-58715038D01*
X93415830Y-58695632D01*
X93426866Y-58677219D01*
X93439654Y-58659976D01*
X93454070Y-58644070D01*
X93469976Y-58629654D01*
X93487219Y-58616866D01*
X93505632Y-58605830D01*
X93525038Y-58596651D01*
X93545250Y-58589419D01*
X93566074Y-58584203D01*
X93587309Y-58581053D01*
X93608750Y-58580000D01*
X94046250Y-58580000D01*
X94067691Y-58581053D01*
G37*
G36*
X119924691Y-134781053D02*
G01*
X119945926Y-134784203D01*
X119966750Y-134789419D01*
X119986962Y-134796651D01*
X120006368Y-134805830D01*
X120024781Y-134816866D01*
X120042024Y-134829654D01*
X120057930Y-134844070D01*
X120072346Y-134859976D01*
X120085134Y-134877219D01*
X120096170Y-134895632D01*
X120105349Y-134915038D01*
X120112581Y-134935250D01*
X120117797Y-134956074D01*
X120120947Y-134977309D01*
X120122000Y-134998750D01*
X120122000Y-135511250D01*
X120120947Y-135532691D01*
X120117797Y-135553926D01*
X120112581Y-135574750D01*
X120105349Y-135594962D01*
X120096170Y-135614368D01*
X120085134Y-135632781D01*
X120072346Y-135650024D01*
X120057930Y-135665930D01*
X120042024Y-135680346D01*
X120024781Y-135693134D01*
X120006368Y-135704170D01*
X119986962Y-135713349D01*
X119966750Y-135720581D01*
X119945926Y-135725797D01*
X119924691Y-135728947D01*
X119903250Y-135730000D01*
X119465750Y-135730000D01*
X119444309Y-135728947D01*
X119423074Y-135725797D01*
X119402250Y-135720581D01*
X119382038Y-135713349D01*
X119362632Y-135704170D01*
X119344219Y-135693134D01*
X119326976Y-135680346D01*
X119311070Y-135665930D01*
X119296654Y-135650024D01*
X119283866Y-135632781D01*
X119272830Y-135614368D01*
X119263651Y-135594962D01*
X119256419Y-135574750D01*
X119251203Y-135553926D01*
X119248053Y-135532691D01*
X119247000Y-135511250D01*
X119247000Y-134998750D01*
X119248053Y-134977309D01*
X119251203Y-134956074D01*
X119256419Y-134935250D01*
X119263651Y-134915038D01*
X119272830Y-134895632D01*
X119283866Y-134877219D01*
X119296654Y-134859976D01*
X119311070Y-134844070D01*
X119326976Y-134829654D01*
X119344219Y-134816866D01*
X119362632Y-134805830D01*
X119382038Y-134796651D01*
X119402250Y-134789419D01*
X119423074Y-134784203D01*
X119444309Y-134781053D01*
X119465750Y-134780000D01*
X119903250Y-134780000D01*
X119924691Y-134781053D01*
G37*
G36*
X118349691Y-134781053D02*
G01*
X118370926Y-134784203D01*
X118391750Y-134789419D01*
X118411962Y-134796651D01*
X118431368Y-134805830D01*
X118449781Y-134816866D01*
X118467024Y-134829654D01*
X118482930Y-134844070D01*
X118497346Y-134859976D01*
X118510134Y-134877219D01*
X118521170Y-134895632D01*
X118530349Y-134915038D01*
X118537581Y-134935250D01*
X118542797Y-134956074D01*
X118545947Y-134977309D01*
X118547000Y-134998750D01*
X118547000Y-135511250D01*
X118545947Y-135532691D01*
X118542797Y-135553926D01*
X118537581Y-135574750D01*
X118530349Y-135594962D01*
X118521170Y-135614368D01*
X118510134Y-135632781D01*
X118497346Y-135650024D01*
X118482930Y-135665930D01*
X118467024Y-135680346D01*
X118449781Y-135693134D01*
X118431368Y-135704170D01*
X118411962Y-135713349D01*
X118391750Y-135720581D01*
X118370926Y-135725797D01*
X118349691Y-135728947D01*
X118328250Y-135730000D01*
X117890750Y-135730000D01*
X117869309Y-135728947D01*
X117848074Y-135725797D01*
X117827250Y-135720581D01*
X117807038Y-135713349D01*
X117787632Y-135704170D01*
X117769219Y-135693134D01*
X117751976Y-135680346D01*
X117736070Y-135665930D01*
X117721654Y-135650024D01*
X117708866Y-135632781D01*
X117697830Y-135614368D01*
X117688651Y-135594962D01*
X117681419Y-135574750D01*
X117676203Y-135553926D01*
X117673053Y-135532691D01*
X117672000Y-135511250D01*
X117672000Y-134998750D01*
X117673053Y-134977309D01*
X117676203Y-134956074D01*
X117681419Y-134935250D01*
X117688651Y-134915038D01*
X117697830Y-134895632D01*
X117708866Y-134877219D01*
X117721654Y-134859976D01*
X117736070Y-134844070D01*
X117751976Y-134829654D01*
X117769219Y-134816866D01*
X117787632Y-134805830D01*
X117807038Y-134796651D01*
X117827250Y-134789419D01*
X117848074Y-134784203D01*
X117869309Y-134781053D01*
X117890750Y-134780000D01*
X118328250Y-134780000D01*
X118349691Y-134781053D01*
G37*
G36*
X125969691Y-122716053D02*
G01*
X125990926Y-122719203D01*
X126011750Y-122724419D01*
X126031962Y-122731651D01*
X126051368Y-122740830D01*
X126069781Y-122751866D01*
X126087024Y-122764654D01*
X126102930Y-122779070D01*
X126117346Y-122794976D01*
X126130134Y-122812219D01*
X126141170Y-122830632D01*
X126150349Y-122850038D01*
X126157581Y-122870250D01*
X126162797Y-122891074D01*
X126165947Y-122912309D01*
X126167000Y-122933750D01*
X126167000Y-123446250D01*
X126165947Y-123467691D01*
X126162797Y-123488926D01*
X126157581Y-123509750D01*
X126150349Y-123529962D01*
X126141170Y-123549368D01*
X126130134Y-123567781D01*
X126117346Y-123585024D01*
X126102930Y-123600930D01*
X126087024Y-123615346D01*
X126069781Y-123628134D01*
X126051368Y-123639170D01*
X126031962Y-123648349D01*
X126011750Y-123655581D01*
X125990926Y-123660797D01*
X125969691Y-123663947D01*
X125948250Y-123665000D01*
X125510750Y-123665000D01*
X125489309Y-123663947D01*
X125468074Y-123660797D01*
X125447250Y-123655581D01*
X125427038Y-123648349D01*
X125407632Y-123639170D01*
X125389219Y-123628134D01*
X125371976Y-123615346D01*
X125356070Y-123600930D01*
X125341654Y-123585024D01*
X125328866Y-123567781D01*
X125317830Y-123549368D01*
X125308651Y-123529962D01*
X125301419Y-123509750D01*
X125296203Y-123488926D01*
X125293053Y-123467691D01*
X125292000Y-123446250D01*
X125292000Y-122933750D01*
X125293053Y-122912309D01*
X125296203Y-122891074D01*
X125301419Y-122870250D01*
X125308651Y-122850038D01*
X125317830Y-122830632D01*
X125328866Y-122812219D01*
X125341654Y-122794976D01*
X125356070Y-122779070D01*
X125371976Y-122764654D01*
X125389219Y-122751866D01*
X125407632Y-122740830D01*
X125427038Y-122731651D01*
X125447250Y-122724419D01*
X125468074Y-122719203D01*
X125489309Y-122716053D01*
X125510750Y-122715000D01*
X125948250Y-122715000D01*
X125969691Y-122716053D01*
G37*
G36*
X124394691Y-122716053D02*
G01*
X124415926Y-122719203D01*
X124436750Y-122724419D01*
X124456962Y-122731651D01*
X124476368Y-122740830D01*
X124494781Y-122751866D01*
X124512024Y-122764654D01*
X124527930Y-122779070D01*
X124542346Y-122794976D01*
X124555134Y-122812219D01*
X124566170Y-122830632D01*
X124575349Y-122850038D01*
X124582581Y-122870250D01*
X124587797Y-122891074D01*
X124590947Y-122912309D01*
X124592000Y-122933750D01*
X124592000Y-123446250D01*
X124590947Y-123467691D01*
X124587797Y-123488926D01*
X124582581Y-123509750D01*
X124575349Y-123529962D01*
X124566170Y-123549368D01*
X124555134Y-123567781D01*
X124542346Y-123585024D01*
X124527930Y-123600930D01*
X124512024Y-123615346D01*
X124494781Y-123628134D01*
X124476368Y-123639170D01*
X124456962Y-123648349D01*
X124436750Y-123655581D01*
X124415926Y-123660797D01*
X124394691Y-123663947D01*
X124373250Y-123665000D01*
X123935750Y-123665000D01*
X123914309Y-123663947D01*
X123893074Y-123660797D01*
X123872250Y-123655581D01*
X123852038Y-123648349D01*
X123832632Y-123639170D01*
X123814219Y-123628134D01*
X123796976Y-123615346D01*
X123781070Y-123600930D01*
X123766654Y-123585024D01*
X123753866Y-123567781D01*
X123742830Y-123549368D01*
X123733651Y-123529962D01*
X123726419Y-123509750D01*
X123721203Y-123488926D01*
X123718053Y-123467691D01*
X123717000Y-123446250D01*
X123717000Y-122933750D01*
X123718053Y-122912309D01*
X123721203Y-122891074D01*
X123726419Y-122870250D01*
X123733651Y-122850038D01*
X123742830Y-122830632D01*
X123753866Y-122812219D01*
X123766654Y-122794976D01*
X123781070Y-122779070D01*
X123796976Y-122764654D01*
X123814219Y-122751866D01*
X123832632Y-122740830D01*
X123852038Y-122731651D01*
X123872250Y-122724419D01*
X123893074Y-122719203D01*
X123914309Y-122716053D01*
X123935750Y-122715000D01*
X124373250Y-122715000D01*
X124394691Y-122716053D01*
G37*
G36*
X124547691Y-118906053D02*
G01*
X124568926Y-118909203D01*
X124589750Y-118914419D01*
X124609962Y-118921651D01*
X124629368Y-118930830D01*
X124647781Y-118941866D01*
X124665024Y-118954654D01*
X124680930Y-118969070D01*
X124695346Y-118984976D01*
X124708134Y-119002219D01*
X124719170Y-119020632D01*
X124728349Y-119040038D01*
X124735581Y-119060250D01*
X124740797Y-119081074D01*
X124743947Y-119102309D01*
X124745000Y-119123750D01*
X124745000Y-119636250D01*
X124743947Y-119657691D01*
X124740797Y-119678926D01*
X124735581Y-119699750D01*
X124728349Y-119719962D01*
X124719170Y-119739368D01*
X124708134Y-119757781D01*
X124695346Y-119775024D01*
X124680930Y-119790930D01*
X124665024Y-119805346D01*
X124647781Y-119818134D01*
X124629368Y-119829170D01*
X124609962Y-119838349D01*
X124589750Y-119845581D01*
X124568926Y-119850797D01*
X124547691Y-119853947D01*
X124526250Y-119855000D01*
X124088750Y-119855000D01*
X124067309Y-119853947D01*
X124046074Y-119850797D01*
X124025250Y-119845581D01*
X124005038Y-119838349D01*
X123985632Y-119829170D01*
X123967219Y-119818134D01*
X123949976Y-119805346D01*
X123934070Y-119790930D01*
X123919654Y-119775024D01*
X123906866Y-119757781D01*
X123895830Y-119739368D01*
X123886651Y-119719962D01*
X123879419Y-119699750D01*
X123874203Y-119678926D01*
X123871053Y-119657691D01*
X123870000Y-119636250D01*
X123870000Y-119123750D01*
X123871053Y-119102309D01*
X123874203Y-119081074D01*
X123879419Y-119060250D01*
X123886651Y-119040038D01*
X123895830Y-119020632D01*
X123906866Y-119002219D01*
X123919654Y-118984976D01*
X123934070Y-118969070D01*
X123949976Y-118954654D01*
X123967219Y-118941866D01*
X123985632Y-118930830D01*
X124005038Y-118921651D01*
X124025250Y-118914419D01*
X124046074Y-118909203D01*
X124067309Y-118906053D01*
X124088750Y-118905000D01*
X124526250Y-118905000D01*
X124547691Y-118906053D01*
G37*
G36*
X126122691Y-118906053D02*
G01*
X126143926Y-118909203D01*
X126164750Y-118914419D01*
X126184962Y-118921651D01*
X126204368Y-118930830D01*
X126222781Y-118941866D01*
X126240024Y-118954654D01*
X126255930Y-118969070D01*
X126270346Y-118984976D01*
X126283134Y-119002219D01*
X126294170Y-119020632D01*
X126303349Y-119040038D01*
X126310581Y-119060250D01*
X126315797Y-119081074D01*
X126318947Y-119102309D01*
X126320000Y-119123750D01*
X126320000Y-119636250D01*
X126318947Y-119657691D01*
X126315797Y-119678926D01*
X126310581Y-119699750D01*
X126303349Y-119719962D01*
X126294170Y-119739368D01*
X126283134Y-119757781D01*
X126270346Y-119775024D01*
X126255930Y-119790930D01*
X126240024Y-119805346D01*
X126222781Y-119818134D01*
X126204368Y-119829170D01*
X126184962Y-119838349D01*
X126164750Y-119845581D01*
X126143926Y-119850797D01*
X126122691Y-119853947D01*
X126101250Y-119855000D01*
X125663750Y-119855000D01*
X125642309Y-119853947D01*
X125621074Y-119850797D01*
X125600250Y-119845581D01*
X125580038Y-119838349D01*
X125560632Y-119829170D01*
X125542219Y-119818134D01*
X125524976Y-119805346D01*
X125509070Y-119790930D01*
X125494654Y-119775024D01*
X125481866Y-119757781D01*
X125470830Y-119739368D01*
X125461651Y-119719962D01*
X125454419Y-119699750D01*
X125449203Y-119678926D01*
X125446053Y-119657691D01*
X125445000Y-119636250D01*
X125445000Y-119123750D01*
X125446053Y-119102309D01*
X125449203Y-119081074D01*
X125454419Y-119060250D01*
X125461651Y-119040038D01*
X125470830Y-119020632D01*
X125481866Y-119002219D01*
X125494654Y-118984976D01*
X125509070Y-118969070D01*
X125524976Y-118954654D01*
X125542219Y-118941866D01*
X125560632Y-118930830D01*
X125580038Y-118921651D01*
X125600250Y-118914419D01*
X125621074Y-118909203D01*
X125642309Y-118906053D01*
X125663750Y-118905000D01*
X126101250Y-118905000D01*
X126122691Y-118906053D01*
G37*
G36*
X125487691Y-92871053D02*
G01*
X125508926Y-92874203D01*
X125529750Y-92879419D01*
X125549962Y-92886651D01*
X125569368Y-92895830D01*
X125587781Y-92906866D01*
X125605024Y-92919654D01*
X125620930Y-92934070D01*
X125635346Y-92949976D01*
X125648134Y-92967219D01*
X125659170Y-92985632D01*
X125668349Y-93005038D01*
X125675581Y-93025250D01*
X125680797Y-93046074D01*
X125683947Y-93067309D01*
X125685000Y-93088750D01*
X125685000Y-93601250D01*
X125683947Y-93622691D01*
X125680797Y-93643926D01*
X125675581Y-93664750D01*
X125668349Y-93684962D01*
X125659170Y-93704368D01*
X125648134Y-93722781D01*
X125635346Y-93740024D01*
X125620930Y-93755930D01*
X125605024Y-93770346D01*
X125587781Y-93783134D01*
X125569368Y-93794170D01*
X125549962Y-93803349D01*
X125529750Y-93810581D01*
X125508926Y-93815797D01*
X125487691Y-93818947D01*
X125466250Y-93820000D01*
X125028750Y-93820000D01*
X125007309Y-93818947D01*
X124986074Y-93815797D01*
X124965250Y-93810581D01*
X124945038Y-93803349D01*
X124925632Y-93794170D01*
X124907219Y-93783134D01*
X124889976Y-93770346D01*
X124874070Y-93755930D01*
X124859654Y-93740024D01*
X124846866Y-93722781D01*
X124835830Y-93704368D01*
X124826651Y-93684962D01*
X124819419Y-93664750D01*
X124814203Y-93643926D01*
X124811053Y-93622691D01*
X124810000Y-93601250D01*
X124810000Y-93088750D01*
X124811053Y-93067309D01*
X124814203Y-93046074D01*
X124819419Y-93025250D01*
X124826651Y-93005038D01*
X124835830Y-92985632D01*
X124846866Y-92967219D01*
X124859654Y-92949976D01*
X124874070Y-92934070D01*
X124889976Y-92919654D01*
X124907219Y-92906866D01*
X124925632Y-92895830D01*
X124945038Y-92886651D01*
X124965250Y-92879419D01*
X124986074Y-92874203D01*
X125007309Y-92871053D01*
X125028750Y-92870000D01*
X125466250Y-92870000D01*
X125487691Y-92871053D01*
G37*
G36*
X123912691Y-92871053D02*
G01*
X123933926Y-92874203D01*
X123954750Y-92879419D01*
X123974962Y-92886651D01*
X123994368Y-92895830D01*
X124012781Y-92906866D01*
X124030024Y-92919654D01*
X124045930Y-92934070D01*
X124060346Y-92949976D01*
X124073134Y-92967219D01*
X124084170Y-92985632D01*
X124093349Y-93005038D01*
X124100581Y-93025250D01*
X124105797Y-93046074D01*
X124108947Y-93067309D01*
X124110000Y-93088750D01*
X124110000Y-93601250D01*
X124108947Y-93622691D01*
X124105797Y-93643926D01*
X124100581Y-93664750D01*
X124093349Y-93684962D01*
X124084170Y-93704368D01*
X124073134Y-93722781D01*
X124060346Y-93740024D01*
X124045930Y-93755930D01*
X124030024Y-93770346D01*
X124012781Y-93783134D01*
X123994368Y-93794170D01*
X123974962Y-93803349D01*
X123954750Y-93810581D01*
X123933926Y-93815797D01*
X123912691Y-93818947D01*
X123891250Y-93820000D01*
X123453750Y-93820000D01*
X123432309Y-93818947D01*
X123411074Y-93815797D01*
X123390250Y-93810581D01*
X123370038Y-93803349D01*
X123350632Y-93794170D01*
X123332219Y-93783134D01*
X123314976Y-93770346D01*
X123299070Y-93755930D01*
X123284654Y-93740024D01*
X123271866Y-93722781D01*
X123260830Y-93704368D01*
X123251651Y-93684962D01*
X123244419Y-93664750D01*
X123239203Y-93643926D01*
X123236053Y-93622691D01*
X123235000Y-93601250D01*
X123235000Y-93088750D01*
X123236053Y-93067309D01*
X123239203Y-93046074D01*
X123244419Y-93025250D01*
X123251651Y-93005038D01*
X123260830Y-92985632D01*
X123271866Y-92967219D01*
X123284654Y-92949976D01*
X123299070Y-92934070D01*
X123314976Y-92919654D01*
X123332219Y-92906866D01*
X123350632Y-92895830D01*
X123370038Y-92886651D01*
X123390250Y-92879419D01*
X123411074Y-92874203D01*
X123432309Y-92871053D01*
X123453750Y-92870000D01*
X123891250Y-92870000D01*
X123912691Y-92871053D01*
G37*
G36*
X125335691Y-89061053D02*
G01*
X125356926Y-89064203D01*
X125377750Y-89069419D01*
X125397962Y-89076651D01*
X125417368Y-89085830D01*
X125435781Y-89096866D01*
X125453024Y-89109654D01*
X125468930Y-89124070D01*
X125483346Y-89139976D01*
X125496134Y-89157219D01*
X125507170Y-89175632D01*
X125516349Y-89195038D01*
X125523581Y-89215250D01*
X125528797Y-89236074D01*
X125531947Y-89257309D01*
X125533000Y-89278750D01*
X125533000Y-89791250D01*
X125531947Y-89812691D01*
X125528797Y-89833926D01*
X125523581Y-89854750D01*
X125516349Y-89874962D01*
X125507170Y-89894368D01*
X125496134Y-89912781D01*
X125483346Y-89930024D01*
X125468930Y-89945930D01*
X125453024Y-89960346D01*
X125435781Y-89973134D01*
X125417368Y-89984170D01*
X125397962Y-89993349D01*
X125377750Y-90000581D01*
X125356926Y-90005797D01*
X125335691Y-90008947D01*
X125314250Y-90010000D01*
X124876750Y-90010000D01*
X124855309Y-90008947D01*
X124834074Y-90005797D01*
X124813250Y-90000581D01*
X124793038Y-89993349D01*
X124773632Y-89984170D01*
X124755219Y-89973134D01*
X124737976Y-89960346D01*
X124722070Y-89945930D01*
X124707654Y-89930024D01*
X124694866Y-89912781D01*
X124683830Y-89894368D01*
X124674651Y-89874962D01*
X124667419Y-89854750D01*
X124662203Y-89833926D01*
X124659053Y-89812691D01*
X124658000Y-89791250D01*
X124658000Y-89278750D01*
X124659053Y-89257309D01*
X124662203Y-89236074D01*
X124667419Y-89215250D01*
X124674651Y-89195038D01*
X124683830Y-89175632D01*
X124694866Y-89157219D01*
X124707654Y-89139976D01*
X124722070Y-89124070D01*
X124737976Y-89109654D01*
X124755219Y-89096866D01*
X124773632Y-89085830D01*
X124793038Y-89076651D01*
X124813250Y-89069419D01*
X124834074Y-89064203D01*
X124855309Y-89061053D01*
X124876750Y-89060000D01*
X125314250Y-89060000D01*
X125335691Y-89061053D01*
G37*
G36*
X123760691Y-89061053D02*
G01*
X123781926Y-89064203D01*
X123802750Y-89069419D01*
X123822962Y-89076651D01*
X123842368Y-89085830D01*
X123860781Y-89096866D01*
X123878024Y-89109654D01*
X123893930Y-89124070D01*
X123908346Y-89139976D01*
X123921134Y-89157219D01*
X123932170Y-89175632D01*
X123941349Y-89195038D01*
X123948581Y-89215250D01*
X123953797Y-89236074D01*
X123956947Y-89257309D01*
X123958000Y-89278750D01*
X123958000Y-89791250D01*
X123956947Y-89812691D01*
X123953797Y-89833926D01*
X123948581Y-89854750D01*
X123941349Y-89874962D01*
X123932170Y-89894368D01*
X123921134Y-89912781D01*
X123908346Y-89930024D01*
X123893930Y-89945930D01*
X123878024Y-89960346D01*
X123860781Y-89973134D01*
X123842368Y-89984170D01*
X123822962Y-89993349D01*
X123802750Y-90000581D01*
X123781926Y-90005797D01*
X123760691Y-90008947D01*
X123739250Y-90010000D01*
X123301750Y-90010000D01*
X123280309Y-90008947D01*
X123259074Y-90005797D01*
X123238250Y-90000581D01*
X123218038Y-89993349D01*
X123198632Y-89984170D01*
X123180219Y-89973134D01*
X123162976Y-89960346D01*
X123147070Y-89945930D01*
X123132654Y-89930024D01*
X123119866Y-89912781D01*
X123108830Y-89894368D01*
X123099651Y-89874962D01*
X123092419Y-89854750D01*
X123087203Y-89833926D01*
X123084053Y-89812691D01*
X123083000Y-89791250D01*
X123083000Y-89278750D01*
X123084053Y-89257309D01*
X123087203Y-89236074D01*
X123092419Y-89215250D01*
X123099651Y-89195038D01*
X123108830Y-89175632D01*
X123119866Y-89157219D01*
X123132654Y-89139976D01*
X123147070Y-89124070D01*
X123162976Y-89109654D01*
X123180219Y-89096866D01*
X123198632Y-89085830D01*
X123218038Y-89076651D01*
X123238250Y-89069419D01*
X123259074Y-89064203D01*
X123280309Y-89061053D01*
X123301750Y-89060000D01*
X123739250Y-89060000D01*
X123760691Y-89061053D01*
G37*
G36*
X125487691Y-62391053D02*
G01*
X125508926Y-62394203D01*
X125529750Y-62399419D01*
X125549962Y-62406651D01*
X125569368Y-62415830D01*
X125587781Y-62426866D01*
X125605024Y-62439654D01*
X125620930Y-62454070D01*
X125635346Y-62469976D01*
X125648134Y-62487219D01*
X125659170Y-62505632D01*
X125668349Y-62525038D01*
X125675581Y-62545250D01*
X125680797Y-62566074D01*
X125683947Y-62587309D01*
X125685000Y-62608750D01*
X125685000Y-63121250D01*
X125683947Y-63142691D01*
X125680797Y-63163926D01*
X125675581Y-63184750D01*
X125668349Y-63204962D01*
X125659170Y-63224368D01*
X125648134Y-63242781D01*
X125635346Y-63260024D01*
X125620930Y-63275930D01*
X125605024Y-63290346D01*
X125587781Y-63303134D01*
X125569368Y-63314170D01*
X125549962Y-63323349D01*
X125529750Y-63330581D01*
X125508926Y-63335797D01*
X125487691Y-63338947D01*
X125466250Y-63340000D01*
X125028750Y-63340000D01*
X125007309Y-63338947D01*
X124986074Y-63335797D01*
X124965250Y-63330581D01*
X124945038Y-63323349D01*
X124925632Y-63314170D01*
X124907219Y-63303134D01*
X124889976Y-63290346D01*
X124874070Y-63275930D01*
X124859654Y-63260024D01*
X124846866Y-63242781D01*
X124835830Y-63224368D01*
X124826651Y-63204962D01*
X124819419Y-63184750D01*
X124814203Y-63163926D01*
X124811053Y-63142691D01*
X124810000Y-63121250D01*
X124810000Y-62608750D01*
X124811053Y-62587309D01*
X124814203Y-62566074D01*
X124819419Y-62545250D01*
X124826651Y-62525038D01*
X124835830Y-62505632D01*
X124846866Y-62487219D01*
X124859654Y-62469976D01*
X124874070Y-62454070D01*
X124889976Y-62439654D01*
X124907219Y-62426866D01*
X124925632Y-62415830D01*
X124945038Y-62406651D01*
X124965250Y-62399419D01*
X124986074Y-62394203D01*
X125007309Y-62391053D01*
X125028750Y-62390000D01*
X125466250Y-62390000D01*
X125487691Y-62391053D01*
G37*
G36*
X123912691Y-62391053D02*
G01*
X123933926Y-62394203D01*
X123954750Y-62399419D01*
X123974962Y-62406651D01*
X123994368Y-62415830D01*
X124012781Y-62426866D01*
X124030024Y-62439654D01*
X124045930Y-62454070D01*
X124060346Y-62469976D01*
X124073134Y-62487219D01*
X124084170Y-62505632D01*
X124093349Y-62525038D01*
X124100581Y-62545250D01*
X124105797Y-62566074D01*
X124108947Y-62587309D01*
X124110000Y-62608750D01*
X124110000Y-63121250D01*
X124108947Y-63142691D01*
X124105797Y-63163926D01*
X124100581Y-63184750D01*
X124093349Y-63204962D01*
X124084170Y-63224368D01*
X124073134Y-63242781D01*
X124060346Y-63260024D01*
X124045930Y-63275930D01*
X124030024Y-63290346D01*
X124012781Y-63303134D01*
X123994368Y-63314170D01*
X123974962Y-63323349D01*
X123954750Y-63330581D01*
X123933926Y-63335797D01*
X123912691Y-63338947D01*
X123891250Y-63340000D01*
X123453750Y-63340000D01*
X123432309Y-63338947D01*
X123411074Y-63335797D01*
X123390250Y-63330581D01*
X123370038Y-63323349D01*
X123350632Y-63314170D01*
X123332219Y-63303134D01*
X123314976Y-63290346D01*
X123299070Y-63275930D01*
X123284654Y-63260024D01*
X123271866Y-63242781D01*
X123260830Y-63224368D01*
X123251651Y-63204962D01*
X123244419Y-63184750D01*
X123239203Y-63163926D01*
X123236053Y-63142691D01*
X123235000Y-63121250D01*
X123235000Y-62608750D01*
X123236053Y-62587309D01*
X123239203Y-62566074D01*
X123244419Y-62545250D01*
X123251651Y-62525038D01*
X123260830Y-62505632D01*
X123271866Y-62487219D01*
X123284654Y-62469976D01*
X123299070Y-62454070D01*
X123314976Y-62439654D01*
X123332219Y-62426866D01*
X123350632Y-62415830D01*
X123370038Y-62406651D01*
X123390250Y-62399419D01*
X123411074Y-62394203D01*
X123432309Y-62391053D01*
X123453750Y-62390000D01*
X123891250Y-62390000D01*
X123912691Y-62391053D01*
G37*
G36*
X125487691Y-58581053D02*
G01*
X125508926Y-58584203D01*
X125529750Y-58589419D01*
X125549962Y-58596651D01*
X125569368Y-58605830D01*
X125587781Y-58616866D01*
X125605024Y-58629654D01*
X125620930Y-58644070D01*
X125635346Y-58659976D01*
X125648134Y-58677219D01*
X125659170Y-58695632D01*
X125668349Y-58715038D01*
X125675581Y-58735250D01*
X125680797Y-58756074D01*
X125683947Y-58777309D01*
X125685000Y-58798750D01*
X125685000Y-59311250D01*
X125683947Y-59332691D01*
X125680797Y-59353926D01*
X125675581Y-59374750D01*
X125668349Y-59394962D01*
X125659170Y-59414368D01*
X125648134Y-59432781D01*
X125635346Y-59450024D01*
X125620930Y-59465930D01*
X125605024Y-59480346D01*
X125587781Y-59493134D01*
X125569368Y-59504170D01*
X125549962Y-59513349D01*
X125529750Y-59520581D01*
X125508926Y-59525797D01*
X125487691Y-59528947D01*
X125466250Y-59530000D01*
X125028750Y-59530000D01*
X125007309Y-59528947D01*
X124986074Y-59525797D01*
X124965250Y-59520581D01*
X124945038Y-59513349D01*
X124925632Y-59504170D01*
X124907219Y-59493134D01*
X124889976Y-59480346D01*
X124874070Y-59465930D01*
X124859654Y-59450024D01*
X124846866Y-59432781D01*
X124835830Y-59414368D01*
X124826651Y-59394962D01*
X124819419Y-59374750D01*
X124814203Y-59353926D01*
X124811053Y-59332691D01*
X124810000Y-59311250D01*
X124810000Y-58798750D01*
X124811053Y-58777309D01*
X124814203Y-58756074D01*
X124819419Y-58735250D01*
X124826651Y-58715038D01*
X124835830Y-58695632D01*
X124846866Y-58677219D01*
X124859654Y-58659976D01*
X124874070Y-58644070D01*
X124889976Y-58629654D01*
X124907219Y-58616866D01*
X124925632Y-58605830D01*
X124945038Y-58596651D01*
X124965250Y-58589419D01*
X124986074Y-58584203D01*
X125007309Y-58581053D01*
X125028750Y-58580000D01*
X125466250Y-58580000D01*
X125487691Y-58581053D01*
G37*
G36*
X123912691Y-58581053D02*
G01*
X123933926Y-58584203D01*
X123954750Y-58589419D01*
X123974962Y-58596651D01*
X123994368Y-58605830D01*
X124012781Y-58616866D01*
X124030024Y-58629654D01*
X124045930Y-58644070D01*
X124060346Y-58659976D01*
X124073134Y-58677219D01*
X124084170Y-58695632D01*
X124093349Y-58715038D01*
X124100581Y-58735250D01*
X124105797Y-58756074D01*
X124108947Y-58777309D01*
X124110000Y-58798750D01*
X124110000Y-59311250D01*
X124108947Y-59332691D01*
X124105797Y-59353926D01*
X124100581Y-59374750D01*
X124093349Y-59394962D01*
X124084170Y-59414368D01*
X124073134Y-59432781D01*
X124060346Y-59450024D01*
X124045930Y-59465930D01*
X124030024Y-59480346D01*
X124012781Y-59493134D01*
X123994368Y-59504170D01*
X123974962Y-59513349D01*
X123954750Y-59520581D01*
X123933926Y-59525797D01*
X123912691Y-59528947D01*
X123891250Y-59530000D01*
X123453750Y-59530000D01*
X123432309Y-59528947D01*
X123411074Y-59525797D01*
X123390250Y-59520581D01*
X123370038Y-59513349D01*
X123350632Y-59504170D01*
X123332219Y-59493134D01*
X123314976Y-59480346D01*
X123299070Y-59465930D01*
X123284654Y-59450024D01*
X123271866Y-59432781D01*
X123260830Y-59414368D01*
X123251651Y-59394962D01*
X123244419Y-59374750D01*
X123239203Y-59353926D01*
X123236053Y-59332691D01*
X123235000Y-59311250D01*
X123235000Y-58798750D01*
X123236053Y-58777309D01*
X123239203Y-58756074D01*
X123244419Y-58735250D01*
X123251651Y-58715038D01*
X123260830Y-58695632D01*
X123271866Y-58677219D01*
X123284654Y-58659976D01*
X123299070Y-58644070D01*
X123314976Y-58629654D01*
X123332219Y-58616866D01*
X123350632Y-58605830D01*
X123370038Y-58596651D01*
X123390250Y-58589419D01*
X123411074Y-58584203D01*
X123432309Y-58581053D01*
X123453750Y-58580000D01*
X123891250Y-58580000D01*
X123912691Y-58581053D01*
G37*
D14*
X115509900Y-76515000D03*
X115509900Y-74615000D03*
X118110100Y-74615000D03*
X118110100Y-75565000D03*
X118110100Y-76515000D03*
D15*
X90805000Y-107100000D03*
X90805000Y-108800000D03*
X100330000Y-107100000D03*
X100330000Y-108800000D03*
D16*
X126220000Y-107150000D03*
X126220000Y-108750000D03*
X130320000Y-108750000D03*
X130320000Y-107150000D03*
D17*
X94615000Y-108585000D03*
X94615000Y-107085000D03*
X97155000Y-108700000D03*
X97155000Y-107200000D03*
D13*
G36*
X112632750Y-106204099D02*
G01*
X113198435Y-106769784D01*
X113021658Y-106946561D01*
X112455973Y-106380876D01*
X112632750Y-106204099D01*
G37*
G36*
X112279196Y-106557652D02*
G01*
X112844881Y-107123337D01*
X112668104Y-107300114D01*
X112102419Y-106734429D01*
X112279196Y-106557652D01*
G37*
G36*
X111925643Y-106911206D02*
G01*
X112491328Y-107476891D01*
X112314551Y-107653668D01*
X111748866Y-107087983D01*
X111925643Y-106911206D01*
G37*
G36*
X111572090Y-107264759D02*
G01*
X112137775Y-107830444D01*
X111960998Y-108007221D01*
X111395313Y-107441536D01*
X111572090Y-107264759D01*
G37*
G36*
X111218536Y-107618313D02*
G01*
X111784221Y-108183998D01*
X111607444Y-108360775D01*
X111041759Y-107795090D01*
X111218536Y-107618313D01*
G37*
G36*
X110864983Y-107971866D02*
G01*
X111430668Y-108537551D01*
X111253891Y-108714328D01*
X110688206Y-108148643D01*
X110864983Y-107971866D01*
G37*
G36*
X110511429Y-108325419D02*
G01*
X111077114Y-108891104D01*
X110900337Y-109067881D01*
X110334652Y-108502196D01*
X110511429Y-108325419D01*
G37*
G36*
X110157876Y-108678973D02*
G01*
X110723561Y-109244658D01*
X110546784Y-109421435D01*
X109981099Y-108855750D01*
X110157876Y-108678973D01*
G37*
G36*
X109662901Y-108855750D02*
G01*
X109097216Y-109421435D01*
X108920439Y-109244658D01*
X109486124Y-108678973D01*
X109662901Y-108855750D01*
G37*
G36*
X109309348Y-108502196D02*
G01*
X108743663Y-109067881D01*
X108566886Y-108891104D01*
X109132571Y-108325419D01*
X109309348Y-108502196D01*
G37*
G36*
X108955794Y-108148643D02*
G01*
X108390109Y-108714328D01*
X108213332Y-108537551D01*
X108779017Y-107971866D01*
X108955794Y-108148643D01*
G37*
G36*
X108602241Y-107795090D02*
G01*
X108036556Y-108360775D01*
X107859779Y-108183998D01*
X108425464Y-107618313D01*
X108602241Y-107795090D01*
G37*
G36*
X108248687Y-107441536D02*
G01*
X107683002Y-108007221D01*
X107506225Y-107830444D01*
X108071910Y-107264759D01*
X108248687Y-107441536D01*
G37*
G36*
X107895134Y-107087983D02*
G01*
X107329449Y-107653668D01*
X107152672Y-107476891D01*
X107718357Y-106911206D01*
X107895134Y-107087983D01*
G37*
G36*
X107541581Y-106734429D02*
G01*
X106975896Y-107300114D01*
X106799119Y-107123337D01*
X107364804Y-106557652D01*
X107541581Y-106734429D01*
G37*
G36*
X107188027Y-106380876D02*
G01*
X106622342Y-106946561D01*
X106445565Y-106769784D01*
X107011250Y-106204099D01*
X107188027Y-106380876D01*
G37*
G36*
X107011250Y-105885901D02*
G01*
X106445565Y-105320216D01*
X106622342Y-105143439D01*
X107188027Y-105709124D01*
X107011250Y-105885901D01*
G37*
G36*
X107364804Y-105532348D02*
G01*
X106799119Y-104966663D01*
X106975896Y-104789886D01*
X107541581Y-105355571D01*
X107364804Y-105532348D01*
G37*
G36*
X107718357Y-105178794D02*
G01*
X107152672Y-104613109D01*
X107329449Y-104436332D01*
X107895134Y-105002017D01*
X107718357Y-105178794D01*
G37*
G36*
X108071910Y-104825241D02*
G01*
X107506225Y-104259556D01*
X107683002Y-104082779D01*
X108248687Y-104648464D01*
X108071910Y-104825241D01*
G37*
G36*
X108425464Y-104471687D02*
G01*
X107859779Y-103906002D01*
X108036556Y-103729225D01*
X108602241Y-104294910D01*
X108425464Y-104471687D01*
G37*
G36*
X108779017Y-104118134D02*
G01*
X108213332Y-103552449D01*
X108390109Y-103375672D01*
X108955794Y-103941357D01*
X108779017Y-104118134D01*
G37*
G36*
X109132571Y-103764581D02*
G01*
X108566886Y-103198896D01*
X108743663Y-103022119D01*
X109309348Y-103587804D01*
X109132571Y-103764581D01*
G37*
G36*
X109486124Y-103411027D02*
G01*
X108920439Y-102845342D01*
X109097216Y-102668565D01*
X109662901Y-103234250D01*
X109486124Y-103411027D01*
G37*
G36*
X109981099Y-103234250D02*
G01*
X110546784Y-102668565D01*
X110723561Y-102845342D01*
X110157876Y-103411027D01*
X109981099Y-103234250D01*
G37*
G36*
X110334652Y-103587804D02*
G01*
X110900337Y-103022119D01*
X111077114Y-103198896D01*
X110511429Y-103764581D01*
X110334652Y-103587804D01*
G37*
G36*
X110688206Y-103941357D02*
G01*
X111253891Y-103375672D01*
X111430668Y-103552449D01*
X110864983Y-104118134D01*
X110688206Y-103941357D01*
G37*
G36*
X111041759Y-104294910D02*
G01*
X111607444Y-103729225D01*
X111784221Y-103906002D01*
X111218536Y-104471687D01*
X111041759Y-104294910D01*
G37*
G36*
X111395313Y-104648464D02*
G01*
X111960998Y-104082779D01*
X112137775Y-104259556D01*
X111572090Y-104825241D01*
X111395313Y-104648464D01*
G37*
G36*
X111748866Y-105002017D02*
G01*
X112314551Y-104436332D01*
X112491328Y-104613109D01*
X111925643Y-105178794D01*
X111748866Y-105002017D01*
G37*
G36*
X112102419Y-105355571D02*
G01*
X112668104Y-104789886D01*
X112844881Y-104966663D01*
X112279196Y-105532348D01*
X112102419Y-105355571D01*
G37*
G36*
X112455973Y-105709124D02*
G01*
X113021658Y-105143439D01*
X113198435Y-105320216D01*
X112632750Y-105885901D01*
X112455973Y-105709124D01*
G37*
D18*
X126999500Y-76200000D03*
X123724500Y-76200000D03*
X126999500Y-73025000D03*
X123724500Y-73025000D03*
D19*
X135255000Y-75245000D03*
X135255000Y-73345000D03*
D20*
X121490000Y-108585000D03*
X123190000Y-108585000D03*
X123405000Y-104775000D03*
X121705000Y-104775000D03*
D21*
X110490000Y-89535000D03*
X108590000Y-89535000D03*
M02*
