M48
; DRILL file {KiCad (5.1.5)-3} date 3/9/2020 7:44:34 AM
; FORMAT={-:-/ absolute / inch / decimal}
; #@! TF.CreationDate,2020-03-09T07:44:34-05:00
; #@! TF.GenerationSoftware,Kicad,Pcbnew,(5.1.5)-3
; #@! TF.FileFunction,Plated,1,4,PTH
FMAT,2
INCH
T1C0.0157
T2C0.0236
T3C0.0394
%
G90
G05
T1
X3.325Y-4.2251
X3.4995Y-4.2761
X3.516Y-3.7861
X3.5614Y-2.362
X3.694Y-2.3682
X3.7847Y-3.806
X3.8816Y-2.6776
X3.95Y-4.1706
X4.1208Y-4.7057
X4.15Y-4.925
X4.2189Y-4.0841
X4.2466Y-4.3394
X4.248Y-4.1747
X4.2488Y-5.3715
X4.2894Y-4.1273
X4.3039Y-4.2385
X4.3098Y-4.1952
X4.3395Y-4.3289
X4.3761Y-4.1764
X4.3879Y-4.0433
X4.3951Y-4.3016
X4.425Y-4.925
X4.4399Y-4.0952
X4.4481Y-4.2467
X4.4645Y-4.1772
X4.4999Y-3.0237
X4.5356Y-3.6879
X4.5601Y-5.2134
X4.6447Y-4.0861
X4.7058Y-4.1899
X4.7858Y-3.4951
X4.815Y-5.0987
X4.8266Y-2.475
X4.8403Y-2.9217
X4.8568Y-4.8159
X4.8632Y-2.3691
X4.869Y-3.7183
X4.9259Y-4.2291
X4.956Y-4.419
X5.3321Y-2.8385
T2
X3.35Y-5.7
X3.4Y-5.7
X3.675Y-5.1
X3.725Y-5.1
X3.35Y-5.1
X3.4Y-5.1
X4.0Y-3.3
X4.05Y-3.3
X4.55Y-5.7
X4.6Y-5.7
X4.55Y-2.7
X4.6Y-2.7
X5.2Y-2.1
X5.25Y-2.1
X4.875Y-4.5
X4.925Y-4.5
X3.675Y-2.7
X3.725Y-2.7
X4.875Y-2.1
X4.925Y-2.1
X3.35Y-4.5
X3.4Y-4.5
X4.0Y-3.9
X4.05Y-3.9
X5.2Y-5.1
X5.25Y-5.1
X4.875Y-3.9
X4.925Y-3.9
X3.675Y-3.3
X3.725Y-3.3
X3.675Y-2.1
X3.725Y-2.1
X4.0Y-2.1
X4.05Y-2.1
X3.35Y-3.3
X3.4Y-3.3
X4.55Y-5.1
X4.6Y-5.1
X3.35Y-2.1
X3.4Y-2.1
X4.875Y-5.1
X4.925Y-5.1
X5.2Y-2.7
X5.25Y-2.7
X4.55Y-3.9
X4.6Y-3.9
X3.675Y-3.9
X3.725Y-3.9
X5.2Y-3.9
X5.25Y-3.9
X5.2Y-5.7
X5.25Y-5.7
X5.2Y-3.3
X5.25Y-3.3
X4.875Y-2.7
X4.925Y-2.7
X4.0Y-5.7
X4.05Y-5.7
X4.0Y-4.5
X4.05Y-4.5
X4.0Y-5.1
X4.05Y-5.1
X5.2Y-4.5
X5.25Y-4.5
X3.35Y-2.7
X3.4Y-2.7
X4.55Y-2.1
X4.6Y-2.1
X4.875Y-5.7
X4.925Y-5.7
X4.875Y-3.3
X4.925Y-3.3
X3.675Y-5.7
X3.725Y-5.7
X3.675Y-4.5
X3.725Y-4.5
X3.35Y-3.9
X3.4Y-3.9
X4.55Y-4.5
X4.6Y-4.5
X4.0Y-2.7
X4.05Y-2.7
X4.55Y-3.3
X4.6Y-3.3
T3
X4.125Y-3.75
X4.225Y-3.75
X4.325Y-3.75
X4.425Y-3.75
X4.525Y-3.75
T0
M30
