G04 #@! TF.GenerationSoftware,KiCad,Pcbnew,(5.1.5)-3*
G04 #@! TF.CreationDate,2020-03-07T08:42:07-06:00*
G04 #@! TF.ProjectId,DSKY_alarm,44534b59-5f61-46c6-9172-6d2e6b696361,4*
G04 #@! TF.SameCoordinates,Original*
G04 #@! TF.FileFunction,Soldermask,Bot*
G04 #@! TF.FilePolarity,Negative*
%FSLAX46Y46*%
G04 Gerber Fmt 4.6, Leading zero omitted, Abs format (unit mm)*
G04 Created by KiCad (PCBNEW (5.1.5)-3) date 2020-03-07 08:42:07*
%MOMM*%
%LPD*%
G04 APERTURE LIST*
%ADD10C,0.010000*%
%ADD11C,0.100000*%
G04 APERTURE END LIST*
D10*
G36*
X107964660Y-139830000D02*
G01*
X110470000Y-139830000D01*
X110470000Y-141342390D01*
X107964660Y-141342390D01*
X107964660Y-139830000D01*
G37*
X107964660Y-139830000D02*
X110470000Y-139830000D01*
X110470000Y-141342390D01*
X107964660Y-141342390D01*
X107964660Y-139830000D01*
G36*
X110907220Y-137680000D02*
G01*
X113145000Y-137680000D01*
X113145000Y-139185470D01*
X110907220Y-139185470D01*
X110907220Y-137680000D01*
G37*
X110907220Y-137680000D02*
X113145000Y-137680000D01*
X113145000Y-139185470D01*
X110907220Y-139185470D01*
X110907220Y-137680000D01*
G36*
X105273990Y-137680000D02*
G01*
X107545000Y-137680000D01*
X107545000Y-139184013D01*
X105273990Y-139184013D01*
X105273990Y-137680000D01*
G37*
X105273990Y-137680000D02*
X107545000Y-137680000D01*
X107545000Y-139184013D01*
X105273990Y-139184013D01*
X105273990Y-137680000D01*
D11*
G36*
X85541000Y-145831000D02*
G01*
X84639000Y-145831000D01*
X84639000Y-143729000D01*
X85541000Y-143729000D01*
X85541000Y-145831000D01*
G37*
G36*
X133801000Y-145831000D02*
G01*
X132899000Y-145831000D01*
X132899000Y-143729000D01*
X133801000Y-143729000D01*
X133801000Y-145831000D01*
G37*
G36*
X132531000Y-145831000D02*
G01*
X131629000Y-145831000D01*
X131629000Y-143729000D01*
X132531000Y-143729000D01*
X132531000Y-145831000D01*
G37*
G36*
X125546000Y-145831000D02*
G01*
X124644000Y-145831000D01*
X124644000Y-143729000D01*
X125546000Y-143729000D01*
X125546000Y-145831000D01*
G37*
G36*
X124276000Y-145831000D02*
G01*
X123374000Y-145831000D01*
X123374000Y-143729000D01*
X124276000Y-143729000D01*
X124276000Y-145831000D01*
G37*
G36*
X117291000Y-145831000D02*
G01*
X116389000Y-145831000D01*
X116389000Y-143729000D01*
X117291000Y-143729000D01*
X117291000Y-145831000D01*
G37*
G36*
X116021000Y-145831000D02*
G01*
X115119000Y-145831000D01*
X115119000Y-143729000D01*
X116021000Y-143729000D01*
X116021000Y-145831000D01*
G37*
G36*
X103321000Y-145831000D02*
G01*
X102419000Y-145831000D01*
X102419000Y-143729000D01*
X103321000Y-143729000D01*
X103321000Y-145831000D01*
G37*
G36*
X102051000Y-145831000D02*
G01*
X101149000Y-145831000D01*
X101149000Y-143729000D01*
X102051000Y-143729000D01*
X102051000Y-145831000D01*
G37*
G36*
X95066000Y-145831000D02*
G01*
X94164000Y-145831000D01*
X94164000Y-143729000D01*
X95066000Y-143729000D01*
X95066000Y-145831000D01*
G37*
G36*
X93796000Y-145831000D02*
G01*
X92894000Y-145831000D01*
X92894000Y-143729000D01*
X93796000Y-143729000D01*
X93796000Y-145831000D01*
G37*
G36*
X86811000Y-145831000D02*
G01*
X85909000Y-145831000D01*
X85909000Y-143729000D01*
X86811000Y-143729000D01*
X86811000Y-145831000D01*
G37*
G36*
X109307797Y-140290567D02*
G01*
X109362575Y-140313257D01*
X109362577Y-140313258D01*
X109411876Y-140346198D01*
X109453802Y-140388124D01*
X109486742Y-140437423D01*
X109486743Y-140437425D01*
X109509433Y-140492203D01*
X109521000Y-140550353D01*
X109521000Y-140609647D01*
X109509433Y-140667797D01*
X109486743Y-140722575D01*
X109486742Y-140722577D01*
X109453802Y-140771876D01*
X109411876Y-140813802D01*
X109362577Y-140846742D01*
X109362576Y-140846743D01*
X109362575Y-140846743D01*
X109307797Y-140869433D01*
X109249647Y-140881000D01*
X109190353Y-140881000D01*
X109132203Y-140869433D01*
X109077425Y-140846743D01*
X109077424Y-140846743D01*
X109077423Y-140846742D01*
X109028124Y-140813802D01*
X108986198Y-140771876D01*
X108953258Y-140722577D01*
X108953257Y-140722575D01*
X108930567Y-140667797D01*
X108919000Y-140609647D01*
X108919000Y-140550353D01*
X108930567Y-140492203D01*
X108953257Y-140437425D01*
X108953258Y-140437423D01*
X108986198Y-140388124D01*
X109028124Y-140346198D01*
X109077423Y-140313258D01*
X109077425Y-140313257D01*
X109132203Y-140290567D01*
X109190353Y-140279000D01*
X109249647Y-140279000D01*
X109307797Y-140290567D01*
G37*
G36*
X112107797Y-138140567D02*
G01*
X112162575Y-138163257D01*
X112162577Y-138163258D01*
X112211876Y-138196198D01*
X112253802Y-138238124D01*
X112286742Y-138287423D01*
X112286743Y-138287425D01*
X112309433Y-138342203D01*
X112321000Y-138400353D01*
X112321000Y-138459647D01*
X112309433Y-138517797D01*
X112286743Y-138572575D01*
X112286742Y-138572577D01*
X112253802Y-138621876D01*
X112211876Y-138663802D01*
X112162577Y-138696742D01*
X112162576Y-138696743D01*
X112162575Y-138696743D01*
X112107797Y-138719433D01*
X112049647Y-138731000D01*
X111990353Y-138731000D01*
X111932203Y-138719433D01*
X111877425Y-138696743D01*
X111877424Y-138696743D01*
X111877423Y-138696742D01*
X111828124Y-138663802D01*
X111786198Y-138621876D01*
X111753258Y-138572577D01*
X111753257Y-138572575D01*
X111730567Y-138517797D01*
X111719000Y-138459647D01*
X111719000Y-138400353D01*
X111730567Y-138342203D01*
X111753257Y-138287425D01*
X111753258Y-138287423D01*
X111786198Y-138238124D01*
X111828124Y-138196198D01*
X111877423Y-138163258D01*
X111877425Y-138163257D01*
X111932203Y-138140567D01*
X111990353Y-138129000D01*
X112049647Y-138129000D01*
X112107797Y-138140567D01*
G37*
G36*
X106507797Y-138140567D02*
G01*
X106562575Y-138163257D01*
X106562577Y-138163258D01*
X106611876Y-138196198D01*
X106653802Y-138238124D01*
X106686742Y-138287423D01*
X106686743Y-138287425D01*
X106709433Y-138342203D01*
X106721000Y-138400353D01*
X106721000Y-138459647D01*
X106709433Y-138517797D01*
X106686743Y-138572575D01*
X106686742Y-138572577D01*
X106653802Y-138621876D01*
X106611876Y-138663802D01*
X106562577Y-138696742D01*
X106562576Y-138696743D01*
X106562575Y-138696743D01*
X106507797Y-138719433D01*
X106449647Y-138731000D01*
X106390353Y-138731000D01*
X106332203Y-138719433D01*
X106277425Y-138696743D01*
X106277424Y-138696743D01*
X106277423Y-138696742D01*
X106228124Y-138663802D01*
X106186198Y-138621876D01*
X106153258Y-138572577D01*
X106153257Y-138572575D01*
X106130567Y-138517797D01*
X106119000Y-138459647D01*
X106119000Y-138400353D01*
X106130567Y-138342203D01*
X106153257Y-138287425D01*
X106153258Y-138287423D01*
X106186198Y-138238124D01*
X106228124Y-138196198D01*
X106277423Y-138163258D01*
X106277425Y-138163257D01*
X106332203Y-138140567D01*
X106390353Y-138129000D01*
X106449647Y-138129000D01*
X106507797Y-138140567D01*
G37*
G36*
X85541000Y-130591000D02*
G01*
X84639000Y-130591000D01*
X84639000Y-128489000D01*
X85541000Y-128489000D01*
X85541000Y-130591000D01*
G37*
G36*
X133801000Y-130591000D02*
G01*
X132899000Y-130591000D01*
X132899000Y-128489000D01*
X133801000Y-128489000D01*
X133801000Y-130591000D01*
G37*
G36*
X132531000Y-130591000D02*
G01*
X131629000Y-130591000D01*
X131629000Y-128489000D01*
X132531000Y-128489000D01*
X132531000Y-130591000D01*
G37*
G36*
X125546000Y-130591000D02*
G01*
X124644000Y-130591000D01*
X124644000Y-128489000D01*
X125546000Y-128489000D01*
X125546000Y-130591000D01*
G37*
G36*
X86811000Y-130591000D02*
G01*
X85909000Y-130591000D01*
X85909000Y-128489000D01*
X86811000Y-128489000D01*
X86811000Y-130591000D01*
G37*
G36*
X124276000Y-130591000D02*
G01*
X123374000Y-130591000D01*
X123374000Y-128489000D01*
X124276000Y-128489000D01*
X124276000Y-130591000D01*
G37*
G36*
X117291000Y-130591000D02*
G01*
X116389000Y-130591000D01*
X116389000Y-128489000D01*
X117291000Y-128489000D01*
X117291000Y-130591000D01*
G37*
G36*
X116021000Y-130591000D02*
G01*
X115119000Y-130591000D01*
X115119000Y-128489000D01*
X116021000Y-128489000D01*
X116021000Y-130591000D01*
G37*
G36*
X103321000Y-130591000D02*
G01*
X102419000Y-130591000D01*
X102419000Y-128489000D01*
X103321000Y-128489000D01*
X103321000Y-130591000D01*
G37*
G36*
X95066000Y-130591000D02*
G01*
X94164000Y-130591000D01*
X94164000Y-128489000D01*
X95066000Y-128489000D01*
X95066000Y-130591000D01*
G37*
G36*
X93796000Y-130591000D02*
G01*
X92894000Y-130591000D01*
X92894000Y-128489000D01*
X93796000Y-128489000D01*
X93796000Y-130591000D01*
G37*
G36*
X102051000Y-130591000D02*
G01*
X101149000Y-130591000D01*
X101149000Y-128489000D01*
X102051000Y-128489000D01*
X102051000Y-130591000D01*
G37*
G36*
X124276000Y-115351000D02*
G01*
X123374000Y-115351000D01*
X123374000Y-113249000D01*
X124276000Y-113249000D01*
X124276000Y-115351000D01*
G37*
G36*
X85541000Y-115351000D02*
G01*
X84639000Y-115351000D01*
X84639000Y-113249000D01*
X85541000Y-113249000D01*
X85541000Y-115351000D01*
G37*
G36*
X86811000Y-115351000D02*
G01*
X85909000Y-115351000D01*
X85909000Y-113249000D01*
X86811000Y-113249000D01*
X86811000Y-115351000D01*
G37*
G36*
X95066000Y-115351000D02*
G01*
X94164000Y-115351000D01*
X94164000Y-113249000D01*
X95066000Y-113249000D01*
X95066000Y-115351000D01*
G37*
G36*
X102051000Y-115351000D02*
G01*
X101149000Y-115351000D01*
X101149000Y-113249000D01*
X102051000Y-113249000D01*
X102051000Y-115351000D01*
G37*
G36*
X103321000Y-115351000D02*
G01*
X102419000Y-115351000D01*
X102419000Y-113249000D01*
X103321000Y-113249000D01*
X103321000Y-115351000D01*
G37*
G36*
X116021000Y-115351000D02*
G01*
X115119000Y-115351000D01*
X115119000Y-113249000D01*
X116021000Y-113249000D01*
X116021000Y-115351000D01*
G37*
G36*
X117291000Y-115351000D02*
G01*
X116389000Y-115351000D01*
X116389000Y-113249000D01*
X117291000Y-113249000D01*
X117291000Y-115351000D01*
G37*
G36*
X125546000Y-115351000D02*
G01*
X124644000Y-115351000D01*
X124644000Y-113249000D01*
X125546000Y-113249000D01*
X125546000Y-115351000D01*
G37*
G36*
X132531000Y-115351000D02*
G01*
X131629000Y-115351000D01*
X131629000Y-113249000D01*
X132531000Y-113249000D01*
X132531000Y-115351000D01*
G37*
G36*
X133801000Y-115351000D02*
G01*
X132899000Y-115351000D01*
X132899000Y-113249000D01*
X133801000Y-113249000D01*
X133801000Y-115351000D01*
G37*
G36*
X93796000Y-115351000D02*
G01*
X92894000Y-115351000D01*
X92894000Y-113249000D01*
X93796000Y-113249000D01*
X93796000Y-115351000D01*
G37*
G36*
X103321000Y-100111000D02*
G01*
X102419000Y-100111000D01*
X102419000Y-98009000D01*
X103321000Y-98009000D01*
X103321000Y-100111000D01*
G37*
G36*
X95066000Y-100111000D02*
G01*
X94164000Y-100111000D01*
X94164000Y-98009000D01*
X95066000Y-98009000D01*
X95066000Y-100111000D01*
G37*
G36*
X93796000Y-100111000D02*
G01*
X92894000Y-100111000D01*
X92894000Y-98009000D01*
X93796000Y-98009000D01*
X93796000Y-100111000D01*
G37*
G36*
X86811000Y-100111000D02*
G01*
X85909000Y-100111000D01*
X85909000Y-98009000D01*
X86811000Y-98009000D01*
X86811000Y-100111000D01*
G37*
G36*
X85541000Y-100111000D02*
G01*
X84639000Y-100111000D01*
X84639000Y-98009000D01*
X85541000Y-98009000D01*
X85541000Y-100111000D01*
G37*
G36*
X102051000Y-100111000D02*
G01*
X101149000Y-100111000D01*
X101149000Y-98009000D01*
X102051000Y-98009000D01*
X102051000Y-100111000D01*
G37*
G36*
X117291000Y-100111000D02*
G01*
X116389000Y-100111000D01*
X116389000Y-98009000D01*
X117291000Y-98009000D01*
X117291000Y-100111000D01*
G37*
G36*
X124276000Y-100111000D02*
G01*
X123374000Y-100111000D01*
X123374000Y-98009000D01*
X124276000Y-98009000D01*
X124276000Y-100111000D01*
G37*
G36*
X125546000Y-100111000D02*
G01*
X124644000Y-100111000D01*
X124644000Y-98009000D01*
X125546000Y-98009000D01*
X125546000Y-100111000D01*
G37*
G36*
X132531000Y-100111000D02*
G01*
X131629000Y-100111000D01*
X131629000Y-98009000D01*
X132531000Y-98009000D01*
X132531000Y-100111000D01*
G37*
G36*
X133801000Y-100111000D02*
G01*
X132899000Y-100111000D01*
X132899000Y-98009000D01*
X133801000Y-98009000D01*
X133801000Y-100111000D01*
G37*
G36*
X116021000Y-100111000D02*
G01*
X115119000Y-100111000D01*
X115119000Y-98009000D01*
X116021000Y-98009000D01*
X116021000Y-100111000D01*
G37*
G36*
X107545926Y-94260029D02*
G01*
X107611356Y-94273044D01*
X107796256Y-94349632D01*
X107962662Y-94460821D01*
X108104179Y-94602338D01*
X108215368Y-94768744D01*
X108291956Y-94953644D01*
X108331000Y-95149933D01*
X108331000Y-95350067D01*
X108291956Y-95546356D01*
X108215368Y-95731256D01*
X108104179Y-95897662D01*
X107962662Y-96039179D01*
X107796256Y-96150368D01*
X107611356Y-96226956D01*
X107545926Y-96239971D01*
X107415069Y-96266000D01*
X107214931Y-96266000D01*
X107084074Y-96239971D01*
X107018644Y-96226956D01*
X106833744Y-96150368D01*
X106667338Y-96039179D01*
X106525821Y-95897662D01*
X106414632Y-95731256D01*
X106338044Y-95546356D01*
X106299000Y-95350067D01*
X106299000Y-95149933D01*
X106338044Y-94953644D01*
X106414632Y-94768744D01*
X106525821Y-94602338D01*
X106667338Y-94460821D01*
X106833744Y-94349632D01*
X107018644Y-94273044D01*
X107084074Y-94260029D01*
X107214931Y-94234000D01*
X107415069Y-94234000D01*
X107545926Y-94260029D01*
G37*
G36*
X112625926Y-94260029D02*
G01*
X112691356Y-94273044D01*
X112876256Y-94349632D01*
X113042662Y-94460821D01*
X113184179Y-94602338D01*
X113295368Y-94768744D01*
X113371956Y-94953644D01*
X113411000Y-95149933D01*
X113411000Y-95350067D01*
X113371956Y-95546356D01*
X113295368Y-95731256D01*
X113184179Y-95897662D01*
X113042662Y-96039179D01*
X112876256Y-96150368D01*
X112691356Y-96226956D01*
X112625926Y-96239971D01*
X112495069Y-96266000D01*
X112294931Y-96266000D01*
X112164074Y-96239971D01*
X112098644Y-96226956D01*
X111913744Y-96150368D01*
X111747338Y-96039179D01*
X111605821Y-95897662D01*
X111494632Y-95731256D01*
X111418044Y-95546356D01*
X111379000Y-95350067D01*
X111379000Y-95149933D01*
X111418044Y-94953644D01*
X111494632Y-94768744D01*
X111605821Y-94602338D01*
X111747338Y-94460821D01*
X111913744Y-94349632D01*
X112098644Y-94273044D01*
X112164074Y-94260029D01*
X112294931Y-94234000D01*
X112495069Y-94234000D01*
X112625926Y-94260029D01*
G37*
G36*
X105005926Y-94260029D02*
G01*
X105071356Y-94273044D01*
X105256256Y-94349632D01*
X105422662Y-94460821D01*
X105564179Y-94602338D01*
X105675368Y-94768744D01*
X105751956Y-94953644D01*
X105791000Y-95149933D01*
X105791000Y-95350067D01*
X105751956Y-95546356D01*
X105675368Y-95731256D01*
X105564179Y-95897662D01*
X105422662Y-96039179D01*
X105256256Y-96150368D01*
X105071356Y-96226956D01*
X105005926Y-96239971D01*
X104875069Y-96266000D01*
X104674931Y-96266000D01*
X104544074Y-96239971D01*
X104478644Y-96226956D01*
X104293744Y-96150368D01*
X104127338Y-96039179D01*
X103985821Y-95897662D01*
X103874632Y-95731256D01*
X103798044Y-95546356D01*
X103759000Y-95350067D01*
X103759000Y-95149933D01*
X103798044Y-94953644D01*
X103874632Y-94768744D01*
X103985821Y-94602338D01*
X104127338Y-94460821D01*
X104293744Y-94349632D01*
X104478644Y-94273044D01*
X104544074Y-94260029D01*
X104674931Y-94234000D01*
X104875069Y-94234000D01*
X105005926Y-94260029D01*
G37*
G36*
X115165926Y-94260029D02*
G01*
X115231356Y-94273044D01*
X115416256Y-94349632D01*
X115582662Y-94460821D01*
X115724179Y-94602338D01*
X115835368Y-94768744D01*
X115911956Y-94953644D01*
X115951000Y-95149933D01*
X115951000Y-95350067D01*
X115911956Y-95546356D01*
X115835368Y-95731256D01*
X115724179Y-95897662D01*
X115582662Y-96039179D01*
X115416256Y-96150368D01*
X115231356Y-96226956D01*
X115165926Y-96239971D01*
X115035069Y-96266000D01*
X114834931Y-96266000D01*
X114704074Y-96239971D01*
X114638644Y-96226956D01*
X114453744Y-96150368D01*
X114287338Y-96039179D01*
X114145821Y-95897662D01*
X114034632Y-95731256D01*
X113958044Y-95546356D01*
X113919000Y-95350067D01*
X113919000Y-95149933D01*
X113958044Y-94953644D01*
X114034632Y-94768744D01*
X114145821Y-94602338D01*
X114287338Y-94460821D01*
X114453744Y-94349632D01*
X114638644Y-94273044D01*
X114704074Y-94260029D01*
X114834931Y-94234000D01*
X115035069Y-94234000D01*
X115165926Y-94260029D01*
G37*
G36*
X110085926Y-94260029D02*
G01*
X110151356Y-94273044D01*
X110336256Y-94349632D01*
X110502662Y-94460821D01*
X110644179Y-94602338D01*
X110755368Y-94768744D01*
X110831956Y-94953644D01*
X110871000Y-95149933D01*
X110871000Y-95350067D01*
X110831956Y-95546356D01*
X110755368Y-95731256D01*
X110644179Y-95897662D01*
X110502662Y-96039179D01*
X110336256Y-96150368D01*
X110151356Y-96226956D01*
X110085926Y-96239971D01*
X109955069Y-96266000D01*
X109754931Y-96266000D01*
X109624074Y-96239971D01*
X109558644Y-96226956D01*
X109373744Y-96150368D01*
X109207338Y-96039179D01*
X109065821Y-95897662D01*
X108954632Y-95731256D01*
X108878044Y-95546356D01*
X108839000Y-95350067D01*
X108839000Y-95149933D01*
X108878044Y-94953644D01*
X108954632Y-94768744D01*
X109065821Y-94602338D01*
X109207338Y-94460821D01*
X109373744Y-94349632D01*
X109558644Y-94273044D01*
X109624074Y-94260029D01*
X109754931Y-94234000D01*
X109955069Y-94234000D01*
X110085926Y-94260029D01*
G37*
G36*
X95066000Y-84871000D02*
G01*
X94164000Y-84871000D01*
X94164000Y-82769000D01*
X95066000Y-82769000D01*
X95066000Y-84871000D01*
G37*
G36*
X133801000Y-84871000D02*
G01*
X132899000Y-84871000D01*
X132899000Y-82769000D01*
X133801000Y-82769000D01*
X133801000Y-84871000D01*
G37*
G36*
X132531000Y-84871000D02*
G01*
X131629000Y-84871000D01*
X131629000Y-82769000D01*
X132531000Y-82769000D01*
X132531000Y-84871000D01*
G37*
G36*
X125546000Y-84871000D02*
G01*
X124644000Y-84871000D01*
X124644000Y-82769000D01*
X125546000Y-82769000D01*
X125546000Y-84871000D01*
G37*
G36*
X124276000Y-84871000D02*
G01*
X123374000Y-84871000D01*
X123374000Y-82769000D01*
X124276000Y-82769000D01*
X124276000Y-84871000D01*
G37*
G36*
X117291000Y-84871000D02*
G01*
X116389000Y-84871000D01*
X116389000Y-82769000D01*
X117291000Y-82769000D01*
X117291000Y-84871000D01*
G37*
G36*
X116021000Y-84871000D02*
G01*
X115119000Y-84871000D01*
X115119000Y-82769000D01*
X116021000Y-82769000D01*
X116021000Y-84871000D01*
G37*
G36*
X103321000Y-84871000D02*
G01*
X102419000Y-84871000D01*
X102419000Y-82769000D01*
X103321000Y-82769000D01*
X103321000Y-84871000D01*
G37*
G36*
X102051000Y-84871000D02*
G01*
X101149000Y-84871000D01*
X101149000Y-82769000D01*
X102051000Y-82769000D01*
X102051000Y-84871000D01*
G37*
G36*
X93796000Y-84871000D02*
G01*
X92894000Y-84871000D01*
X92894000Y-82769000D01*
X93796000Y-82769000D01*
X93796000Y-84871000D01*
G37*
G36*
X86811000Y-84871000D02*
G01*
X85909000Y-84871000D01*
X85909000Y-82769000D01*
X86811000Y-82769000D01*
X86811000Y-84871000D01*
G37*
G36*
X85541000Y-84871000D02*
G01*
X84639000Y-84871000D01*
X84639000Y-82769000D01*
X85541000Y-82769000D01*
X85541000Y-84871000D01*
G37*
G36*
X95066000Y-69631000D02*
G01*
X94164000Y-69631000D01*
X94164000Y-67529000D01*
X95066000Y-67529000D01*
X95066000Y-69631000D01*
G37*
G36*
X102051000Y-69631000D02*
G01*
X101149000Y-69631000D01*
X101149000Y-67529000D01*
X102051000Y-67529000D01*
X102051000Y-69631000D01*
G37*
G36*
X133801000Y-69631000D02*
G01*
X132899000Y-69631000D01*
X132899000Y-67529000D01*
X133801000Y-67529000D01*
X133801000Y-69631000D01*
G37*
G36*
X132531000Y-69631000D02*
G01*
X131629000Y-69631000D01*
X131629000Y-67529000D01*
X132531000Y-67529000D01*
X132531000Y-69631000D01*
G37*
G36*
X125546000Y-69631000D02*
G01*
X124644000Y-69631000D01*
X124644000Y-67529000D01*
X125546000Y-67529000D01*
X125546000Y-69631000D01*
G37*
G36*
X124276000Y-69631000D02*
G01*
X123374000Y-69631000D01*
X123374000Y-67529000D01*
X124276000Y-67529000D01*
X124276000Y-69631000D01*
G37*
G36*
X116021000Y-69631000D02*
G01*
X115119000Y-69631000D01*
X115119000Y-67529000D01*
X116021000Y-67529000D01*
X116021000Y-69631000D01*
G37*
G36*
X85541000Y-69631000D02*
G01*
X84639000Y-69631000D01*
X84639000Y-67529000D01*
X85541000Y-67529000D01*
X85541000Y-69631000D01*
G37*
G36*
X86811000Y-69631000D02*
G01*
X85909000Y-69631000D01*
X85909000Y-67529000D01*
X86811000Y-67529000D01*
X86811000Y-69631000D01*
G37*
G36*
X93796000Y-69631000D02*
G01*
X92894000Y-69631000D01*
X92894000Y-67529000D01*
X93796000Y-67529000D01*
X93796000Y-69631000D01*
G37*
G36*
X103321000Y-69631000D02*
G01*
X102419000Y-69631000D01*
X102419000Y-67529000D01*
X103321000Y-67529000D01*
X103321000Y-69631000D01*
G37*
G36*
X117291000Y-69631000D02*
G01*
X116389000Y-69631000D01*
X116389000Y-67529000D01*
X117291000Y-67529000D01*
X117291000Y-69631000D01*
G37*
G36*
X86811000Y-54391000D02*
G01*
X85909000Y-54391000D01*
X85909000Y-52289000D01*
X86811000Y-52289000D01*
X86811000Y-54391000D01*
G37*
G36*
X133801000Y-54391000D02*
G01*
X132899000Y-54391000D01*
X132899000Y-52289000D01*
X133801000Y-52289000D01*
X133801000Y-54391000D01*
G37*
G36*
X132531000Y-54391000D02*
G01*
X131629000Y-54391000D01*
X131629000Y-52289000D01*
X132531000Y-52289000D01*
X132531000Y-54391000D01*
G37*
G36*
X95066000Y-54391000D02*
G01*
X94164000Y-54391000D01*
X94164000Y-52289000D01*
X95066000Y-52289000D01*
X95066000Y-54391000D01*
G37*
G36*
X85541000Y-54391000D02*
G01*
X84639000Y-54391000D01*
X84639000Y-52289000D01*
X85541000Y-52289000D01*
X85541000Y-54391000D01*
G37*
G36*
X93796000Y-54391000D02*
G01*
X92894000Y-54391000D01*
X92894000Y-52289000D01*
X93796000Y-52289000D01*
X93796000Y-54391000D01*
G37*
G36*
X125546000Y-54391000D02*
G01*
X124644000Y-54391000D01*
X124644000Y-52289000D01*
X125546000Y-52289000D01*
X125546000Y-54391000D01*
G37*
G36*
X124276000Y-54391000D02*
G01*
X123374000Y-54391000D01*
X123374000Y-52289000D01*
X124276000Y-52289000D01*
X124276000Y-54391000D01*
G37*
G36*
X103321000Y-54391000D02*
G01*
X102419000Y-54391000D01*
X102419000Y-52289000D01*
X103321000Y-52289000D01*
X103321000Y-54391000D01*
G37*
G36*
X117291000Y-54391000D02*
G01*
X116389000Y-54391000D01*
X116389000Y-52289000D01*
X117291000Y-52289000D01*
X117291000Y-54391000D01*
G37*
G36*
X116021000Y-54391000D02*
G01*
X115119000Y-54391000D01*
X115119000Y-52289000D01*
X116021000Y-52289000D01*
X116021000Y-54391000D01*
G37*
G36*
X102051000Y-54391000D02*
G01*
X101149000Y-54391000D01*
X101149000Y-52289000D01*
X102051000Y-52289000D01*
X102051000Y-54391000D01*
G37*
M02*
