G04 #@! TF.GenerationSoftware,KiCad,Pcbnew,(5.1.5)-3*
G04 #@! TF.CreationDate,2020-03-07T08:42:06-06:00*
G04 #@! TF.ProjectId,DSKY_alarm,44534b59-5f61-46c6-9172-6d2e6b696361,4*
G04 #@! TF.SameCoordinates,Original*
G04 #@! TF.FileFunction,Copper,L3,Inr*
G04 #@! TF.FilePolarity,Positive*
%FSLAX46Y46*%
G04 Gerber Fmt 4.6, Leading zero omitted, Abs format (unit mm)*
G04 Created by KiCad (PCBNEW (5.1.5)-3) date 2020-03-07 08:42:06*
%MOMM*%
%LPD*%
G04 APERTURE LIST*
%ADD10R,0.800000X2.000000*%
%ADD11C,1.930400*%
%ADD12C,0.800000*%
%ADD13C,0.250000*%
%ADD14C,1.041400*%
G04 APERTURE END LIST*
D10*
X85090000Y-144780000D03*
X86360000Y-144780000D03*
X93345000Y-144780000D03*
X94615000Y-144780000D03*
X101600000Y-144780000D03*
X102870000Y-144780000D03*
X85090000Y-129540000D03*
X86360000Y-129540000D03*
X93345000Y-129540000D03*
X94615000Y-129540000D03*
X101600000Y-129540000D03*
X102870000Y-129540000D03*
X85090000Y-114300000D03*
X86360000Y-114300000D03*
X93345000Y-114300000D03*
X94615000Y-114300000D03*
X101600000Y-114300000D03*
X102870000Y-114300000D03*
X85090000Y-99060000D03*
X86360000Y-99060000D03*
X93345000Y-99060000D03*
X94615000Y-99060000D03*
X101600000Y-99060000D03*
X102870000Y-99060000D03*
X85090000Y-83820000D03*
X86360000Y-83820000D03*
X93345000Y-83820000D03*
X94615000Y-83820000D03*
X101600000Y-83820000D03*
X102870000Y-83820000D03*
X85090000Y-68580000D03*
X86360000Y-68580000D03*
X93345000Y-68580000D03*
X94615000Y-68580000D03*
X101600000Y-68580000D03*
X102870000Y-68580000D03*
X115570000Y-144780000D03*
X116840000Y-144780000D03*
X123825000Y-144780000D03*
X125095000Y-144780000D03*
X132080000Y-144780000D03*
X133350000Y-144780000D03*
X115570000Y-129540000D03*
X116840000Y-129540000D03*
X123825000Y-129540000D03*
X125095000Y-129540000D03*
X132080000Y-129540000D03*
X133350000Y-129540000D03*
X115570000Y-114300000D03*
X116840000Y-114300000D03*
X123825000Y-114300000D03*
X125095000Y-114300000D03*
X132080000Y-114300000D03*
X133350000Y-114300000D03*
X115570000Y-99060000D03*
X116840000Y-99060000D03*
X123825000Y-99060000D03*
X125095000Y-99060000D03*
X132080000Y-99060000D03*
X133350000Y-99060000D03*
X115570000Y-83820000D03*
X116840000Y-83820000D03*
X123825000Y-83820000D03*
X125095000Y-83820000D03*
X132080000Y-83820000D03*
X133350000Y-83820000D03*
X115570000Y-68580000D03*
X116840000Y-68580000D03*
X123825000Y-68580000D03*
X125095000Y-68580000D03*
X132080000Y-68580000D03*
X133350000Y-68580000D03*
X85090000Y-53340000D03*
X86360000Y-53340000D03*
X93345000Y-53340000D03*
X94615000Y-53340000D03*
X101600000Y-53340000D03*
X102870000Y-53340000D03*
X115570000Y-53340000D03*
X116840000Y-53340000D03*
X123825000Y-53340000D03*
X125095000Y-53340000D03*
X132080000Y-53340000D03*
X133350000Y-53340000D03*
D11*
X114935000Y-95250000D03*
X112395000Y-95250000D03*
X109855000Y-95250000D03*
X107315000Y-95250000D03*
X104775000Y-95250000D03*
D12*
X96132300Y-96672400D03*
X105410000Y-125095000D03*
X112395000Y-125095000D03*
X107920000Y-136434900D03*
X122300000Y-129507600D03*
X122944100Y-74211700D03*
X89305900Y-96167000D03*
X115204100Y-93673700D03*
X114298500Y-76801100D03*
X135435100Y-72098900D03*
X125117300Y-107419100D03*
X111635700Y-109261300D03*
X84455000Y-107317500D03*
X113399500Y-106100800D03*
X112982300Y-107867200D03*
X88887100Y-108611900D03*
X100330000Y-105933800D03*
X107160700Y-103737200D03*
X108950600Y-104834500D03*
X93827500Y-60151400D03*
X110223100Y-109953900D03*
X115827800Y-132419200D03*
X109319300Y-107659100D03*
X123362400Y-122324700D03*
X107863100Y-110220300D03*
X107899700Y-106038300D03*
X125882500Y-112243000D03*
X98591800Y-68010400D03*
X109468400Y-106558200D03*
X123672500Y-94445500D03*
X111453100Y-102701000D03*
X121560100Y-88775200D03*
X117974300Y-103786800D03*
X111152300Y-106080500D03*
X119527500Y-106423500D03*
X122596600Y-62865000D03*
X112773600Y-104018300D03*
X123524400Y-60175300D03*
X90460300Y-59993800D03*
X104668900Y-119525900D03*
D13*
X122300000Y-129507600D02*
X122300000Y-101740500D01*
X122300000Y-101740500D02*
X122944100Y-101096400D01*
X122944100Y-101096400D02*
X122944100Y-74211700D01*
X114298500Y-76801100D02*
X114298500Y-92768100D01*
X114298500Y-92768100D02*
X115204100Y-93673700D01*
X112395000Y-95250000D02*
X108950700Y-98694300D01*
X108950700Y-98694300D02*
X108950700Y-104834500D01*
X108950700Y-104834500D02*
X108950600Y-104834500D01*
X93827500Y-60151400D02*
X97185100Y-63509000D01*
X97185100Y-63509000D02*
X97185100Y-96915900D01*
X97185100Y-96915900D02*
X110223100Y-109953900D01*
X109319300Y-107659100D02*
X109319300Y-107970600D01*
X109319300Y-107970600D02*
X114274000Y-112925300D01*
X114274000Y-112925300D02*
X114274000Y-130865400D01*
X114274000Y-130865400D02*
X115827800Y-132419200D01*
X109468400Y-106558200D02*
X108223200Y-105313000D01*
X108223200Y-105313000D02*
X107647800Y-105313000D01*
X107647800Y-105313000D02*
X105015400Y-102680600D01*
X105015400Y-102680600D02*
X105015400Y-97679000D01*
X105015400Y-97679000D02*
X98591800Y-91255400D01*
X98591800Y-91255400D02*
X98591800Y-68010400D01*
X121560100Y-88775200D02*
X121560100Y-100201000D01*
X121560100Y-100201000D02*
X117974300Y-103786800D01*
X119527500Y-106423500D02*
X119527500Y-103650800D01*
X119527500Y-103650800D02*
X122300000Y-100878300D01*
X122300000Y-100878300D02*
X122300000Y-74987900D01*
X122300000Y-74987900D02*
X122198700Y-74886600D01*
X122198700Y-74886600D02*
X122198700Y-63262900D01*
X122198700Y-63262900D02*
X122596600Y-62865000D01*
X123524400Y-60175300D02*
X119949400Y-63750300D01*
X119949400Y-63750300D02*
X119949400Y-92737700D01*
X119949400Y-92737700D02*
X112773600Y-99913500D01*
X112773600Y-99913500D02*
X112773600Y-104018300D01*
X101600000Y-129540000D02*
X101600000Y-122594800D01*
X101600000Y-122594800D02*
X104668900Y-119525900D01*
D14*
X116840000Y-129540000D02*
X116840000Y-131261000D01*
X116840000Y-144780000D02*
X116840000Y-143059000D01*
X116840000Y-143059000D02*
X116948800Y-142950200D01*
X116948800Y-142950200D02*
X116948800Y-131369800D01*
X116948800Y-131369800D02*
X116840000Y-131261000D01*
X116840000Y-68580000D02*
X116840000Y-82099000D01*
X94615000Y-129540000D02*
X94615000Y-144780000D01*
X94615000Y-114300000D02*
X94615000Y-129540000D01*
X94615000Y-99060000D02*
X94615000Y-114300000D01*
X94615000Y-83820000D02*
X94615000Y-99060000D01*
X86360000Y-83820000D02*
X86360000Y-68580000D01*
X94615000Y-68580000D02*
X94615000Y-83820000D01*
X102870000Y-83820000D02*
X102870000Y-93345000D01*
X102870000Y-93345000D02*
X104775000Y-95250000D01*
X102870000Y-68580000D02*
X102870000Y-83820000D01*
X102870000Y-53340000D02*
X102870000Y-68580000D01*
X86360000Y-53340000D02*
X86360000Y-68580000D01*
X116840000Y-114300000D02*
X116840000Y-129540000D01*
X125095000Y-129540000D02*
X125095000Y-144780000D01*
X125095000Y-114300000D02*
X125095000Y-129540000D01*
X133350000Y-129540000D02*
X133350000Y-144780000D01*
X133350000Y-114300000D02*
X133350000Y-129540000D01*
X116840000Y-99060000D02*
X116840000Y-114300000D01*
X133350000Y-99060000D02*
X133350000Y-114300000D01*
X133350000Y-83820000D02*
X133350000Y-99060000D01*
X125095000Y-83820000D02*
X125095000Y-99060000D01*
X125095000Y-68580000D02*
X125095000Y-83820000D01*
X133350000Y-68580000D02*
X133350000Y-83820000D01*
X116840000Y-83820000D02*
X116840000Y-82099000D01*
X116840000Y-55061000D02*
X116840000Y-68580000D01*
X125095000Y-53340000D02*
X125095000Y-68580000D01*
X133350000Y-53340000D02*
X133350000Y-68580000D01*
X116840000Y-53340000D02*
X116840000Y-55061000D01*
M02*
