G04 #@! TF.GenerationSoftware,KiCad,Pcbnew,(5.1.5)-3*
G04 #@! TF.CreationDate,2020-03-07T08:42:07-06:00*
G04 #@! TF.ProjectId,DSKY_alarm,44534b59-5f61-46c6-9172-6d2e6b696361,4*
G04 #@! TF.SameCoordinates,Original*
G04 #@! TF.FileFunction,Legend,Top*
G04 #@! TF.FilePolarity,Positive*
%FSLAX46Y46*%
G04 Gerber Fmt 4.6, Leading zero omitted, Abs format (unit mm)*
G04 Created by KiCad (PCBNEW (5.1.5)-3) date 2020-03-07 08:42:07*
%MOMM*%
%LPD*%
G04 APERTURE LIST*
%ADD10C,0.127000*%
%ADD11C,0.152400*%
%ADD12C,0.010000*%
%ADD13C,0.130000*%
%ADD14C,0.120000*%
%ADD15C,0.203200*%
%ADD16C,0.304800*%
%ADD17C,0.100000*%
%ADD18C,0.150000*%
%ADD19C,0.015000*%
%ADD20C,0.138988*%
%ADD21C,0.120650*%
%ADD22C,0.030886*%
G04 APERTURE END LIST*
D10*
X90337857Y-77922380D02*
X90337857Y-76922380D01*
X90575952Y-76922380D01*
X90718809Y-76970000D01*
X90814047Y-77065238D01*
X90861666Y-77160476D01*
X90909285Y-77350952D01*
X90909285Y-77493809D01*
X90861666Y-77684285D01*
X90814047Y-77779523D01*
X90718809Y-77874761D01*
X90575952Y-77922380D01*
X90337857Y-77922380D01*
X91718809Y-77874761D02*
X91623571Y-77922380D01*
X91433095Y-77922380D01*
X91337857Y-77874761D01*
X91290238Y-77779523D01*
X91290238Y-77398571D01*
X91337857Y-77303333D01*
X91433095Y-77255714D01*
X91623571Y-77255714D01*
X91718809Y-77303333D01*
X91766428Y-77398571D01*
X91766428Y-77493809D01*
X91290238Y-77589047D01*
X92147380Y-77874761D02*
X92242619Y-77922380D01*
X92433095Y-77922380D01*
X92528333Y-77874761D01*
X92575952Y-77779523D01*
X92575952Y-77731904D01*
X92528333Y-77636666D01*
X92433095Y-77589047D01*
X92290238Y-77589047D01*
X92195000Y-77541428D01*
X92147380Y-77446190D01*
X92147380Y-77398571D01*
X92195000Y-77303333D01*
X92290238Y-77255714D01*
X92433095Y-77255714D01*
X92528333Y-77303333D01*
X93004523Y-77922380D02*
X93004523Y-77255714D01*
X93004523Y-76922380D02*
X92956904Y-76970000D01*
X93004523Y-77017619D01*
X93052142Y-76970000D01*
X93004523Y-76922380D01*
X93004523Y-77017619D01*
X93909285Y-77255714D02*
X93909285Y-78065238D01*
X93861666Y-78160476D01*
X93814047Y-78208095D01*
X93718809Y-78255714D01*
X93575952Y-78255714D01*
X93480714Y-78208095D01*
X93909285Y-77874761D02*
X93814047Y-77922380D01*
X93623571Y-77922380D01*
X93528333Y-77874761D01*
X93480714Y-77827142D01*
X93433095Y-77731904D01*
X93433095Y-77446190D01*
X93480714Y-77350952D01*
X93528333Y-77303333D01*
X93623571Y-77255714D01*
X93814047Y-77255714D01*
X93909285Y-77303333D01*
X94385476Y-77255714D02*
X94385476Y-77922380D01*
X94385476Y-77350952D02*
X94433095Y-77303333D01*
X94528333Y-77255714D01*
X94671190Y-77255714D01*
X94766428Y-77303333D01*
X94814047Y-77398571D01*
X94814047Y-77922380D01*
X95671190Y-77874761D02*
X95575952Y-77922380D01*
X95385476Y-77922380D01*
X95290238Y-77874761D01*
X95242619Y-77779523D01*
X95242619Y-77398571D01*
X95290238Y-77303333D01*
X95385476Y-77255714D01*
X95575952Y-77255714D01*
X95671190Y-77303333D01*
X95718809Y-77398571D01*
X95718809Y-77493809D01*
X95242619Y-77589047D01*
X96575952Y-77922380D02*
X96575952Y-76922380D01*
X96575952Y-77874761D02*
X96480714Y-77922380D01*
X96290238Y-77922380D01*
X96195000Y-77874761D01*
X96147380Y-77827142D01*
X96099761Y-77731904D01*
X96099761Y-77446190D01*
X96147380Y-77350952D01*
X96195000Y-77303333D01*
X96290238Y-77255714D01*
X96480714Y-77255714D01*
X96575952Y-77303333D01*
X97814047Y-77922380D02*
X97814047Y-76922380D01*
X97814047Y-77303333D02*
X97909285Y-77255714D01*
X98099761Y-77255714D01*
X98195000Y-77303333D01*
X98242619Y-77350952D01*
X98290238Y-77446190D01*
X98290238Y-77731904D01*
X98242619Y-77827142D01*
X98195000Y-77874761D01*
X98099761Y-77922380D01*
X97909285Y-77922380D01*
X97814047Y-77874761D01*
X98623571Y-77255714D02*
X98861666Y-77922380D01*
X99099761Y-77255714D02*
X98861666Y-77922380D01*
X98766428Y-78160476D01*
X98718809Y-78208095D01*
X98623571Y-78255714D01*
X100814047Y-77922380D02*
X100480714Y-77446190D01*
X100242619Y-77922380D02*
X100242619Y-76922380D01*
X100623571Y-76922380D01*
X100718809Y-76970000D01*
X100766428Y-77017619D01*
X100814047Y-77112857D01*
X100814047Y-77255714D01*
X100766428Y-77350952D01*
X100718809Y-77398571D01*
X100623571Y-77446190D01*
X100242619Y-77446190D01*
X101242619Y-77922380D02*
X101242619Y-77255714D01*
X101242619Y-76922380D02*
X101195000Y-76970000D01*
X101242619Y-77017619D01*
X101290238Y-76970000D01*
X101242619Y-76922380D01*
X101242619Y-77017619D01*
X101861666Y-77922380D02*
X101766428Y-77874761D01*
X101718809Y-77779523D01*
X101718809Y-76922380D01*
X102623571Y-77874761D02*
X102528333Y-77922380D01*
X102337857Y-77922380D01*
X102242619Y-77874761D01*
X102195000Y-77779523D01*
X102195000Y-77398571D01*
X102242619Y-77303333D01*
X102337857Y-77255714D01*
X102528333Y-77255714D01*
X102623571Y-77303333D01*
X102671190Y-77398571D01*
X102671190Y-77493809D01*
X102195000Y-77589047D01*
X103004523Y-77255714D02*
X103242619Y-77922380D01*
X103480714Y-77255714D02*
X103242619Y-77922380D01*
X103147380Y-78160476D01*
X103099761Y-78208095D01*
X103004523Y-78255714D01*
X105195000Y-77922380D02*
X104861666Y-77446190D01*
X104623571Y-77922380D02*
X104623571Y-76922380D01*
X105004523Y-76922380D01*
X105099761Y-76970000D01*
X105147380Y-77017619D01*
X105195000Y-77112857D01*
X105195000Y-77255714D01*
X105147380Y-77350952D01*
X105099761Y-77398571D01*
X105004523Y-77446190D01*
X104623571Y-77446190D01*
X106052142Y-77922380D02*
X106052142Y-77398571D01*
X106004523Y-77303333D01*
X105909285Y-77255714D01*
X105718809Y-77255714D01*
X105623571Y-77303333D01*
X106052142Y-77874761D02*
X105956904Y-77922380D01*
X105718809Y-77922380D01*
X105623571Y-77874761D01*
X105575952Y-77779523D01*
X105575952Y-77684285D01*
X105623571Y-77589047D01*
X105718809Y-77541428D01*
X105956904Y-77541428D01*
X106052142Y-77493809D01*
X106528333Y-77922380D02*
X106528333Y-77255714D01*
X106528333Y-76922380D02*
X106480714Y-76970000D01*
X106528333Y-77017619D01*
X106575952Y-76970000D01*
X106528333Y-76922380D01*
X106528333Y-77017619D01*
X107004523Y-77255714D02*
X107004523Y-77922380D01*
X107004523Y-77350952D02*
X107052142Y-77303333D01*
X107147380Y-77255714D01*
X107290238Y-77255714D01*
X107385476Y-77303333D01*
X107433095Y-77398571D01*
X107433095Y-77922380D01*
X108290238Y-77874761D02*
X108195000Y-77922380D01*
X108004523Y-77922380D01*
X107909285Y-77874761D01*
X107861666Y-77779523D01*
X107861666Y-77398571D01*
X107909285Y-77303333D01*
X108004523Y-77255714D01*
X108195000Y-77255714D01*
X108290238Y-77303333D01*
X108337857Y-77398571D01*
X108337857Y-77493809D01*
X107861666Y-77589047D01*
X108671190Y-77255714D02*
X108909285Y-77922380D01*
X109147380Y-77255714D02*
X108909285Y-77922380D01*
X108814047Y-78160476D01*
X108766428Y-78208095D01*
X108671190Y-78255714D01*
D11*
X90541202Y-75447071D02*
X90541202Y-74304071D01*
X90813345Y-74304071D01*
X90976631Y-74358500D01*
X91085488Y-74467357D01*
X91139917Y-74576214D01*
X91194345Y-74793928D01*
X91194345Y-74957214D01*
X91139917Y-75174928D01*
X91085488Y-75283785D01*
X90976631Y-75392642D01*
X90813345Y-75447071D01*
X90541202Y-75447071D01*
X91629774Y-75392642D02*
X91793060Y-75447071D01*
X92065202Y-75447071D01*
X92174060Y-75392642D01*
X92228488Y-75338214D01*
X92282917Y-75229357D01*
X92282917Y-75120500D01*
X92228488Y-75011642D01*
X92174060Y-74957214D01*
X92065202Y-74902785D01*
X91847488Y-74848357D01*
X91738631Y-74793928D01*
X91684202Y-74739500D01*
X91629774Y-74630642D01*
X91629774Y-74521785D01*
X91684202Y-74412928D01*
X91738631Y-74358500D01*
X91847488Y-74304071D01*
X92119631Y-74304071D01*
X92282917Y-74358500D01*
X92772774Y-75447071D02*
X92772774Y-74304071D01*
X93425917Y-75447071D02*
X92936060Y-74793928D01*
X93425917Y-74304071D02*
X92772774Y-74957214D01*
X94133488Y-74902785D02*
X94133488Y-75447071D01*
X93752488Y-74304071D02*
X94133488Y-74902785D01*
X94514488Y-74304071D01*
X95711917Y-75120500D02*
X96256202Y-75120500D01*
X95603060Y-75447071D02*
X95984060Y-74304071D01*
X96365060Y-75447071D01*
X96909345Y-75447071D02*
X96800488Y-75392642D01*
X96746060Y-75283785D01*
X96746060Y-74304071D01*
X97834631Y-75447071D02*
X97834631Y-74848357D01*
X97780202Y-74739500D01*
X97671345Y-74685071D01*
X97453631Y-74685071D01*
X97344774Y-74739500D01*
X97834631Y-75392642D02*
X97725774Y-75447071D01*
X97453631Y-75447071D01*
X97344774Y-75392642D01*
X97290345Y-75283785D01*
X97290345Y-75174928D01*
X97344774Y-75066071D01*
X97453631Y-75011642D01*
X97725774Y-75011642D01*
X97834631Y-74957214D01*
X98378917Y-75447071D02*
X98378917Y-74685071D01*
X98378917Y-74902785D02*
X98433345Y-74793928D01*
X98487774Y-74739500D01*
X98596631Y-74685071D01*
X98705488Y-74685071D01*
X99086488Y-75447071D02*
X99086488Y-74685071D01*
X99086488Y-74793928D02*
X99140917Y-74739500D01*
X99249774Y-74685071D01*
X99413060Y-74685071D01*
X99521917Y-74739500D01*
X99576345Y-74848357D01*
X99576345Y-75447071D01*
X99576345Y-74848357D02*
X99630774Y-74739500D01*
X99739631Y-74685071D01*
X99902917Y-74685071D01*
X100011774Y-74739500D01*
X100066202Y-74848357D01*
X100066202Y-75447071D01*
X101481345Y-75447071D02*
X101481345Y-74304071D01*
X102025631Y-74685071D02*
X102025631Y-75447071D01*
X102025631Y-74793928D02*
X102080060Y-74739500D01*
X102188917Y-74685071D01*
X102352202Y-74685071D01*
X102461060Y-74739500D01*
X102515488Y-74848357D01*
X102515488Y-75447071D01*
X103549631Y-75447071D02*
X103549631Y-74304071D01*
X103549631Y-75392642D02*
X103440774Y-75447071D01*
X103223060Y-75447071D01*
X103114202Y-75392642D01*
X103059774Y-75338214D01*
X103005345Y-75229357D01*
X103005345Y-74902785D01*
X103059774Y-74793928D01*
X103114202Y-74739500D01*
X103223060Y-74685071D01*
X103440774Y-74685071D01*
X103549631Y-74739500D01*
X104093917Y-75447071D02*
X104093917Y-74685071D01*
X104093917Y-74304071D02*
X104039488Y-74358500D01*
X104093917Y-74412928D01*
X104148345Y-74358500D01*
X104093917Y-74304071D01*
X104093917Y-74412928D01*
X105128060Y-75392642D02*
X105019202Y-75447071D01*
X104801488Y-75447071D01*
X104692631Y-75392642D01*
X104638202Y-75338214D01*
X104583774Y-75229357D01*
X104583774Y-74902785D01*
X104638202Y-74793928D01*
X104692631Y-74739500D01*
X104801488Y-74685071D01*
X105019202Y-74685071D01*
X105128060Y-74739500D01*
X106107774Y-75447071D02*
X106107774Y-74848357D01*
X106053345Y-74739500D01*
X105944488Y-74685071D01*
X105726774Y-74685071D01*
X105617917Y-74739500D01*
X106107774Y-75392642D02*
X105998917Y-75447071D01*
X105726774Y-75447071D01*
X105617917Y-75392642D01*
X105563488Y-75283785D01*
X105563488Y-75174928D01*
X105617917Y-75066071D01*
X105726774Y-75011642D01*
X105998917Y-75011642D01*
X106107774Y-74957214D01*
X106488774Y-74685071D02*
X106924202Y-74685071D01*
X106652060Y-74304071D02*
X106652060Y-75283785D01*
X106706488Y-75392642D01*
X106815345Y-75447071D01*
X106924202Y-75447071D01*
X107468488Y-75447071D02*
X107359631Y-75392642D01*
X107305202Y-75338214D01*
X107250774Y-75229357D01*
X107250774Y-74902785D01*
X107305202Y-74793928D01*
X107359631Y-74739500D01*
X107468488Y-74685071D01*
X107631774Y-74685071D01*
X107740631Y-74739500D01*
X107795060Y-74793928D01*
X107849488Y-74902785D01*
X107849488Y-75229357D01*
X107795060Y-75338214D01*
X107740631Y-75392642D01*
X107631774Y-75447071D01*
X107468488Y-75447071D01*
X108339345Y-75447071D02*
X108339345Y-74685071D01*
X108339345Y-74902785D02*
X108393774Y-74793928D01*
X108448202Y-74739500D01*
X108557060Y-74685071D01*
X108665917Y-74685071D01*
X109101345Y-75392642D02*
X109101345Y-75447071D01*
X109046917Y-75555928D01*
X108992488Y-75610357D01*
X110298774Y-74304071D02*
X110679774Y-75447071D01*
X111060774Y-74304071D01*
X111931631Y-74685071D02*
X111931631Y-75447071D01*
X111659488Y-74249642D02*
X111387345Y-75066071D01*
X112094917Y-75066071D01*
X112530345Y-75338214D02*
X112584774Y-75392642D01*
X112530345Y-75447071D01*
X112475917Y-75392642D01*
X112530345Y-75338214D01*
X112530345Y-75447071D01*
X113292345Y-74304071D02*
X113401202Y-74304071D01*
X113510060Y-74358500D01*
X113564488Y-74412928D01*
X113618917Y-74521785D01*
X113673345Y-74739500D01*
X113673345Y-75011642D01*
X113618917Y-75229357D01*
X113564488Y-75338214D01*
X113510060Y-75392642D01*
X113401202Y-75447071D01*
X113292345Y-75447071D01*
X113183488Y-75392642D01*
X113129060Y-75338214D01*
X113074631Y-75229357D01*
X113020202Y-75011642D01*
X113020202Y-74739500D01*
X113074631Y-74521785D01*
X113129060Y-74412928D01*
X113183488Y-74358500D01*
X113292345Y-74304071D01*
D12*
G36*
X109359878Y-127097776D02*
G01*
X109465612Y-127098355D01*
X109542132Y-127099922D01*
X109594372Y-127102972D01*
X109627263Y-127107996D01*
X109645737Y-127115489D01*
X109654727Y-127125944D01*
X109659163Y-127139853D01*
X109659594Y-127141654D01*
X109666333Y-127174145D01*
X109678808Y-127238252D01*
X109695719Y-127327151D01*
X109715771Y-127434019D01*
X109737664Y-127552033D01*
X109738429Y-127556178D01*
X109760359Y-127671831D01*
X109780877Y-127774014D01*
X109798659Y-127856598D01*
X109812381Y-127913456D01*
X109820718Y-127938458D01*
X109821116Y-127938901D01*
X109845677Y-127951110D01*
X109896315Y-127971456D01*
X109962095Y-127995545D01*
X109962461Y-127995674D01*
X110045317Y-128026818D01*
X110143000Y-128066491D01*
X110235077Y-128106381D01*
X110239434Y-128108353D01*
X110389407Y-128176420D01*
X110721498Y-127949639D01*
X110823374Y-127880504D01*
X110915657Y-127818697D01*
X110993003Y-127767733D01*
X111050064Y-127731127D01*
X111081495Y-127712394D01*
X111084479Y-127711004D01*
X111107321Y-127717190D01*
X111149982Y-127747035D01*
X111214128Y-127801947D01*
X111301421Y-127883334D01*
X111390535Y-127969922D01*
X111476441Y-128055247D01*
X111553327Y-128133108D01*
X111616564Y-128198697D01*
X111661523Y-128247205D01*
X111683576Y-128273825D01*
X111684396Y-128275195D01*
X111686834Y-128293463D01*
X111677650Y-128323295D01*
X111654574Y-128368721D01*
X111615337Y-128433770D01*
X111557670Y-128522470D01*
X111480795Y-128636657D01*
X111412570Y-128737162D01*
X111351582Y-128827303D01*
X111301356Y-128901849D01*
X111265416Y-128955565D01*
X111247287Y-128983218D01*
X111246146Y-128985095D01*
X111248359Y-129011590D01*
X111265138Y-129063086D01*
X111293142Y-129129851D01*
X111303122Y-129151172D01*
X111346672Y-129246159D01*
X111393134Y-129353937D01*
X111430877Y-129447192D01*
X111458073Y-129516406D01*
X111479675Y-129569006D01*
X111492158Y-129596497D01*
X111493709Y-129598616D01*
X111516668Y-129602124D01*
X111570786Y-129611738D01*
X111648868Y-129626089D01*
X111743719Y-129643807D01*
X111848143Y-129663525D01*
X111954944Y-129683874D01*
X112056926Y-129703486D01*
X112146894Y-129720991D01*
X112217653Y-129735022D01*
X112262006Y-129744209D01*
X112272885Y-129746807D01*
X112284122Y-129753218D01*
X112292605Y-129767697D01*
X112298714Y-129795133D01*
X112302832Y-129840411D01*
X112305341Y-129908420D01*
X112306621Y-130004047D01*
X112307054Y-130132180D01*
X112307077Y-130184701D01*
X112307077Y-130611845D01*
X112204500Y-130632091D01*
X112147431Y-130643070D01*
X112062269Y-130659095D01*
X111959372Y-130678233D01*
X111849096Y-130698551D01*
X111818615Y-130704132D01*
X111716855Y-130723917D01*
X111628205Y-130743373D01*
X111560108Y-130760697D01*
X111520004Y-130774088D01*
X111513323Y-130778079D01*
X111496919Y-130806342D01*
X111473399Y-130861109D01*
X111447316Y-130931588D01*
X111442142Y-130946769D01*
X111407956Y-131040896D01*
X111365523Y-131147101D01*
X111323997Y-131242473D01*
X111323792Y-131242916D01*
X111254640Y-131392525D01*
X111709512Y-132061617D01*
X111417500Y-132354116D01*
X111329180Y-132441170D01*
X111248625Y-132517909D01*
X111180360Y-132580237D01*
X111128908Y-132624056D01*
X111098794Y-132645270D01*
X111094474Y-132646616D01*
X111069111Y-132636016D01*
X111017358Y-132606547D01*
X110944868Y-132561705D01*
X110857294Y-132504984D01*
X110762612Y-132441462D01*
X110666516Y-132376668D01*
X110580837Y-132320287D01*
X110511016Y-132275788D01*
X110462494Y-132246639D01*
X110440782Y-132236308D01*
X110414293Y-132245050D01*
X110364062Y-132268087D01*
X110300451Y-132300631D01*
X110293708Y-132304249D01*
X110208046Y-132347210D01*
X110149306Y-132368279D01*
X110112772Y-132368503D01*
X110093731Y-132348928D01*
X110093620Y-132348654D01*
X110084102Y-132325472D01*
X110061403Y-132270441D01*
X110027282Y-132187822D01*
X109983500Y-132081872D01*
X109931816Y-131956852D01*
X109873992Y-131817020D01*
X109817991Y-131681637D01*
X109756447Y-131532234D01*
X109699939Y-131393832D01*
X109650161Y-131270673D01*
X109608806Y-131167002D01*
X109577568Y-131087059D01*
X109558141Y-131035088D01*
X109552154Y-131015692D01*
X109567168Y-130993443D01*
X109606439Y-130957982D01*
X109658807Y-130918887D01*
X109807941Y-130795245D01*
X109924511Y-130653522D01*
X110007118Y-130496704D01*
X110054366Y-130327775D01*
X110064857Y-130149722D01*
X110057231Y-130067539D01*
X110015682Y-129897031D01*
X109944123Y-129746459D01*
X109846995Y-129617309D01*
X109728734Y-129511064D01*
X109593780Y-129429210D01*
X109446571Y-129373232D01*
X109291544Y-129344615D01*
X109133139Y-129344844D01*
X108975794Y-129375405D01*
X108823946Y-129437782D01*
X108682035Y-129533460D01*
X108622803Y-129587572D01*
X108509203Y-129726520D01*
X108430106Y-129878361D01*
X108384986Y-130038667D01*
X108373316Y-130203012D01*
X108394569Y-130366971D01*
X108448220Y-130526118D01*
X108533740Y-130676025D01*
X108650605Y-130812267D01*
X108781193Y-130918887D01*
X108835588Y-130959642D01*
X108874014Y-130994718D01*
X108887846Y-131015726D01*
X108880603Y-131038635D01*
X108860005Y-131093365D01*
X108827746Y-131175672D01*
X108785521Y-131281315D01*
X108735023Y-131406050D01*
X108677948Y-131545636D01*
X108621854Y-131681670D01*
X108559967Y-131831201D01*
X108502644Y-131969767D01*
X108451644Y-132093107D01*
X108408727Y-132196964D01*
X108375653Y-132277080D01*
X108354181Y-132329195D01*
X108346225Y-132348654D01*
X108327429Y-132368423D01*
X108291074Y-132368365D01*
X108232479Y-132347441D01*
X108146968Y-132304613D01*
X108146292Y-132304249D01*
X108081907Y-132271012D01*
X108029861Y-132246802D01*
X108000512Y-132236404D01*
X107999217Y-132236308D01*
X107977124Y-132246855D01*
X107928348Y-132276184D01*
X107858331Y-132320827D01*
X107772514Y-132377314D01*
X107677388Y-132441462D01*
X107580540Y-132506411D01*
X107493253Y-132562896D01*
X107421181Y-132607421D01*
X107369977Y-132636490D01*
X107345526Y-132646616D01*
X107323010Y-132633307D01*
X107277742Y-132596112D01*
X107214244Y-132539128D01*
X107137039Y-132466449D01*
X107050651Y-132382171D01*
X107022399Y-132354016D01*
X106730287Y-132061416D01*
X106952631Y-131735104D01*
X107020202Y-131634897D01*
X107079507Y-131544963D01*
X107127217Y-131470510D01*
X107160007Y-131416751D01*
X107174548Y-131388894D01*
X107174974Y-131386912D01*
X107167308Y-131360655D01*
X107146689Y-131307837D01*
X107116685Y-131237310D01*
X107095625Y-131190093D01*
X107056248Y-131099694D01*
X107019165Y-131008366D01*
X106990415Y-130931200D01*
X106982605Y-130907692D01*
X106960417Y-130844916D01*
X106938727Y-130796411D01*
X106926813Y-130778079D01*
X106900523Y-130766859D01*
X106843142Y-130750954D01*
X106762118Y-130732167D01*
X106664895Y-130712299D01*
X106621385Y-130704132D01*
X106510896Y-130683829D01*
X106404916Y-130664170D01*
X106313801Y-130647088D01*
X106247908Y-130634518D01*
X106235500Y-130632091D01*
X106132923Y-130611845D01*
X106132923Y-130184701D01*
X106133153Y-130044246D01*
X106134099Y-129937979D01*
X106136141Y-129861013D01*
X106139662Y-129808460D01*
X106145043Y-129775433D01*
X106152666Y-129757045D01*
X106162912Y-129748408D01*
X106167115Y-129746807D01*
X106192470Y-129741127D01*
X106248484Y-129729795D01*
X106327964Y-129714179D01*
X106423712Y-129695647D01*
X106528533Y-129675569D01*
X106635232Y-129655312D01*
X106736613Y-129636246D01*
X106825479Y-129619739D01*
X106894637Y-129607159D01*
X106936889Y-129599875D01*
X106946290Y-129598616D01*
X106954807Y-129581763D01*
X106973660Y-129536870D01*
X106999324Y-129472430D01*
X107009123Y-129447192D01*
X107048648Y-129349686D01*
X107095192Y-129241959D01*
X107136877Y-129151172D01*
X107167550Y-129081753D01*
X107187956Y-129024710D01*
X107194768Y-128989777D01*
X107193682Y-128985095D01*
X107179285Y-128962991D01*
X107146412Y-128913831D01*
X107098590Y-128842848D01*
X107039348Y-128755278D01*
X106972215Y-128656357D01*
X106958941Y-128636830D01*
X106881046Y-128521140D01*
X106823787Y-128433044D01*
X106784881Y-128368486D01*
X106762044Y-128323411D01*
X106752994Y-128293763D01*
X106755448Y-128275485D01*
X106755511Y-128275369D01*
X106774827Y-128251361D01*
X106817551Y-128204947D01*
X106879051Y-128140937D01*
X106954698Y-128064145D01*
X107039861Y-127979382D01*
X107049465Y-127969922D01*
X107156790Y-127865989D01*
X107239615Y-127789675D01*
X107299605Y-127739571D01*
X107338423Y-127714270D01*
X107355520Y-127711004D01*
X107380473Y-127725250D01*
X107432255Y-127758156D01*
X107505520Y-127806208D01*
X107594920Y-127865890D01*
X107695111Y-127933688D01*
X107718501Y-127949639D01*
X108050593Y-128176420D01*
X108200565Y-128108353D01*
X108291770Y-128068685D01*
X108389669Y-128028791D01*
X108473831Y-127996983D01*
X108477538Y-127995674D01*
X108543369Y-127971576D01*
X108594116Y-127951200D01*
X108618842Y-127938936D01*
X108618884Y-127938901D01*
X108626729Y-127916734D01*
X108640066Y-127862217D01*
X108657570Y-127781480D01*
X108677917Y-127680650D01*
X108699782Y-127565856D01*
X108701571Y-127556178D01*
X108723504Y-127437904D01*
X108743640Y-127330542D01*
X108760680Y-127240917D01*
X108773328Y-127175851D01*
X108780284Y-127142168D01*
X108780406Y-127141654D01*
X108784639Y-127127325D01*
X108792871Y-127116507D01*
X108810033Y-127108706D01*
X108841058Y-127103429D01*
X108890878Y-127100182D01*
X108964424Y-127098472D01*
X109066629Y-127097807D01*
X109202425Y-127097693D01*
X109220000Y-127097692D01*
X109359878Y-127097776D01*
G37*
X109359878Y-127097776D02*
X109465612Y-127098355D01*
X109542132Y-127099922D01*
X109594372Y-127102972D01*
X109627263Y-127107996D01*
X109645737Y-127115489D01*
X109654727Y-127125944D01*
X109659163Y-127139853D01*
X109659594Y-127141654D01*
X109666333Y-127174145D01*
X109678808Y-127238252D01*
X109695719Y-127327151D01*
X109715771Y-127434019D01*
X109737664Y-127552033D01*
X109738429Y-127556178D01*
X109760359Y-127671831D01*
X109780877Y-127774014D01*
X109798659Y-127856598D01*
X109812381Y-127913456D01*
X109820718Y-127938458D01*
X109821116Y-127938901D01*
X109845677Y-127951110D01*
X109896315Y-127971456D01*
X109962095Y-127995545D01*
X109962461Y-127995674D01*
X110045317Y-128026818D01*
X110143000Y-128066491D01*
X110235077Y-128106381D01*
X110239434Y-128108353D01*
X110389407Y-128176420D01*
X110721498Y-127949639D01*
X110823374Y-127880504D01*
X110915657Y-127818697D01*
X110993003Y-127767733D01*
X111050064Y-127731127D01*
X111081495Y-127712394D01*
X111084479Y-127711004D01*
X111107321Y-127717190D01*
X111149982Y-127747035D01*
X111214128Y-127801947D01*
X111301421Y-127883334D01*
X111390535Y-127969922D01*
X111476441Y-128055247D01*
X111553327Y-128133108D01*
X111616564Y-128198697D01*
X111661523Y-128247205D01*
X111683576Y-128273825D01*
X111684396Y-128275195D01*
X111686834Y-128293463D01*
X111677650Y-128323295D01*
X111654574Y-128368721D01*
X111615337Y-128433770D01*
X111557670Y-128522470D01*
X111480795Y-128636657D01*
X111412570Y-128737162D01*
X111351582Y-128827303D01*
X111301356Y-128901849D01*
X111265416Y-128955565D01*
X111247287Y-128983218D01*
X111246146Y-128985095D01*
X111248359Y-129011590D01*
X111265138Y-129063086D01*
X111293142Y-129129851D01*
X111303122Y-129151172D01*
X111346672Y-129246159D01*
X111393134Y-129353937D01*
X111430877Y-129447192D01*
X111458073Y-129516406D01*
X111479675Y-129569006D01*
X111492158Y-129596497D01*
X111493709Y-129598616D01*
X111516668Y-129602124D01*
X111570786Y-129611738D01*
X111648868Y-129626089D01*
X111743719Y-129643807D01*
X111848143Y-129663525D01*
X111954944Y-129683874D01*
X112056926Y-129703486D01*
X112146894Y-129720991D01*
X112217653Y-129735022D01*
X112262006Y-129744209D01*
X112272885Y-129746807D01*
X112284122Y-129753218D01*
X112292605Y-129767697D01*
X112298714Y-129795133D01*
X112302832Y-129840411D01*
X112305341Y-129908420D01*
X112306621Y-130004047D01*
X112307054Y-130132180D01*
X112307077Y-130184701D01*
X112307077Y-130611845D01*
X112204500Y-130632091D01*
X112147431Y-130643070D01*
X112062269Y-130659095D01*
X111959372Y-130678233D01*
X111849096Y-130698551D01*
X111818615Y-130704132D01*
X111716855Y-130723917D01*
X111628205Y-130743373D01*
X111560108Y-130760697D01*
X111520004Y-130774088D01*
X111513323Y-130778079D01*
X111496919Y-130806342D01*
X111473399Y-130861109D01*
X111447316Y-130931588D01*
X111442142Y-130946769D01*
X111407956Y-131040896D01*
X111365523Y-131147101D01*
X111323997Y-131242473D01*
X111323792Y-131242916D01*
X111254640Y-131392525D01*
X111709512Y-132061617D01*
X111417500Y-132354116D01*
X111329180Y-132441170D01*
X111248625Y-132517909D01*
X111180360Y-132580237D01*
X111128908Y-132624056D01*
X111098794Y-132645270D01*
X111094474Y-132646616D01*
X111069111Y-132636016D01*
X111017358Y-132606547D01*
X110944868Y-132561705D01*
X110857294Y-132504984D01*
X110762612Y-132441462D01*
X110666516Y-132376668D01*
X110580837Y-132320287D01*
X110511016Y-132275788D01*
X110462494Y-132246639D01*
X110440782Y-132236308D01*
X110414293Y-132245050D01*
X110364062Y-132268087D01*
X110300451Y-132300631D01*
X110293708Y-132304249D01*
X110208046Y-132347210D01*
X110149306Y-132368279D01*
X110112772Y-132368503D01*
X110093731Y-132348928D01*
X110093620Y-132348654D01*
X110084102Y-132325472D01*
X110061403Y-132270441D01*
X110027282Y-132187822D01*
X109983500Y-132081872D01*
X109931816Y-131956852D01*
X109873992Y-131817020D01*
X109817991Y-131681637D01*
X109756447Y-131532234D01*
X109699939Y-131393832D01*
X109650161Y-131270673D01*
X109608806Y-131167002D01*
X109577568Y-131087059D01*
X109558141Y-131035088D01*
X109552154Y-131015692D01*
X109567168Y-130993443D01*
X109606439Y-130957982D01*
X109658807Y-130918887D01*
X109807941Y-130795245D01*
X109924511Y-130653522D01*
X110007118Y-130496704D01*
X110054366Y-130327775D01*
X110064857Y-130149722D01*
X110057231Y-130067539D01*
X110015682Y-129897031D01*
X109944123Y-129746459D01*
X109846995Y-129617309D01*
X109728734Y-129511064D01*
X109593780Y-129429210D01*
X109446571Y-129373232D01*
X109291544Y-129344615D01*
X109133139Y-129344844D01*
X108975794Y-129375405D01*
X108823946Y-129437782D01*
X108682035Y-129533460D01*
X108622803Y-129587572D01*
X108509203Y-129726520D01*
X108430106Y-129878361D01*
X108384986Y-130038667D01*
X108373316Y-130203012D01*
X108394569Y-130366971D01*
X108448220Y-130526118D01*
X108533740Y-130676025D01*
X108650605Y-130812267D01*
X108781193Y-130918887D01*
X108835588Y-130959642D01*
X108874014Y-130994718D01*
X108887846Y-131015726D01*
X108880603Y-131038635D01*
X108860005Y-131093365D01*
X108827746Y-131175672D01*
X108785521Y-131281315D01*
X108735023Y-131406050D01*
X108677948Y-131545636D01*
X108621854Y-131681670D01*
X108559967Y-131831201D01*
X108502644Y-131969767D01*
X108451644Y-132093107D01*
X108408727Y-132196964D01*
X108375653Y-132277080D01*
X108354181Y-132329195D01*
X108346225Y-132348654D01*
X108327429Y-132368423D01*
X108291074Y-132368365D01*
X108232479Y-132347441D01*
X108146968Y-132304613D01*
X108146292Y-132304249D01*
X108081907Y-132271012D01*
X108029861Y-132246802D01*
X108000512Y-132236404D01*
X107999217Y-132236308D01*
X107977124Y-132246855D01*
X107928348Y-132276184D01*
X107858331Y-132320827D01*
X107772514Y-132377314D01*
X107677388Y-132441462D01*
X107580540Y-132506411D01*
X107493253Y-132562896D01*
X107421181Y-132607421D01*
X107369977Y-132636490D01*
X107345526Y-132646616D01*
X107323010Y-132633307D01*
X107277742Y-132596112D01*
X107214244Y-132539128D01*
X107137039Y-132466449D01*
X107050651Y-132382171D01*
X107022399Y-132354016D01*
X106730287Y-132061416D01*
X106952631Y-131735104D01*
X107020202Y-131634897D01*
X107079507Y-131544963D01*
X107127217Y-131470510D01*
X107160007Y-131416751D01*
X107174548Y-131388894D01*
X107174974Y-131386912D01*
X107167308Y-131360655D01*
X107146689Y-131307837D01*
X107116685Y-131237310D01*
X107095625Y-131190093D01*
X107056248Y-131099694D01*
X107019165Y-131008366D01*
X106990415Y-130931200D01*
X106982605Y-130907692D01*
X106960417Y-130844916D01*
X106938727Y-130796411D01*
X106926813Y-130778079D01*
X106900523Y-130766859D01*
X106843142Y-130750954D01*
X106762118Y-130732167D01*
X106664895Y-130712299D01*
X106621385Y-130704132D01*
X106510896Y-130683829D01*
X106404916Y-130664170D01*
X106313801Y-130647088D01*
X106247908Y-130634518D01*
X106235500Y-130632091D01*
X106132923Y-130611845D01*
X106132923Y-130184701D01*
X106133153Y-130044246D01*
X106134099Y-129937979D01*
X106136141Y-129861013D01*
X106139662Y-129808460D01*
X106145043Y-129775433D01*
X106152666Y-129757045D01*
X106162912Y-129748408D01*
X106167115Y-129746807D01*
X106192470Y-129741127D01*
X106248484Y-129729795D01*
X106327964Y-129714179D01*
X106423712Y-129695647D01*
X106528533Y-129675569D01*
X106635232Y-129655312D01*
X106736613Y-129636246D01*
X106825479Y-129619739D01*
X106894637Y-129607159D01*
X106936889Y-129599875D01*
X106946290Y-129598616D01*
X106954807Y-129581763D01*
X106973660Y-129536870D01*
X106999324Y-129472430D01*
X107009123Y-129447192D01*
X107048648Y-129349686D01*
X107095192Y-129241959D01*
X107136877Y-129151172D01*
X107167550Y-129081753D01*
X107187956Y-129024710D01*
X107194768Y-128989777D01*
X107193682Y-128985095D01*
X107179285Y-128962991D01*
X107146412Y-128913831D01*
X107098590Y-128842848D01*
X107039348Y-128755278D01*
X106972215Y-128656357D01*
X106958941Y-128636830D01*
X106881046Y-128521140D01*
X106823787Y-128433044D01*
X106784881Y-128368486D01*
X106762044Y-128323411D01*
X106752994Y-128293763D01*
X106755448Y-128275485D01*
X106755511Y-128275369D01*
X106774827Y-128251361D01*
X106817551Y-128204947D01*
X106879051Y-128140937D01*
X106954698Y-128064145D01*
X107039861Y-127979382D01*
X107049465Y-127969922D01*
X107156790Y-127865989D01*
X107239615Y-127789675D01*
X107299605Y-127739571D01*
X107338423Y-127714270D01*
X107355520Y-127711004D01*
X107380473Y-127725250D01*
X107432255Y-127758156D01*
X107505520Y-127806208D01*
X107594920Y-127865890D01*
X107695111Y-127933688D01*
X107718501Y-127949639D01*
X108050593Y-128176420D01*
X108200565Y-128108353D01*
X108291770Y-128068685D01*
X108389669Y-128028791D01*
X108473831Y-127996983D01*
X108477538Y-127995674D01*
X108543369Y-127971576D01*
X108594116Y-127951200D01*
X108618842Y-127938936D01*
X108618884Y-127938901D01*
X108626729Y-127916734D01*
X108640066Y-127862217D01*
X108657570Y-127781480D01*
X108677917Y-127680650D01*
X108699782Y-127565856D01*
X108701571Y-127556178D01*
X108723504Y-127437904D01*
X108743640Y-127330542D01*
X108760680Y-127240917D01*
X108773328Y-127175851D01*
X108780284Y-127142168D01*
X108780406Y-127141654D01*
X108784639Y-127127325D01*
X108792871Y-127116507D01*
X108810033Y-127108706D01*
X108841058Y-127103429D01*
X108890878Y-127100182D01*
X108964424Y-127098472D01*
X109066629Y-127097807D01*
X109202425Y-127097693D01*
X109220000Y-127097692D01*
X109359878Y-127097776D01*
G36*
X113465224Y-133457838D02*
G01*
X113542528Y-133508361D01*
X113579814Y-133553590D01*
X113609353Y-133635663D01*
X113611699Y-133700607D01*
X113606385Y-133787445D01*
X113406115Y-133875103D01*
X113308739Y-133919887D01*
X113245113Y-133955913D01*
X113212029Y-133987117D01*
X113206280Y-134017436D01*
X113224658Y-134050805D01*
X113244923Y-134072923D01*
X113303889Y-134108393D01*
X113368024Y-134110879D01*
X113426926Y-134083235D01*
X113470197Y-134028320D01*
X113477936Y-134008928D01*
X113515006Y-133948364D01*
X113557654Y-133922552D01*
X113616154Y-133900471D01*
X113616154Y-133984184D01*
X113610982Y-134041150D01*
X113590723Y-134089189D01*
X113548262Y-134144346D01*
X113541951Y-134151514D01*
X113494720Y-134200585D01*
X113454121Y-134226920D01*
X113403328Y-134239035D01*
X113361220Y-134243003D01*
X113285902Y-134243991D01*
X113232286Y-134231466D01*
X113198838Y-134212869D01*
X113146268Y-134171975D01*
X113109879Y-134127748D01*
X113086850Y-134072126D01*
X113074359Y-133997047D01*
X113069587Y-133894449D01*
X113069206Y-133842376D01*
X113070501Y-133779948D01*
X113188471Y-133779948D01*
X113189839Y-133813438D01*
X113193249Y-133818923D01*
X113215753Y-133811472D01*
X113264182Y-133791753D01*
X113328908Y-133763718D01*
X113342443Y-133757692D01*
X113424244Y-133716096D01*
X113469312Y-133679538D01*
X113479217Y-133645296D01*
X113455526Y-133610648D01*
X113435960Y-133595339D01*
X113365360Y-133564721D01*
X113299280Y-133569780D01*
X113243959Y-133607151D01*
X113205636Y-133673473D01*
X113193349Y-133726116D01*
X113188471Y-133779948D01*
X113070501Y-133779948D01*
X113071730Y-133720720D01*
X113081032Y-133630710D01*
X113099460Y-133565167D01*
X113129360Y-133516912D01*
X113173080Y-133478767D01*
X113192141Y-133466440D01*
X113278726Y-133434336D01*
X113373522Y-133432316D01*
X113465224Y-133457838D01*
G37*
X113465224Y-133457838D02*
X113542528Y-133508361D01*
X113579814Y-133553590D01*
X113609353Y-133635663D01*
X113611699Y-133700607D01*
X113606385Y-133787445D01*
X113406115Y-133875103D01*
X113308739Y-133919887D01*
X113245113Y-133955913D01*
X113212029Y-133987117D01*
X113206280Y-134017436D01*
X113224658Y-134050805D01*
X113244923Y-134072923D01*
X113303889Y-134108393D01*
X113368024Y-134110879D01*
X113426926Y-134083235D01*
X113470197Y-134028320D01*
X113477936Y-134008928D01*
X113515006Y-133948364D01*
X113557654Y-133922552D01*
X113616154Y-133900471D01*
X113616154Y-133984184D01*
X113610982Y-134041150D01*
X113590723Y-134089189D01*
X113548262Y-134144346D01*
X113541951Y-134151514D01*
X113494720Y-134200585D01*
X113454121Y-134226920D01*
X113403328Y-134239035D01*
X113361220Y-134243003D01*
X113285902Y-134243991D01*
X113232286Y-134231466D01*
X113198838Y-134212869D01*
X113146268Y-134171975D01*
X113109879Y-134127748D01*
X113086850Y-134072126D01*
X113074359Y-133997047D01*
X113069587Y-133894449D01*
X113069206Y-133842376D01*
X113070501Y-133779948D01*
X113188471Y-133779948D01*
X113189839Y-133813438D01*
X113193249Y-133818923D01*
X113215753Y-133811472D01*
X113264182Y-133791753D01*
X113328908Y-133763718D01*
X113342443Y-133757692D01*
X113424244Y-133716096D01*
X113469312Y-133679538D01*
X113479217Y-133645296D01*
X113455526Y-133610648D01*
X113435960Y-133595339D01*
X113365360Y-133564721D01*
X113299280Y-133569780D01*
X113243959Y-133607151D01*
X113205636Y-133673473D01*
X113193349Y-133726116D01*
X113188471Y-133779948D01*
X113070501Y-133779948D01*
X113071730Y-133720720D01*
X113081032Y-133630710D01*
X113099460Y-133565167D01*
X113129360Y-133516912D01*
X113173080Y-133478767D01*
X113192141Y-133466440D01*
X113278726Y-133434336D01*
X113373522Y-133432316D01*
X113465224Y-133457838D01*
G36*
X112790807Y-133446782D02*
G01*
X112814161Y-133456988D01*
X112869902Y-133501134D01*
X112917569Y-133564967D01*
X112947048Y-133633087D01*
X112951846Y-133666670D01*
X112935760Y-133713556D01*
X112900475Y-133738365D01*
X112862644Y-133753387D01*
X112845321Y-133756155D01*
X112836886Y-133736066D01*
X112820230Y-133692351D01*
X112812923Y-133672598D01*
X112771948Y-133604271D01*
X112712622Y-133570191D01*
X112636552Y-133571239D01*
X112630918Y-133572581D01*
X112590305Y-133591836D01*
X112560448Y-133629375D01*
X112540055Y-133689809D01*
X112527836Y-133777751D01*
X112522500Y-133897813D01*
X112522000Y-133961698D01*
X112521752Y-134062403D01*
X112520126Y-134131054D01*
X112515801Y-134174673D01*
X112507454Y-134200282D01*
X112493765Y-134214903D01*
X112473411Y-134225558D01*
X112472234Y-134226095D01*
X112433038Y-134242667D01*
X112413619Y-134248769D01*
X112410635Y-134230319D01*
X112408081Y-134179323D01*
X112406140Y-134102308D01*
X112404997Y-134005805D01*
X112404769Y-133935184D01*
X112405932Y-133798525D01*
X112410479Y-133694851D01*
X112419999Y-133618108D01*
X112436081Y-133562246D01*
X112460313Y-133521212D01*
X112494286Y-133488954D01*
X112527833Y-133466440D01*
X112608499Y-133436476D01*
X112702381Y-133429718D01*
X112790807Y-133446782D01*
G37*
X112790807Y-133446782D02*
X112814161Y-133456988D01*
X112869902Y-133501134D01*
X112917569Y-133564967D01*
X112947048Y-133633087D01*
X112951846Y-133666670D01*
X112935760Y-133713556D01*
X112900475Y-133738365D01*
X112862644Y-133753387D01*
X112845321Y-133756155D01*
X112836886Y-133736066D01*
X112820230Y-133692351D01*
X112812923Y-133672598D01*
X112771948Y-133604271D01*
X112712622Y-133570191D01*
X112636552Y-133571239D01*
X112630918Y-133572581D01*
X112590305Y-133591836D01*
X112560448Y-133629375D01*
X112540055Y-133689809D01*
X112527836Y-133777751D01*
X112522500Y-133897813D01*
X112522000Y-133961698D01*
X112521752Y-134062403D01*
X112520126Y-134131054D01*
X112515801Y-134174673D01*
X112507454Y-134200282D01*
X112493765Y-134214903D01*
X112473411Y-134225558D01*
X112472234Y-134226095D01*
X112433038Y-134242667D01*
X112413619Y-134248769D01*
X112410635Y-134230319D01*
X112408081Y-134179323D01*
X112406140Y-134102308D01*
X112404997Y-134005805D01*
X112404769Y-133935184D01*
X112405932Y-133798525D01*
X112410479Y-133694851D01*
X112419999Y-133618108D01*
X112436081Y-133562246D01*
X112460313Y-133521212D01*
X112494286Y-133488954D01*
X112527833Y-133466440D01*
X112608499Y-133436476D01*
X112702381Y-133429718D01*
X112790807Y-133446782D01*
G36*
X112107333Y-133443528D02*
G01*
X112163590Y-133469117D01*
X112207747Y-133500124D01*
X112240101Y-133534795D01*
X112262438Y-133579520D01*
X112276546Y-133640692D01*
X112284211Y-133724701D01*
X112287220Y-133837940D01*
X112287538Y-133912509D01*
X112287538Y-134203420D01*
X112237773Y-134226095D01*
X112198576Y-134242667D01*
X112179157Y-134248769D01*
X112175442Y-134230610D01*
X112172495Y-134181648D01*
X112170691Y-134110153D01*
X112170308Y-134053385D01*
X112168661Y-133971371D01*
X112164222Y-133906309D01*
X112157740Y-133866467D01*
X112152590Y-133858000D01*
X112117977Y-133866646D01*
X112063640Y-133888823D01*
X112000722Y-133918886D01*
X111940368Y-133951192D01*
X111893721Y-133980098D01*
X111871926Y-133999961D01*
X111871839Y-134000175D01*
X111873714Y-134036935D01*
X111890525Y-134072026D01*
X111920039Y-134100528D01*
X111963116Y-134110061D01*
X111999932Y-134108950D01*
X112052074Y-134108133D01*
X112079444Y-134120349D01*
X112095882Y-134152624D01*
X112097955Y-134158710D01*
X112105081Y-134204739D01*
X112086024Y-134232687D01*
X112036353Y-134246007D01*
X111982697Y-134248470D01*
X111886142Y-134230210D01*
X111836159Y-134204131D01*
X111774429Y-134142868D01*
X111741690Y-134067670D01*
X111738753Y-133988211D01*
X111766424Y-133914167D01*
X111808047Y-133867769D01*
X111849604Y-133841793D01*
X111914922Y-133808907D01*
X111991038Y-133775557D01*
X112003726Y-133770461D01*
X112087333Y-133733565D01*
X112135530Y-133701046D01*
X112151030Y-133668718D01*
X112136550Y-133632394D01*
X112111692Y-133604000D01*
X112052939Y-133569039D01*
X111988293Y-133566417D01*
X111929008Y-133593358D01*
X111886339Y-133647088D01*
X111880739Y-133660950D01*
X111848133Y-133711936D01*
X111800530Y-133749787D01*
X111740461Y-133780850D01*
X111740461Y-133692768D01*
X111743997Y-133638951D01*
X111759156Y-133596534D01*
X111792768Y-133551279D01*
X111825035Y-133516420D01*
X111875209Y-133467062D01*
X111914193Y-133440547D01*
X111956064Y-133429911D01*
X112003460Y-133428154D01*
X112107333Y-133443528D01*
G37*
X112107333Y-133443528D02*
X112163590Y-133469117D01*
X112207747Y-133500124D01*
X112240101Y-133534795D01*
X112262438Y-133579520D01*
X112276546Y-133640692D01*
X112284211Y-133724701D01*
X112287220Y-133837940D01*
X112287538Y-133912509D01*
X112287538Y-134203420D01*
X112237773Y-134226095D01*
X112198576Y-134242667D01*
X112179157Y-134248769D01*
X112175442Y-134230610D01*
X112172495Y-134181648D01*
X112170691Y-134110153D01*
X112170308Y-134053385D01*
X112168661Y-133971371D01*
X112164222Y-133906309D01*
X112157740Y-133866467D01*
X112152590Y-133858000D01*
X112117977Y-133866646D01*
X112063640Y-133888823D01*
X112000722Y-133918886D01*
X111940368Y-133951192D01*
X111893721Y-133980098D01*
X111871926Y-133999961D01*
X111871839Y-134000175D01*
X111873714Y-134036935D01*
X111890525Y-134072026D01*
X111920039Y-134100528D01*
X111963116Y-134110061D01*
X111999932Y-134108950D01*
X112052074Y-134108133D01*
X112079444Y-134120349D01*
X112095882Y-134152624D01*
X112097955Y-134158710D01*
X112105081Y-134204739D01*
X112086024Y-134232687D01*
X112036353Y-134246007D01*
X111982697Y-134248470D01*
X111886142Y-134230210D01*
X111836159Y-134204131D01*
X111774429Y-134142868D01*
X111741690Y-134067670D01*
X111738753Y-133988211D01*
X111766424Y-133914167D01*
X111808047Y-133867769D01*
X111849604Y-133841793D01*
X111914922Y-133808907D01*
X111991038Y-133775557D01*
X112003726Y-133770461D01*
X112087333Y-133733565D01*
X112135530Y-133701046D01*
X112151030Y-133668718D01*
X112136550Y-133632394D01*
X112111692Y-133604000D01*
X112052939Y-133569039D01*
X111988293Y-133566417D01*
X111929008Y-133593358D01*
X111886339Y-133647088D01*
X111880739Y-133660950D01*
X111848133Y-133711936D01*
X111800530Y-133749787D01*
X111740461Y-133780850D01*
X111740461Y-133692768D01*
X111743997Y-133638951D01*
X111759156Y-133596534D01*
X111792768Y-133551279D01*
X111825035Y-133516420D01*
X111875209Y-133467062D01*
X111914193Y-133440547D01*
X111956064Y-133429911D01*
X112003460Y-133428154D01*
X112107333Y-133443528D01*
G36*
X111615929Y-133446662D02*
G01*
X111618911Y-133498068D01*
X111621247Y-133576192D01*
X111622749Y-133674857D01*
X111623231Y-133778343D01*
X111623231Y-134128533D01*
X111561401Y-134190363D01*
X111518793Y-134228462D01*
X111481390Y-134243895D01*
X111430270Y-134242918D01*
X111409978Y-134240433D01*
X111346554Y-134233200D01*
X111294095Y-134229055D01*
X111281308Y-134228672D01*
X111238199Y-134231176D01*
X111176544Y-134237462D01*
X111152638Y-134240433D01*
X111093922Y-134245028D01*
X111054464Y-134235046D01*
X111015338Y-134204228D01*
X111001215Y-134190363D01*
X110939385Y-134128533D01*
X110939385Y-133473503D01*
X110989150Y-133450829D01*
X111032002Y-133434034D01*
X111057073Y-133428154D01*
X111063501Y-133446736D01*
X111069509Y-133498655D01*
X111074697Y-133578172D01*
X111078664Y-133679546D01*
X111080577Y-133765192D01*
X111085923Y-134102231D01*
X111132560Y-134108825D01*
X111174976Y-134104214D01*
X111195760Y-134089287D01*
X111201570Y-134061377D01*
X111206530Y-134001925D01*
X111210246Y-133918466D01*
X111212324Y-133818532D01*
X111212624Y-133767104D01*
X111212923Y-133471054D01*
X111274454Y-133449604D01*
X111318004Y-133435020D01*
X111341694Y-133428219D01*
X111342377Y-133428154D01*
X111344754Y-133446642D01*
X111347366Y-133497906D01*
X111349995Y-133575649D01*
X111352421Y-133673574D01*
X111354115Y-133765192D01*
X111359461Y-134102231D01*
X111476692Y-134102231D01*
X111482072Y-133794746D01*
X111487451Y-133487261D01*
X111544601Y-133457707D01*
X111586797Y-133437413D01*
X111611770Y-133428204D01*
X111612491Y-133428154D01*
X111615929Y-133446662D01*
G37*
X111615929Y-133446662D02*
X111618911Y-133498068D01*
X111621247Y-133576192D01*
X111622749Y-133674857D01*
X111623231Y-133778343D01*
X111623231Y-134128533D01*
X111561401Y-134190363D01*
X111518793Y-134228462D01*
X111481390Y-134243895D01*
X111430270Y-134242918D01*
X111409978Y-134240433D01*
X111346554Y-134233200D01*
X111294095Y-134229055D01*
X111281308Y-134228672D01*
X111238199Y-134231176D01*
X111176544Y-134237462D01*
X111152638Y-134240433D01*
X111093922Y-134245028D01*
X111054464Y-134235046D01*
X111015338Y-134204228D01*
X111001215Y-134190363D01*
X110939385Y-134128533D01*
X110939385Y-133473503D01*
X110989150Y-133450829D01*
X111032002Y-133434034D01*
X111057073Y-133428154D01*
X111063501Y-133446736D01*
X111069509Y-133498655D01*
X111074697Y-133578172D01*
X111078664Y-133679546D01*
X111080577Y-133765192D01*
X111085923Y-134102231D01*
X111132560Y-134108825D01*
X111174976Y-134104214D01*
X111195760Y-134089287D01*
X111201570Y-134061377D01*
X111206530Y-134001925D01*
X111210246Y-133918466D01*
X111212324Y-133818532D01*
X111212624Y-133767104D01*
X111212923Y-133471054D01*
X111274454Y-133449604D01*
X111318004Y-133435020D01*
X111341694Y-133428219D01*
X111342377Y-133428154D01*
X111344754Y-133446642D01*
X111347366Y-133497906D01*
X111349995Y-133575649D01*
X111352421Y-133673574D01*
X111354115Y-133765192D01*
X111359461Y-134102231D01*
X111476692Y-134102231D01*
X111482072Y-133794746D01*
X111487451Y-133487261D01*
X111544601Y-133457707D01*
X111586797Y-133437413D01*
X111611770Y-133428204D01*
X111612491Y-133428154D01*
X111615929Y-133446662D01*
G36*
X110822081Y-133590289D02*
G01*
X110821833Y-133736320D01*
X110820872Y-133848655D01*
X110818794Y-133932678D01*
X110815193Y-133993769D01*
X110809665Y-134037309D01*
X110801804Y-134068679D01*
X110791207Y-134093262D01*
X110783182Y-134107294D01*
X110716728Y-134183388D01*
X110632470Y-134231084D01*
X110539249Y-134248199D01*
X110445900Y-134232546D01*
X110390312Y-134204418D01*
X110331957Y-134155760D01*
X110292186Y-134096333D01*
X110268190Y-134018507D01*
X110257161Y-133914652D01*
X110255599Y-133838462D01*
X110255809Y-133832986D01*
X110392308Y-133832986D01*
X110393141Y-133920355D01*
X110396961Y-133978192D01*
X110405746Y-134016029D01*
X110421474Y-134043398D01*
X110440266Y-134064042D01*
X110503375Y-134103890D01*
X110571137Y-134107295D01*
X110635179Y-134074025D01*
X110640164Y-134069517D01*
X110661439Y-134046067D01*
X110674779Y-134018166D01*
X110682001Y-133976641D01*
X110684923Y-133912316D01*
X110685385Y-133841200D01*
X110684383Y-133751858D01*
X110680238Y-133692258D01*
X110671236Y-133653089D01*
X110655667Y-133625040D01*
X110642902Y-133610144D01*
X110583600Y-133572575D01*
X110515301Y-133568057D01*
X110450110Y-133596753D01*
X110437528Y-133607406D01*
X110416111Y-133631063D01*
X110402744Y-133659251D01*
X110395566Y-133701245D01*
X110392719Y-133766319D01*
X110392308Y-133832986D01*
X110255809Y-133832986D01*
X110260322Y-133715765D01*
X110276362Y-133623577D01*
X110306528Y-133554269D01*
X110353629Y-133500211D01*
X110390312Y-133472505D01*
X110456990Y-133442572D01*
X110534272Y-133428678D01*
X110606110Y-133432397D01*
X110646308Y-133447400D01*
X110662082Y-133451670D01*
X110672550Y-133435750D01*
X110679856Y-133393089D01*
X110685385Y-133328106D01*
X110691437Y-133255732D01*
X110699844Y-133212187D01*
X110715141Y-133187287D01*
X110741864Y-133170845D01*
X110758654Y-133163564D01*
X110822154Y-133136963D01*
X110822081Y-133590289D01*
G37*
X110822081Y-133590289D02*
X110821833Y-133736320D01*
X110820872Y-133848655D01*
X110818794Y-133932678D01*
X110815193Y-133993769D01*
X110809665Y-134037309D01*
X110801804Y-134068679D01*
X110791207Y-134093262D01*
X110783182Y-134107294D01*
X110716728Y-134183388D01*
X110632470Y-134231084D01*
X110539249Y-134248199D01*
X110445900Y-134232546D01*
X110390312Y-134204418D01*
X110331957Y-134155760D01*
X110292186Y-134096333D01*
X110268190Y-134018507D01*
X110257161Y-133914652D01*
X110255599Y-133838462D01*
X110255809Y-133832986D01*
X110392308Y-133832986D01*
X110393141Y-133920355D01*
X110396961Y-133978192D01*
X110405746Y-134016029D01*
X110421474Y-134043398D01*
X110440266Y-134064042D01*
X110503375Y-134103890D01*
X110571137Y-134107295D01*
X110635179Y-134074025D01*
X110640164Y-134069517D01*
X110661439Y-134046067D01*
X110674779Y-134018166D01*
X110682001Y-133976641D01*
X110684923Y-133912316D01*
X110685385Y-133841200D01*
X110684383Y-133751858D01*
X110680238Y-133692258D01*
X110671236Y-133653089D01*
X110655667Y-133625040D01*
X110642902Y-133610144D01*
X110583600Y-133572575D01*
X110515301Y-133568057D01*
X110450110Y-133596753D01*
X110437528Y-133607406D01*
X110416111Y-133631063D01*
X110402744Y-133659251D01*
X110395566Y-133701245D01*
X110392719Y-133766319D01*
X110392308Y-133832986D01*
X110255809Y-133832986D01*
X110260322Y-133715765D01*
X110276362Y-133623577D01*
X110306528Y-133554269D01*
X110353629Y-133500211D01*
X110390312Y-133472505D01*
X110456990Y-133442572D01*
X110534272Y-133428678D01*
X110606110Y-133432397D01*
X110646308Y-133447400D01*
X110662082Y-133451670D01*
X110672550Y-133435750D01*
X110679856Y-133393089D01*
X110685385Y-133328106D01*
X110691437Y-133255732D01*
X110699844Y-133212187D01*
X110715141Y-133187287D01*
X110741864Y-133170845D01*
X110758654Y-133163564D01*
X110822154Y-133136963D01*
X110822081Y-133590289D01*
G36*
X109933362Y-133434670D02*
G01*
X110022117Y-133467421D01*
X110094022Y-133525350D01*
X110122144Y-133566128D01*
X110152802Y-133640954D01*
X110152165Y-133695058D01*
X110119987Y-133731446D01*
X110108081Y-133737633D01*
X110056675Y-133756925D01*
X110030422Y-133751982D01*
X110021530Y-133719587D01*
X110021077Y-133701692D01*
X110004797Y-133635859D01*
X109962365Y-133589807D01*
X109903388Y-133567564D01*
X109837475Y-133573161D01*
X109783895Y-133602229D01*
X109765798Y-133618810D01*
X109752971Y-133638925D01*
X109744306Y-133669332D01*
X109738696Y-133716788D01*
X109735035Y-133788050D01*
X109732215Y-133889875D01*
X109731484Y-133922115D01*
X109728820Y-134032410D01*
X109725792Y-134110036D01*
X109721250Y-134161396D01*
X109714046Y-134192890D01*
X109703033Y-134210920D01*
X109687060Y-134221888D01*
X109676834Y-134226733D01*
X109633406Y-134243301D01*
X109607842Y-134248769D01*
X109599395Y-134230507D01*
X109594239Y-134175296D01*
X109592346Y-134082499D01*
X109593689Y-133951478D01*
X109594107Y-133931269D01*
X109597058Y-133811733D01*
X109600548Y-133724449D01*
X109605514Y-133662591D01*
X109612893Y-133619336D01*
X109623624Y-133587860D01*
X109638645Y-133561339D01*
X109646502Y-133549975D01*
X109691553Y-133499692D01*
X109741940Y-133460581D01*
X109748108Y-133457167D01*
X109838458Y-133430212D01*
X109933362Y-133434670D01*
G37*
X109933362Y-133434670D02*
X110022117Y-133467421D01*
X110094022Y-133525350D01*
X110122144Y-133566128D01*
X110152802Y-133640954D01*
X110152165Y-133695058D01*
X110119987Y-133731446D01*
X110108081Y-133737633D01*
X110056675Y-133756925D01*
X110030422Y-133751982D01*
X110021530Y-133719587D01*
X110021077Y-133701692D01*
X110004797Y-133635859D01*
X109962365Y-133589807D01*
X109903388Y-133567564D01*
X109837475Y-133573161D01*
X109783895Y-133602229D01*
X109765798Y-133618810D01*
X109752971Y-133638925D01*
X109744306Y-133669332D01*
X109738696Y-133716788D01*
X109735035Y-133788050D01*
X109732215Y-133889875D01*
X109731484Y-133922115D01*
X109728820Y-134032410D01*
X109725792Y-134110036D01*
X109721250Y-134161396D01*
X109714046Y-134192890D01*
X109703033Y-134210920D01*
X109687060Y-134221888D01*
X109676834Y-134226733D01*
X109633406Y-134243301D01*
X109607842Y-134248769D01*
X109599395Y-134230507D01*
X109594239Y-134175296D01*
X109592346Y-134082499D01*
X109593689Y-133951478D01*
X109594107Y-133931269D01*
X109597058Y-133811733D01*
X109600548Y-133724449D01*
X109605514Y-133662591D01*
X109612893Y-133619336D01*
X109623624Y-133587860D01*
X109638645Y-133561339D01*
X109646502Y-133549975D01*
X109691553Y-133499692D01*
X109741940Y-133460581D01*
X109748108Y-133457167D01*
X109838458Y-133430212D01*
X109933362Y-133434670D01*
G36*
X109273501Y-133436303D02*
G01*
X109350060Y-133464733D01*
X109350936Y-133465279D01*
X109398285Y-133500127D01*
X109433241Y-133540852D01*
X109457825Y-133593925D01*
X109474062Y-133665814D01*
X109483975Y-133762992D01*
X109489586Y-133891928D01*
X109490077Y-133910298D01*
X109497141Y-134187287D01*
X109437695Y-134218028D01*
X109394681Y-134238802D01*
X109368710Y-134248646D01*
X109367509Y-134248769D01*
X109363014Y-134230606D01*
X109359444Y-134181612D01*
X109357248Y-134110031D01*
X109356769Y-134052068D01*
X109356758Y-133958170D01*
X109352466Y-133899203D01*
X109337503Y-133871079D01*
X109305482Y-133869706D01*
X109250014Y-133890998D01*
X109166269Y-133930136D01*
X109104689Y-133962643D01*
X109073017Y-133990845D01*
X109063706Y-134021582D01*
X109063692Y-134023104D01*
X109079057Y-134076054D01*
X109124547Y-134104660D01*
X109194166Y-134108803D01*
X109244313Y-134108084D01*
X109270754Y-134122527D01*
X109287243Y-134157218D01*
X109296733Y-134201416D01*
X109283057Y-134226493D01*
X109277907Y-134230082D01*
X109229425Y-134244496D01*
X109161531Y-134246537D01*
X109091612Y-134236983D01*
X109042068Y-134219522D01*
X108973570Y-134161364D01*
X108934634Y-134080408D01*
X108926923Y-134017160D01*
X108932807Y-133960111D01*
X108954101Y-133913542D01*
X108996265Y-133872181D01*
X109064759Y-133830755D01*
X109165044Y-133783993D01*
X109171154Y-133781350D01*
X109261490Y-133739617D01*
X109317235Y-133705391D01*
X109341129Y-133674635D01*
X109335913Y-133643311D01*
X109304328Y-133607383D01*
X109294883Y-133599116D01*
X109231617Y-133567058D01*
X109166064Y-133568407D01*
X109108972Y-133599838D01*
X109071093Y-133658024D01*
X109067574Y-133669446D01*
X109033300Y-133724837D01*
X108989809Y-133751518D01*
X108926923Y-133777960D01*
X108926923Y-133709548D01*
X108946052Y-133610110D01*
X109002831Y-133518902D01*
X109032378Y-133488389D01*
X109099542Y-133449228D01*
X109184956Y-133431500D01*
X109273501Y-133436303D01*
G37*
X109273501Y-133436303D02*
X109350060Y-133464733D01*
X109350936Y-133465279D01*
X109398285Y-133500127D01*
X109433241Y-133540852D01*
X109457825Y-133593925D01*
X109474062Y-133665814D01*
X109483975Y-133762992D01*
X109489586Y-133891928D01*
X109490077Y-133910298D01*
X109497141Y-134187287D01*
X109437695Y-134218028D01*
X109394681Y-134238802D01*
X109368710Y-134248646D01*
X109367509Y-134248769D01*
X109363014Y-134230606D01*
X109359444Y-134181612D01*
X109357248Y-134110031D01*
X109356769Y-134052068D01*
X109356758Y-133958170D01*
X109352466Y-133899203D01*
X109337503Y-133871079D01*
X109305482Y-133869706D01*
X109250014Y-133890998D01*
X109166269Y-133930136D01*
X109104689Y-133962643D01*
X109073017Y-133990845D01*
X109063706Y-134021582D01*
X109063692Y-134023104D01*
X109079057Y-134076054D01*
X109124547Y-134104660D01*
X109194166Y-134108803D01*
X109244313Y-134108084D01*
X109270754Y-134122527D01*
X109287243Y-134157218D01*
X109296733Y-134201416D01*
X109283057Y-134226493D01*
X109277907Y-134230082D01*
X109229425Y-134244496D01*
X109161531Y-134246537D01*
X109091612Y-134236983D01*
X109042068Y-134219522D01*
X108973570Y-134161364D01*
X108934634Y-134080408D01*
X108926923Y-134017160D01*
X108932807Y-133960111D01*
X108954101Y-133913542D01*
X108996265Y-133872181D01*
X109064759Y-133830755D01*
X109165044Y-133783993D01*
X109171154Y-133781350D01*
X109261490Y-133739617D01*
X109317235Y-133705391D01*
X109341129Y-133674635D01*
X109335913Y-133643311D01*
X109304328Y-133607383D01*
X109294883Y-133599116D01*
X109231617Y-133567058D01*
X109166064Y-133568407D01*
X109108972Y-133599838D01*
X109071093Y-133658024D01*
X109067574Y-133669446D01*
X109033300Y-133724837D01*
X108989809Y-133751518D01*
X108926923Y-133777960D01*
X108926923Y-133709548D01*
X108946052Y-133610110D01*
X109002831Y-133518902D01*
X109032378Y-133488389D01*
X109099542Y-133449228D01*
X109184956Y-133431500D01*
X109273501Y-133436303D01*
G36*
X108379846Y-133302120D02*
G01*
X108385572Y-133381980D01*
X108392149Y-133429039D01*
X108401262Y-133449566D01*
X108414598Y-133449829D01*
X108418923Y-133447378D01*
X108476444Y-133429636D01*
X108551268Y-133430672D01*
X108627339Y-133448910D01*
X108674918Y-133472505D01*
X108723702Y-133510198D01*
X108759364Y-133552855D01*
X108783845Y-133607057D01*
X108799087Y-133679384D01*
X108807030Y-133776419D01*
X108809616Y-133904742D01*
X108809662Y-133929358D01*
X108809692Y-134205870D01*
X108748161Y-134227320D01*
X108704459Y-134241912D01*
X108680482Y-134248706D01*
X108679777Y-134248769D01*
X108677415Y-134230345D01*
X108675406Y-134179526D01*
X108673901Y-134102993D01*
X108673053Y-134007430D01*
X108672923Y-133949329D01*
X108672651Y-133834771D01*
X108671252Y-133752667D01*
X108667849Y-133696393D01*
X108661567Y-133659326D01*
X108651529Y-133634844D01*
X108636861Y-133616325D01*
X108627702Y-133607406D01*
X108564789Y-133571466D01*
X108496136Y-133568775D01*
X108433848Y-133599170D01*
X108422329Y-133610144D01*
X108405433Y-133630779D01*
X108393714Y-133655256D01*
X108386233Y-133690647D01*
X108382054Y-133744026D01*
X108380237Y-133822466D01*
X108379846Y-133930617D01*
X108379846Y-134205870D01*
X108318315Y-134227320D01*
X108274613Y-134241912D01*
X108250636Y-134248706D01*
X108249930Y-134248769D01*
X108248126Y-134230069D01*
X108246500Y-134177322D01*
X108245117Y-134095557D01*
X108244042Y-133989805D01*
X108243340Y-133865094D01*
X108243077Y-133726455D01*
X108243077Y-133191806D01*
X108370077Y-133138236D01*
X108379846Y-133302120D01*
G37*
X108379846Y-133302120D02*
X108385572Y-133381980D01*
X108392149Y-133429039D01*
X108401262Y-133449566D01*
X108414598Y-133449829D01*
X108418923Y-133447378D01*
X108476444Y-133429636D01*
X108551268Y-133430672D01*
X108627339Y-133448910D01*
X108674918Y-133472505D01*
X108723702Y-133510198D01*
X108759364Y-133552855D01*
X108783845Y-133607057D01*
X108799087Y-133679384D01*
X108807030Y-133776419D01*
X108809616Y-133904742D01*
X108809662Y-133929358D01*
X108809692Y-134205870D01*
X108748161Y-134227320D01*
X108704459Y-134241912D01*
X108680482Y-134248706D01*
X108679777Y-134248769D01*
X108677415Y-134230345D01*
X108675406Y-134179526D01*
X108673901Y-134102993D01*
X108673053Y-134007430D01*
X108672923Y-133949329D01*
X108672651Y-133834771D01*
X108671252Y-133752667D01*
X108667849Y-133696393D01*
X108661567Y-133659326D01*
X108651529Y-133634844D01*
X108636861Y-133616325D01*
X108627702Y-133607406D01*
X108564789Y-133571466D01*
X108496136Y-133568775D01*
X108433848Y-133599170D01*
X108422329Y-133610144D01*
X108405433Y-133630779D01*
X108393714Y-133655256D01*
X108386233Y-133690647D01*
X108382054Y-133744026D01*
X108380237Y-133822466D01*
X108379846Y-133930617D01*
X108379846Y-134205870D01*
X108318315Y-134227320D01*
X108274613Y-134241912D01*
X108250636Y-134248706D01*
X108249930Y-134248769D01*
X108248126Y-134230069D01*
X108246500Y-134177322D01*
X108245117Y-134095557D01*
X108244042Y-133989805D01*
X108243340Y-133865094D01*
X108243077Y-133726455D01*
X108243077Y-133191806D01*
X108370077Y-133138236D01*
X108379846Y-133302120D01*
G36*
X106754254Y-133409745D02*
G01*
X106831286Y-133461567D01*
X106890816Y-133536412D01*
X106926378Y-133631654D01*
X106933571Y-133701756D01*
X106932754Y-133731009D01*
X106925914Y-133753407D01*
X106907112Y-133773474D01*
X106870408Y-133795733D01*
X106809862Y-133824709D01*
X106719534Y-133864927D01*
X106719077Y-133865129D01*
X106635933Y-133903210D01*
X106567753Y-133937025D01*
X106521505Y-133962933D01*
X106504158Y-133977295D01*
X106504154Y-133977411D01*
X106519443Y-134008685D01*
X106555196Y-134043157D01*
X106596242Y-134067990D01*
X106617037Y-134072923D01*
X106673770Y-134055862D01*
X106722627Y-134013133D01*
X106746465Y-133966155D01*
X106769397Y-133931522D01*
X106814318Y-133892081D01*
X106867123Y-133858009D01*
X106913710Y-133839480D01*
X106923452Y-133838462D01*
X106934418Y-133855215D01*
X106935079Y-133898039D01*
X106927020Y-133955781D01*
X106911827Y-134017289D01*
X106891086Y-134071409D01*
X106890038Y-134073510D01*
X106827621Y-134160660D01*
X106746726Y-134219939D01*
X106654856Y-134249034D01*
X106559513Y-134245634D01*
X106468198Y-134207428D01*
X106464138Y-134204741D01*
X106392306Y-134139642D01*
X106345073Y-134054705D01*
X106318934Y-133943021D01*
X106315426Y-133911643D01*
X106309213Y-133763536D01*
X106316661Y-133694468D01*
X106504154Y-133694468D01*
X106506590Y-133737552D01*
X106519914Y-133750126D01*
X106553132Y-133740719D01*
X106605494Y-133718483D01*
X106664024Y-133690610D01*
X106665479Y-133689872D01*
X106715089Y-133663777D01*
X106735000Y-133646363D01*
X106730090Y-133628107D01*
X106709416Y-133604120D01*
X106656819Y-133569406D01*
X106600177Y-133566856D01*
X106549369Y-133592119D01*
X106514276Y-133640847D01*
X106504154Y-133694468D01*
X106316661Y-133694468D01*
X106321992Y-133645036D01*
X106354778Y-133551055D01*
X106400421Y-133485215D01*
X106482802Y-133418681D01*
X106573546Y-133385676D01*
X106666185Y-133383573D01*
X106754254Y-133409745D01*
G37*
X106754254Y-133409745D02*
X106831286Y-133461567D01*
X106890816Y-133536412D01*
X106926378Y-133631654D01*
X106933571Y-133701756D01*
X106932754Y-133731009D01*
X106925914Y-133753407D01*
X106907112Y-133773474D01*
X106870408Y-133795733D01*
X106809862Y-133824709D01*
X106719534Y-133864927D01*
X106719077Y-133865129D01*
X106635933Y-133903210D01*
X106567753Y-133937025D01*
X106521505Y-133962933D01*
X106504158Y-133977295D01*
X106504154Y-133977411D01*
X106519443Y-134008685D01*
X106555196Y-134043157D01*
X106596242Y-134067990D01*
X106617037Y-134072923D01*
X106673770Y-134055862D01*
X106722627Y-134013133D01*
X106746465Y-133966155D01*
X106769397Y-133931522D01*
X106814318Y-133892081D01*
X106867123Y-133858009D01*
X106913710Y-133839480D01*
X106923452Y-133838462D01*
X106934418Y-133855215D01*
X106935079Y-133898039D01*
X106927020Y-133955781D01*
X106911827Y-134017289D01*
X106891086Y-134071409D01*
X106890038Y-134073510D01*
X106827621Y-134160660D01*
X106746726Y-134219939D01*
X106654856Y-134249034D01*
X106559513Y-134245634D01*
X106468198Y-134207428D01*
X106464138Y-134204741D01*
X106392306Y-134139642D01*
X106345073Y-134054705D01*
X106318934Y-133943021D01*
X106315426Y-133911643D01*
X106309213Y-133763536D01*
X106316661Y-133694468D01*
X106504154Y-133694468D01*
X106506590Y-133737552D01*
X106519914Y-133750126D01*
X106553132Y-133740719D01*
X106605494Y-133718483D01*
X106664024Y-133690610D01*
X106665479Y-133689872D01*
X106715089Y-133663777D01*
X106735000Y-133646363D01*
X106730090Y-133628107D01*
X106709416Y-133604120D01*
X106656819Y-133569406D01*
X106600177Y-133566856D01*
X106549369Y-133592119D01*
X106514276Y-133640847D01*
X106504154Y-133694468D01*
X106316661Y-133694468D01*
X106321992Y-133645036D01*
X106354778Y-133551055D01*
X106400421Y-133485215D01*
X106482802Y-133418681D01*
X106573546Y-133385676D01*
X106666185Y-133383573D01*
X106754254Y-133409745D01*
G36*
X105236886Y-133397256D02*
G01*
X105328464Y-133445409D01*
X105396049Y-133522905D01*
X105420057Y-133572727D01*
X105438738Y-133647533D01*
X105448301Y-133742052D01*
X105449208Y-133845210D01*
X105441921Y-133945935D01*
X105426903Y-134033153D01*
X105404615Y-134095791D01*
X105397765Y-134106579D01*
X105316632Y-134187105D01*
X105220266Y-134235336D01*
X105115701Y-134249450D01*
X105009968Y-134227629D01*
X104980543Y-134214547D01*
X104923241Y-134174231D01*
X104872950Y-134120775D01*
X104868197Y-134113995D01*
X104848878Y-134081321D01*
X104836108Y-134046394D01*
X104828564Y-134000414D01*
X104824924Y-133934584D01*
X104823865Y-133840105D01*
X104823846Y-133818923D01*
X104823894Y-133812182D01*
X105019231Y-133812182D01*
X105020368Y-133901349D01*
X105024841Y-133960520D01*
X105034246Y-133998741D01*
X105050176Y-134025053D01*
X105058308Y-134033846D01*
X105105058Y-134067261D01*
X105150447Y-134065737D01*
X105196340Y-134036752D01*
X105223712Y-134005809D01*
X105239923Y-133960643D01*
X105249026Y-133889420D01*
X105249651Y-133881114D01*
X105251204Y-133752037D01*
X105234965Y-133656172D01*
X105201152Y-133594107D01*
X105149984Y-133566432D01*
X105131720Y-133564923D01*
X105083760Y-133572513D01*
X105050953Y-133598808D01*
X105030895Y-133649095D01*
X105021178Y-133728664D01*
X105019231Y-133812182D01*
X104823894Y-133812182D01*
X104824574Y-133718249D01*
X104827629Y-133647906D01*
X104834322Y-133599163D01*
X104845960Y-133563288D01*
X104863853Y-133531548D01*
X104867808Y-133525648D01*
X104934267Y-133446104D01*
X105006685Y-133399929D01*
X105094849Y-133381599D01*
X105124787Y-133380703D01*
X105236886Y-133397256D01*
G37*
X105236886Y-133397256D02*
X105328464Y-133445409D01*
X105396049Y-133522905D01*
X105420057Y-133572727D01*
X105438738Y-133647533D01*
X105448301Y-133742052D01*
X105449208Y-133845210D01*
X105441921Y-133945935D01*
X105426903Y-134033153D01*
X105404615Y-134095791D01*
X105397765Y-134106579D01*
X105316632Y-134187105D01*
X105220266Y-134235336D01*
X105115701Y-134249450D01*
X105009968Y-134227629D01*
X104980543Y-134214547D01*
X104923241Y-134174231D01*
X104872950Y-134120775D01*
X104868197Y-134113995D01*
X104848878Y-134081321D01*
X104836108Y-134046394D01*
X104828564Y-134000414D01*
X104824924Y-133934584D01*
X104823865Y-133840105D01*
X104823846Y-133818923D01*
X104823894Y-133812182D01*
X105019231Y-133812182D01*
X105020368Y-133901349D01*
X105024841Y-133960520D01*
X105034246Y-133998741D01*
X105050176Y-134025053D01*
X105058308Y-134033846D01*
X105105058Y-134067261D01*
X105150447Y-134065737D01*
X105196340Y-134036752D01*
X105223712Y-134005809D01*
X105239923Y-133960643D01*
X105249026Y-133889420D01*
X105249651Y-133881114D01*
X105251204Y-133752037D01*
X105234965Y-133656172D01*
X105201152Y-133594107D01*
X105149984Y-133566432D01*
X105131720Y-133564923D01*
X105083760Y-133572513D01*
X105050953Y-133598808D01*
X105030895Y-133649095D01*
X105021178Y-133728664D01*
X105019231Y-133812182D01*
X104823894Y-133812182D01*
X104824574Y-133718249D01*
X104827629Y-133647906D01*
X104834322Y-133599163D01*
X104845960Y-133563288D01*
X104863853Y-133531548D01*
X104867808Y-133525648D01*
X104934267Y-133446104D01*
X105006685Y-133399929D01*
X105094849Y-133381599D01*
X105124787Y-133380703D01*
X105236886Y-133397256D01*
G36*
X107491664Y-133405089D02*
G01*
X107554367Y-133441358D01*
X107597961Y-133477358D01*
X107629845Y-133515075D01*
X107651810Y-133561199D01*
X107665649Y-133622421D01*
X107673153Y-133705431D01*
X107676117Y-133816919D01*
X107676461Y-133897062D01*
X107676461Y-134192065D01*
X107510385Y-134266515D01*
X107500615Y-133943402D01*
X107496579Y-133822729D01*
X107492344Y-133735141D01*
X107487097Y-133674650D01*
X107480025Y-133635268D01*
X107470311Y-133611007D01*
X107457144Y-133595880D01*
X107452919Y-133592606D01*
X107388909Y-133567034D01*
X107324208Y-133577153D01*
X107285692Y-133604000D01*
X107270025Y-133623024D01*
X107259180Y-133647988D01*
X107252288Y-133685834D01*
X107248479Y-133743502D01*
X107246883Y-133827935D01*
X107246615Y-133915928D01*
X107246563Y-134026323D01*
X107244672Y-134104463D01*
X107238345Y-134157165D01*
X107224983Y-134191242D01*
X107201985Y-134213511D01*
X107166754Y-134230787D01*
X107119697Y-134248738D01*
X107068303Y-134268278D01*
X107074421Y-133921485D01*
X107076884Y-133796468D01*
X107079767Y-133704082D01*
X107083898Y-133637881D01*
X107090107Y-133591420D01*
X107099226Y-133558256D01*
X107112083Y-133531944D01*
X107127584Y-133508729D01*
X107202371Y-133434569D01*
X107293628Y-133391684D01*
X107392883Y-133381412D01*
X107491664Y-133405089D01*
G37*
X107491664Y-133405089D02*
X107554367Y-133441358D01*
X107597961Y-133477358D01*
X107629845Y-133515075D01*
X107651810Y-133561199D01*
X107665649Y-133622421D01*
X107673153Y-133705431D01*
X107676117Y-133816919D01*
X107676461Y-133897062D01*
X107676461Y-134192065D01*
X107510385Y-134266515D01*
X107500615Y-133943402D01*
X107496579Y-133822729D01*
X107492344Y-133735141D01*
X107487097Y-133674650D01*
X107480025Y-133635268D01*
X107470311Y-133611007D01*
X107457144Y-133595880D01*
X107452919Y-133592606D01*
X107388909Y-133567034D01*
X107324208Y-133577153D01*
X107285692Y-133604000D01*
X107270025Y-133623024D01*
X107259180Y-133647988D01*
X107252288Y-133685834D01*
X107248479Y-133743502D01*
X107246883Y-133827935D01*
X107246615Y-133915928D01*
X107246563Y-134026323D01*
X107244672Y-134104463D01*
X107238345Y-134157165D01*
X107224983Y-134191242D01*
X107201985Y-134213511D01*
X107166754Y-134230787D01*
X107119697Y-134248738D01*
X107068303Y-134268278D01*
X107074421Y-133921485D01*
X107076884Y-133796468D01*
X107079767Y-133704082D01*
X107083898Y-133637881D01*
X107090107Y-133591420D01*
X107099226Y-133558256D01*
X107112083Y-133531944D01*
X107127584Y-133508729D01*
X107202371Y-133434569D01*
X107293628Y-133391684D01*
X107392883Y-133381412D01*
X107491664Y-133405089D01*
G36*
X105988886Y-133394505D02*
G01*
X106063539Y-133431727D01*
X106129431Y-133500261D01*
X106147577Y-133525648D01*
X106167345Y-133558866D01*
X106180172Y-133594945D01*
X106187510Y-133643098D01*
X106190813Y-133712536D01*
X106191538Y-133804206D01*
X106188263Y-133929830D01*
X106176877Y-134024154D01*
X106155041Y-134094523D01*
X106120419Y-134148286D01*
X106070670Y-134192788D01*
X106067014Y-134195423D01*
X106017985Y-134222377D01*
X105958945Y-134235712D01*
X105883859Y-134239000D01*
X105761795Y-134239000D01*
X105761744Y-134357497D01*
X105760608Y-134423492D01*
X105753686Y-134462202D01*
X105735598Y-134485419D01*
X105700962Y-134504933D01*
X105692645Y-134508920D01*
X105653720Y-134527603D01*
X105623583Y-134539403D01*
X105601174Y-134540422D01*
X105585433Y-134526761D01*
X105575302Y-134494522D01*
X105569723Y-134439804D01*
X105567635Y-134358711D01*
X105567981Y-134247344D01*
X105569700Y-134101802D01*
X105570237Y-134058269D01*
X105572172Y-133908205D01*
X105573904Y-133810042D01*
X105761692Y-133810042D01*
X105762748Y-133893364D01*
X105767438Y-133947880D01*
X105778051Y-133983837D01*
X105796872Y-134011482D01*
X105809650Y-134024965D01*
X105861890Y-134064417D01*
X105908142Y-134067628D01*
X105955867Y-134035049D01*
X105957077Y-134033846D01*
X105976494Y-134008668D01*
X105988307Y-133974447D01*
X105994265Y-133921748D01*
X105996120Y-133841131D01*
X105996154Y-133823271D01*
X105991670Y-133712175D01*
X105977074Y-133635161D01*
X105950650Y-133588147D01*
X105910683Y-133567050D01*
X105887584Y-133564923D01*
X105832762Y-133574900D01*
X105795158Y-133607752D01*
X105772523Y-133667857D01*
X105762606Y-133759598D01*
X105761692Y-133810042D01*
X105573904Y-133810042D01*
X105574222Y-133792060D01*
X105576873Y-133704679D01*
X105580606Y-133640905D01*
X105585907Y-133595582D01*
X105593258Y-133563555D01*
X105603143Y-133539668D01*
X105616046Y-133518764D01*
X105621579Y-133510898D01*
X105694969Y-133436595D01*
X105787760Y-133394467D01*
X105895096Y-133382722D01*
X105988886Y-133394505D01*
G37*
X105988886Y-133394505D02*
X106063539Y-133431727D01*
X106129431Y-133500261D01*
X106147577Y-133525648D01*
X106167345Y-133558866D01*
X106180172Y-133594945D01*
X106187510Y-133643098D01*
X106190813Y-133712536D01*
X106191538Y-133804206D01*
X106188263Y-133929830D01*
X106176877Y-134024154D01*
X106155041Y-134094523D01*
X106120419Y-134148286D01*
X106070670Y-134192788D01*
X106067014Y-134195423D01*
X106017985Y-134222377D01*
X105958945Y-134235712D01*
X105883859Y-134239000D01*
X105761795Y-134239000D01*
X105761744Y-134357497D01*
X105760608Y-134423492D01*
X105753686Y-134462202D01*
X105735598Y-134485419D01*
X105700962Y-134504933D01*
X105692645Y-134508920D01*
X105653720Y-134527603D01*
X105623583Y-134539403D01*
X105601174Y-134540422D01*
X105585433Y-134526761D01*
X105575302Y-134494522D01*
X105569723Y-134439804D01*
X105567635Y-134358711D01*
X105567981Y-134247344D01*
X105569700Y-134101802D01*
X105570237Y-134058269D01*
X105572172Y-133908205D01*
X105573904Y-133810042D01*
X105761692Y-133810042D01*
X105762748Y-133893364D01*
X105767438Y-133947880D01*
X105778051Y-133983837D01*
X105796872Y-134011482D01*
X105809650Y-134024965D01*
X105861890Y-134064417D01*
X105908142Y-134067628D01*
X105955867Y-134035049D01*
X105957077Y-134033846D01*
X105976494Y-134008668D01*
X105988307Y-133974447D01*
X105994265Y-133921748D01*
X105996120Y-133841131D01*
X105996154Y-133823271D01*
X105991670Y-133712175D01*
X105977074Y-133635161D01*
X105950650Y-133588147D01*
X105910683Y-133567050D01*
X105887584Y-133564923D01*
X105832762Y-133574900D01*
X105795158Y-133607752D01*
X105772523Y-133667857D01*
X105762606Y-133759598D01*
X105761692Y-133810042D01*
X105573904Y-133810042D01*
X105574222Y-133792060D01*
X105576873Y-133704679D01*
X105580606Y-133640905D01*
X105585907Y-133595582D01*
X105593258Y-133563555D01*
X105603143Y-133539668D01*
X105616046Y-133518764D01*
X105621579Y-133510898D01*
X105694969Y-133436595D01*
X105787760Y-133394467D01*
X105895096Y-133382722D01*
X105988886Y-133394505D01*
D13*
X107990000Y-137450000D02*
G75*
G03X107990000Y-137450000I-100000J0D01*
G01*
D10*
X113220000Y-137080000D02*
X105220000Y-137080000D01*
X113220000Y-141530000D02*
X113220000Y-137080000D01*
X105220000Y-141530000D02*
X113220000Y-141530000D01*
X105220000Y-137090000D02*
X105220000Y-141530000D01*
D14*
X89060000Y-144780000D02*
G75*
G03X89060000Y-144780000I-3320000J0D01*
G01*
X97315000Y-144780000D02*
G75*
G03X97315000Y-144780000I-3320000J0D01*
G01*
X105570000Y-144780000D02*
G75*
G03X105570000Y-144780000I-3320000J0D01*
G01*
X89060000Y-129540000D02*
G75*
G03X89060000Y-129540000I-3320000J0D01*
G01*
X97315000Y-129540000D02*
G75*
G03X97315000Y-129540000I-3320000J0D01*
G01*
X105570000Y-129540000D02*
G75*
G03X105570000Y-129540000I-3320000J0D01*
G01*
X89060000Y-114300000D02*
G75*
G03X89060000Y-114300000I-3320000J0D01*
G01*
X97315000Y-114300000D02*
G75*
G03X97315000Y-114300000I-3320000J0D01*
G01*
X105570000Y-114300000D02*
G75*
G03X105570000Y-114300000I-3320000J0D01*
G01*
X89060000Y-99060000D02*
G75*
G03X89060000Y-99060000I-3320000J0D01*
G01*
X97315000Y-99060000D02*
G75*
G03X97315000Y-99060000I-3320000J0D01*
G01*
X105570000Y-99060000D02*
G75*
G03X105570000Y-99060000I-3320000J0D01*
G01*
X89060000Y-83820000D02*
G75*
G03X89060000Y-83820000I-3320000J0D01*
G01*
X97315000Y-83820000D02*
G75*
G03X97315000Y-83820000I-3320000J0D01*
G01*
X105570000Y-83820000D02*
G75*
G03X105570000Y-83820000I-3320000J0D01*
G01*
X89060000Y-68580000D02*
G75*
G03X89060000Y-68580000I-3320000J0D01*
G01*
X97315000Y-68580000D02*
G75*
G03X97315000Y-68580000I-3320000J0D01*
G01*
X105570000Y-68580000D02*
G75*
G03X105570000Y-68580000I-3320000J0D01*
G01*
X119540000Y-144780000D02*
G75*
G03X119540000Y-144780000I-3320000J0D01*
G01*
X127795000Y-144780000D02*
G75*
G03X127795000Y-144780000I-3320000J0D01*
G01*
X136050000Y-144780000D02*
G75*
G03X136050000Y-144780000I-3320000J0D01*
G01*
X119540000Y-129540000D02*
G75*
G03X119540000Y-129540000I-3320000J0D01*
G01*
X127795000Y-129540000D02*
G75*
G03X127795000Y-129540000I-3320000J0D01*
G01*
X136050000Y-129540000D02*
G75*
G03X136050000Y-129540000I-3320000J0D01*
G01*
X119540000Y-114300000D02*
G75*
G03X119540000Y-114300000I-3320000J0D01*
G01*
X127795000Y-114300000D02*
G75*
G03X127795000Y-114300000I-3320000J0D01*
G01*
X136050000Y-114300000D02*
G75*
G03X136050000Y-114300000I-3320000J0D01*
G01*
X119540000Y-99060000D02*
G75*
G03X119540000Y-99060000I-3320000J0D01*
G01*
X127795000Y-99060000D02*
G75*
G03X127795000Y-99060000I-3320000J0D01*
G01*
X136050000Y-99060000D02*
G75*
G03X136050000Y-99060000I-3320000J0D01*
G01*
X119540000Y-83820000D02*
G75*
G03X119540000Y-83820000I-3320000J0D01*
G01*
X127795000Y-83820000D02*
G75*
G03X127795000Y-83820000I-3320000J0D01*
G01*
X136050000Y-83820000D02*
G75*
G03X136050000Y-83820000I-3320000J0D01*
G01*
X119540000Y-68580000D02*
G75*
G03X119540000Y-68580000I-3320000J0D01*
G01*
X127795000Y-68580000D02*
G75*
G03X127795000Y-68580000I-3320000J0D01*
G01*
X136050000Y-68580000D02*
G75*
G03X136050000Y-68580000I-3320000J0D01*
G01*
X89060000Y-53340000D02*
G75*
G03X89060000Y-53340000I-3320000J0D01*
G01*
X97315000Y-53340000D02*
G75*
G03X97315000Y-53340000I-3320000J0D01*
G01*
X105570000Y-53340000D02*
G75*
G03X105570000Y-53340000I-3320000J0D01*
G01*
X119540000Y-53340000D02*
G75*
G03X119540000Y-53340000I-3320000J0D01*
G01*
X127795000Y-53340000D02*
G75*
G03X127795000Y-53340000I-3320000J0D01*
G01*
X136050000Y-53340000D02*
G75*
G03X136050000Y-53340000I-3320000J0D01*
G01*
X96330000Y-137780000D02*
X96330000Y-136540000D01*
X91630000Y-137780000D02*
X91630000Y-136540000D01*
X91630000Y-135210000D02*
X91630000Y-134860000D01*
X91630000Y-134860000D02*
X96330000Y-134860000D01*
X96330000Y-134860000D02*
X96330000Y-135210000D01*
X91630000Y-135210000D02*
X90380000Y-135210000D01*
X91630000Y-139110000D02*
X91630000Y-139460000D01*
X91630000Y-139460000D02*
X96330000Y-139460000D01*
X96330000Y-139460000D02*
X96330000Y-139110000D01*
X105220000Y-121905000D02*
X105220000Y-120665000D01*
X100520000Y-121905000D02*
X100520000Y-120665000D01*
X100520000Y-119335000D02*
X100520000Y-118985000D01*
X100520000Y-118985000D02*
X105220000Y-118985000D01*
X105220000Y-118985000D02*
X105220000Y-119335000D01*
X100520000Y-119335000D02*
X99270000Y-119335000D01*
X100520000Y-123235000D02*
X100520000Y-123585000D01*
X100520000Y-123585000D02*
X105220000Y-123585000D01*
X105220000Y-123585000D02*
X105220000Y-123235000D01*
X88885000Y-121905000D02*
X88885000Y-120665000D01*
X84185000Y-121905000D02*
X84185000Y-120665000D01*
X84185000Y-119335000D02*
X84185000Y-118985000D01*
X84185000Y-118985000D02*
X88885000Y-118985000D01*
X88885000Y-118985000D02*
X88885000Y-119335000D01*
X84185000Y-119335000D02*
X82935000Y-119335000D01*
X84185000Y-123235000D02*
X84185000Y-123585000D01*
X84185000Y-123585000D02*
X88885000Y-123585000D01*
X88885000Y-123585000D02*
X88885000Y-123235000D01*
X88885000Y-91425000D02*
X88885000Y-90185000D01*
X84185000Y-91425000D02*
X84185000Y-90185000D01*
X84185000Y-88855000D02*
X84185000Y-88505000D01*
X84185000Y-88505000D02*
X88885000Y-88505000D01*
X88885000Y-88505000D02*
X88885000Y-88855000D01*
X84185000Y-88855000D02*
X82935000Y-88855000D01*
X84185000Y-92755000D02*
X84185000Y-93105000D01*
X84185000Y-93105000D02*
X88885000Y-93105000D01*
X88885000Y-93105000D02*
X88885000Y-92755000D01*
X105220000Y-91425000D02*
X105220000Y-90185000D01*
X100520000Y-91425000D02*
X100520000Y-90185000D01*
X100520000Y-88855000D02*
X100520000Y-88505000D01*
X100520000Y-88505000D02*
X105220000Y-88505000D01*
X105220000Y-88505000D02*
X105220000Y-88855000D01*
X100520000Y-88855000D02*
X99270000Y-88855000D01*
X100520000Y-92755000D02*
X100520000Y-93105000D01*
X100520000Y-93105000D02*
X105220000Y-93105000D01*
X105220000Y-93105000D02*
X105220000Y-92755000D01*
X88885000Y-60945000D02*
X88885000Y-59705000D01*
X84185000Y-60945000D02*
X84185000Y-59705000D01*
X84185000Y-58375000D02*
X84185000Y-58025000D01*
X84185000Y-58025000D02*
X88885000Y-58025000D01*
X88885000Y-58025000D02*
X88885000Y-58375000D01*
X84185000Y-58375000D02*
X82935000Y-58375000D01*
X84185000Y-62275000D02*
X84185000Y-62625000D01*
X84185000Y-62625000D02*
X88885000Y-62625000D01*
X88885000Y-62625000D02*
X88885000Y-62275000D01*
X105220000Y-60945000D02*
X105220000Y-59705000D01*
X100520000Y-60945000D02*
X100520000Y-59705000D01*
X100520000Y-58375000D02*
X100520000Y-58025000D01*
X100520000Y-58025000D02*
X105220000Y-58025000D01*
X105220000Y-58025000D02*
X105220000Y-58375000D01*
X100520000Y-58375000D02*
X99270000Y-58375000D01*
X100520000Y-62275000D02*
X100520000Y-62625000D01*
X100520000Y-62625000D02*
X105220000Y-62625000D01*
X105220000Y-62625000D02*
X105220000Y-62275000D01*
X128715000Y-137145000D02*
X128715000Y-135905000D01*
X124015000Y-137145000D02*
X124015000Y-135905000D01*
X124015000Y-134575000D02*
X124015000Y-134225000D01*
X124015000Y-134225000D02*
X128715000Y-134225000D01*
X128715000Y-134225000D02*
X128715000Y-134575000D01*
X124015000Y-134575000D02*
X122765000Y-134575000D01*
X124015000Y-138475000D02*
X124015000Y-138825000D01*
X124015000Y-138825000D02*
X128715000Y-138825000D01*
X128715000Y-138825000D02*
X128715000Y-138475000D01*
X134430000Y-121905000D02*
X134430000Y-120665000D01*
X129730000Y-121905000D02*
X129730000Y-120665000D01*
X129730000Y-119335000D02*
X129730000Y-118985000D01*
X129730000Y-118985000D02*
X134430000Y-118985000D01*
X134430000Y-118985000D02*
X134430000Y-119335000D01*
X129730000Y-119335000D02*
X128480000Y-119335000D01*
X129730000Y-123235000D02*
X129730000Y-123585000D01*
X129730000Y-123585000D02*
X134430000Y-123585000D01*
X134430000Y-123585000D02*
X134430000Y-123235000D01*
X118730000Y-121905000D02*
X118730000Y-120665000D01*
X114030000Y-121905000D02*
X114030000Y-120665000D01*
X114030000Y-119335000D02*
X114030000Y-118985000D01*
X114030000Y-118985000D02*
X118730000Y-118985000D01*
X118730000Y-118985000D02*
X118730000Y-119335000D01*
X114030000Y-119335000D02*
X112780000Y-119335000D01*
X114030000Y-123235000D02*
X114030000Y-123585000D01*
X114030000Y-123585000D02*
X118730000Y-123585000D01*
X118730000Y-123585000D02*
X118730000Y-123235000D01*
X134430000Y-91425000D02*
X134430000Y-90185000D01*
X129730000Y-91425000D02*
X129730000Y-90185000D01*
X129730000Y-88855000D02*
X129730000Y-88505000D01*
X129730000Y-88505000D02*
X134430000Y-88505000D01*
X134430000Y-88505000D02*
X134430000Y-88855000D01*
X129730000Y-88855000D02*
X128480000Y-88855000D01*
X129730000Y-92755000D02*
X129730000Y-93105000D01*
X129730000Y-93105000D02*
X134430000Y-93105000D01*
X134430000Y-93105000D02*
X134430000Y-92755000D01*
X118730000Y-91425000D02*
X118730000Y-90185000D01*
X114030000Y-91425000D02*
X114030000Y-90185000D01*
X114030000Y-88855000D02*
X114030000Y-88505000D01*
X114030000Y-88505000D02*
X118730000Y-88505000D01*
X118730000Y-88505000D02*
X118730000Y-88855000D01*
X114030000Y-88855000D02*
X112780000Y-88855000D01*
X114030000Y-92755000D02*
X114030000Y-93105000D01*
X114030000Y-93105000D02*
X118730000Y-93105000D01*
X118730000Y-93105000D02*
X118730000Y-92755000D01*
X134430000Y-60945000D02*
X134430000Y-59705000D01*
X129730000Y-60945000D02*
X129730000Y-59705000D01*
X129730000Y-58375000D02*
X129730000Y-58025000D01*
X129730000Y-58025000D02*
X134430000Y-58025000D01*
X134430000Y-58025000D02*
X134430000Y-58375000D01*
X129730000Y-58375000D02*
X128480000Y-58375000D01*
X129730000Y-62275000D02*
X129730000Y-62625000D01*
X129730000Y-62625000D02*
X134430000Y-62625000D01*
X134430000Y-62625000D02*
X134430000Y-62275000D01*
X118730000Y-60945000D02*
X118730000Y-59705000D01*
X114030000Y-60945000D02*
X114030000Y-59705000D01*
X114030000Y-58375000D02*
X114030000Y-58025000D01*
X114030000Y-58025000D02*
X118730000Y-58025000D01*
X118730000Y-58025000D02*
X118730000Y-58375000D01*
X114030000Y-58375000D02*
X112780000Y-58375000D01*
X114030000Y-62275000D02*
X114030000Y-62625000D01*
X114030000Y-62625000D02*
X118730000Y-62625000D01*
X118730000Y-62625000D02*
X118730000Y-62275000D01*
X101762779Y-135380000D02*
X101437221Y-135380000D01*
X101762779Y-136400000D02*
X101437221Y-136400000D01*
X94299721Y-119890000D02*
X94625279Y-119890000D01*
X94299721Y-118870000D02*
X94625279Y-118870000D01*
X94625279Y-122680000D02*
X94299721Y-122680000D01*
X94625279Y-123700000D02*
X94299721Y-123700000D01*
X93990279Y-92835000D02*
X93664721Y-92835000D01*
X93990279Y-93855000D02*
X93664721Y-93855000D01*
X93664721Y-90680000D02*
X93990279Y-90680000D01*
X93664721Y-89660000D02*
X93990279Y-89660000D01*
X94452221Y-62740000D02*
X94777779Y-62740000D01*
X94452221Y-61720000D02*
X94777779Y-61720000D01*
X94452221Y-59565000D02*
X94777779Y-59565000D01*
X94452221Y-58545000D02*
X94777779Y-58545000D01*
X118734221Y-135765000D02*
X119059779Y-135765000D01*
X118734221Y-134745000D02*
X119059779Y-134745000D01*
X124779221Y-123700000D02*
X125104779Y-123700000D01*
X124779221Y-122680000D02*
X125104779Y-122680000D01*
X125257779Y-118870000D02*
X124932221Y-118870000D01*
X125257779Y-119890000D02*
X124932221Y-119890000D01*
X124297221Y-93855000D02*
X124622779Y-93855000D01*
X124297221Y-92835000D02*
X124622779Y-92835000D01*
X124145221Y-90045000D02*
X124470779Y-90045000D01*
X124145221Y-89025000D02*
X124470779Y-89025000D01*
X124297221Y-63375000D02*
X124622779Y-63375000D01*
X124297221Y-62355000D02*
X124622779Y-62355000D01*
X124297221Y-59565000D02*
X124622779Y-59565000D01*
X124297221Y-58545000D02*
X124622779Y-58545000D01*
D15*
X115760000Y-75965000D02*
X115760000Y-75165000D01*
X116010000Y-73915000D02*
X117610000Y-73915000D01*
X116010000Y-77215000D02*
X117610000Y-77215000D01*
D16*
X90405000Y-107950000D02*
X91205000Y-107950000D01*
X99930000Y-107950000D02*
X100730000Y-107950000D01*
D15*
X130370000Y-109475400D02*
X126170000Y-109475400D01*
X126170000Y-106424600D02*
X130370000Y-106424600D01*
D17*
G36*
X94615000Y-107695300D02*
G01*
X94361000Y-108012800D01*
X94869000Y-108012800D01*
X94615000Y-107695300D01*
G37*
G36*
X94234000Y-107695300D02*
G01*
X94996000Y-107695300D01*
X94996000Y-107568300D01*
X94234000Y-107568300D01*
X94234000Y-107695300D01*
G37*
G36*
X97155000Y-107810300D02*
G01*
X96901000Y-108127800D01*
X97409000Y-108127800D01*
X97155000Y-107810300D01*
G37*
G36*
X96774000Y-107810300D02*
G01*
X97536000Y-107810300D01*
X97536000Y-107683300D01*
X96774000Y-107683300D01*
X96774000Y-107810300D01*
G37*
G36*
X113286823Y-105691447D02*
G01*
X112933270Y-106045000D01*
X113286823Y-106398553D01*
X113640377Y-106045000D01*
X113286823Y-105691447D01*
G37*
D10*
X106003623Y-106045000D02*
X106427887Y-105620736D01*
X106427887Y-106469264D02*
X106003623Y-106045000D01*
X109822000Y-102226623D02*
X109397736Y-102650887D01*
X110246264Y-102650887D02*
X109822000Y-102226623D01*
X109822000Y-109863377D02*
X109397736Y-109439113D01*
X110246264Y-109439113D02*
X109822000Y-109863377D01*
X113640377Y-106045000D02*
X113216113Y-105620736D01*
X113216113Y-106469264D02*
X113640377Y-106045000D01*
D17*
G36*
X124662000Y-76900000D02*
G01*
X124862000Y-76900000D01*
X124862000Y-75500000D01*
X124662000Y-75500000D01*
X124662000Y-76900000D01*
G37*
D10*
X124012000Y-77025000D02*
X124012000Y-75375000D01*
X126712000Y-77025000D02*
X124012000Y-77025000D01*
X126712000Y-75375000D02*
X126712000Y-77025000D01*
X124012000Y-75375000D02*
X126712000Y-75375000D01*
D11*
X125862000Y-76600000D02*
X124862000Y-76200000D01*
X125862000Y-75800000D02*
X125862000Y-76600000D01*
X124862000Y-76200000D02*
X125862000Y-75800000D01*
D17*
G36*
X124662000Y-73725000D02*
G01*
X124862000Y-73725000D01*
X124862000Y-72325000D01*
X124662000Y-72325000D01*
X124662000Y-73725000D01*
G37*
D10*
X124012000Y-73850000D02*
X124012000Y-72200000D01*
X126712000Y-73850000D02*
X124012000Y-73850000D01*
X126712000Y-72200000D02*
X126712000Y-73850000D01*
X124012000Y-72200000D02*
X126712000Y-72200000D01*
D11*
X125862000Y-73425000D02*
X124862000Y-73025000D01*
X125862000Y-72625000D02*
X125862000Y-73425000D01*
X124862000Y-73025000D02*
X125862000Y-72625000D01*
D16*
X135763000Y-74295000D02*
X134747000Y-74295000D01*
X122340000Y-108985000D02*
X122340000Y-108185000D01*
X122555000Y-104375000D02*
X122555000Y-105175000D01*
X109540000Y-89027000D02*
X109540000Y-90043000D01*
D18*
X108077142Y-145937380D02*
X108077142Y-144937380D01*
X108648571Y-145937380D01*
X108648571Y-144937380D01*
X108981904Y-144937380D02*
X109553333Y-144937380D01*
X109267619Y-145937380D02*
X109267619Y-144937380D01*
X110410476Y-145937380D02*
X109839047Y-145937380D01*
X110124761Y-145937380D02*
X110124761Y-144937380D01*
X110029523Y-145080238D01*
X109934285Y-145175476D01*
X109839047Y-145223095D01*
D19*
X105765063Y-136274264D02*
X106028768Y-136669822D01*
X106028768Y-136274264D02*
X105765063Y-136669822D01*
X106386654Y-136669822D02*
X106160621Y-136669822D01*
X106273637Y-136669822D02*
X106273637Y-136274264D01*
X106235965Y-136330773D01*
X106198293Y-136368445D01*
X106160621Y-136387281D01*
D18*
X85312380Y-142972380D02*
X84836190Y-142972380D01*
X84836190Y-141972380D01*
X85598095Y-142686666D02*
X86074285Y-142686666D01*
X85502857Y-142972380D02*
X85836190Y-141972380D01*
X86169523Y-142972380D01*
X86502857Y-142448571D02*
X86836190Y-142448571D01*
X86979047Y-142972380D02*
X86502857Y-142972380D01*
X86502857Y-141972380D01*
X86979047Y-141972380D01*
X87312380Y-141972380D02*
X87931428Y-141972380D01*
X87598095Y-142353333D01*
X87740952Y-142353333D01*
X87836190Y-142400952D01*
X87883809Y-142448571D01*
X87931428Y-142543809D01*
X87931428Y-142781904D01*
X87883809Y-142877142D01*
X87836190Y-142924761D01*
X87740952Y-142972380D01*
X87455238Y-142972380D01*
X87360000Y-142924761D01*
X87312380Y-142877142D01*
X93567380Y-142972380D02*
X93091190Y-142972380D01*
X93091190Y-141972380D01*
X93853095Y-142686666D02*
X94329285Y-142686666D01*
X93757857Y-142972380D02*
X94091190Y-141972380D01*
X94424523Y-142972380D01*
X94757857Y-142448571D02*
X95091190Y-142448571D01*
X95234047Y-142972380D02*
X94757857Y-142972380D01*
X94757857Y-141972380D01*
X95234047Y-141972380D01*
X95615000Y-142067619D02*
X95662619Y-142020000D01*
X95757857Y-141972380D01*
X95995952Y-141972380D01*
X96091190Y-142020000D01*
X96138809Y-142067619D01*
X96186428Y-142162857D01*
X96186428Y-142258095D01*
X96138809Y-142400952D01*
X95567380Y-142972380D01*
X96186428Y-142972380D01*
X101822380Y-142972380D02*
X101346190Y-142972380D01*
X101346190Y-141972380D01*
X102108095Y-142686666D02*
X102584285Y-142686666D01*
X102012857Y-142972380D02*
X102346190Y-141972380D01*
X102679523Y-142972380D01*
X103012857Y-142448571D02*
X103346190Y-142448571D01*
X103489047Y-142972380D02*
X103012857Y-142972380D01*
X103012857Y-141972380D01*
X103489047Y-141972380D01*
X104441428Y-142972380D02*
X103870000Y-142972380D01*
X104155714Y-142972380D02*
X104155714Y-141972380D01*
X104060476Y-142115238D01*
X103965238Y-142210476D01*
X103870000Y-142258095D01*
X85264761Y-127732380D02*
X84788571Y-127732380D01*
X84788571Y-126732380D01*
X85550476Y-127446666D02*
X86026666Y-127446666D01*
X85455238Y-127732380D02*
X85788571Y-126732380D01*
X86121904Y-127732380D01*
X86455238Y-127732380D02*
X86455238Y-126732380D01*
X86693333Y-126732380D01*
X86836190Y-126780000D01*
X86931428Y-126875238D01*
X86979047Y-126970476D01*
X87026666Y-127160952D01*
X87026666Y-127303809D01*
X86979047Y-127494285D01*
X86931428Y-127589523D01*
X86836190Y-127684761D01*
X86693333Y-127732380D01*
X86455238Y-127732380D01*
X87360000Y-126732380D02*
X87979047Y-126732380D01*
X87645714Y-127113333D01*
X87788571Y-127113333D01*
X87883809Y-127160952D01*
X87931428Y-127208571D01*
X87979047Y-127303809D01*
X87979047Y-127541904D01*
X87931428Y-127637142D01*
X87883809Y-127684761D01*
X87788571Y-127732380D01*
X87502857Y-127732380D01*
X87407619Y-127684761D01*
X87360000Y-127637142D01*
X93519761Y-127732380D02*
X93043571Y-127732380D01*
X93043571Y-126732380D01*
X93805476Y-127446666D02*
X94281666Y-127446666D01*
X93710238Y-127732380D02*
X94043571Y-126732380D01*
X94376904Y-127732380D01*
X94710238Y-127732380D02*
X94710238Y-126732380D01*
X94948333Y-126732380D01*
X95091190Y-126780000D01*
X95186428Y-126875238D01*
X95234047Y-126970476D01*
X95281666Y-127160952D01*
X95281666Y-127303809D01*
X95234047Y-127494285D01*
X95186428Y-127589523D01*
X95091190Y-127684761D01*
X94948333Y-127732380D01*
X94710238Y-127732380D01*
X95662619Y-126827619D02*
X95710238Y-126780000D01*
X95805476Y-126732380D01*
X96043571Y-126732380D01*
X96138809Y-126780000D01*
X96186428Y-126827619D01*
X96234047Y-126922857D01*
X96234047Y-127018095D01*
X96186428Y-127160952D01*
X95615000Y-127732380D01*
X96234047Y-127732380D01*
X101774761Y-127732380D02*
X101298571Y-127732380D01*
X101298571Y-126732380D01*
X102060476Y-127446666D02*
X102536666Y-127446666D01*
X101965238Y-127732380D02*
X102298571Y-126732380D01*
X102631904Y-127732380D01*
X102965238Y-127732380D02*
X102965238Y-126732380D01*
X103203333Y-126732380D01*
X103346190Y-126780000D01*
X103441428Y-126875238D01*
X103489047Y-126970476D01*
X103536666Y-127160952D01*
X103536666Y-127303809D01*
X103489047Y-127494285D01*
X103441428Y-127589523D01*
X103346190Y-127684761D01*
X103203333Y-127732380D01*
X102965238Y-127732380D01*
X104489047Y-127732380D02*
X103917619Y-127732380D01*
X104203333Y-127732380D02*
X104203333Y-126732380D01*
X104108095Y-126875238D01*
X104012857Y-126970476D01*
X103917619Y-127018095D01*
X85264761Y-112492380D02*
X84788571Y-112492380D01*
X84788571Y-111492380D01*
X85550476Y-112206666D02*
X86026666Y-112206666D01*
X85455238Y-112492380D02*
X85788571Y-111492380D01*
X86121904Y-112492380D01*
X87026666Y-112397142D02*
X86979047Y-112444761D01*
X86836190Y-112492380D01*
X86740952Y-112492380D01*
X86598095Y-112444761D01*
X86502857Y-112349523D01*
X86455238Y-112254285D01*
X86407619Y-112063809D01*
X86407619Y-111920952D01*
X86455238Y-111730476D01*
X86502857Y-111635238D01*
X86598095Y-111540000D01*
X86740952Y-111492380D01*
X86836190Y-111492380D01*
X86979047Y-111540000D01*
X87026666Y-111587619D01*
X87360000Y-111492380D02*
X87979047Y-111492380D01*
X87645714Y-111873333D01*
X87788571Y-111873333D01*
X87883809Y-111920952D01*
X87931428Y-111968571D01*
X87979047Y-112063809D01*
X87979047Y-112301904D01*
X87931428Y-112397142D01*
X87883809Y-112444761D01*
X87788571Y-112492380D01*
X87502857Y-112492380D01*
X87407619Y-112444761D01*
X87360000Y-112397142D01*
X93519761Y-112492380D02*
X93043571Y-112492380D01*
X93043571Y-111492380D01*
X93805476Y-112206666D02*
X94281666Y-112206666D01*
X93710238Y-112492380D02*
X94043571Y-111492380D01*
X94376904Y-112492380D01*
X95281666Y-112397142D02*
X95234047Y-112444761D01*
X95091190Y-112492380D01*
X94995952Y-112492380D01*
X94853095Y-112444761D01*
X94757857Y-112349523D01*
X94710238Y-112254285D01*
X94662619Y-112063809D01*
X94662619Y-111920952D01*
X94710238Y-111730476D01*
X94757857Y-111635238D01*
X94853095Y-111540000D01*
X94995952Y-111492380D01*
X95091190Y-111492380D01*
X95234047Y-111540000D01*
X95281666Y-111587619D01*
X95662619Y-111587619D02*
X95710238Y-111540000D01*
X95805476Y-111492380D01*
X96043571Y-111492380D01*
X96138809Y-111540000D01*
X96186428Y-111587619D01*
X96234047Y-111682857D01*
X96234047Y-111778095D01*
X96186428Y-111920952D01*
X95615000Y-112492380D01*
X96234047Y-112492380D01*
X101774761Y-112492380D02*
X101298571Y-112492380D01*
X101298571Y-111492380D01*
X102060476Y-112206666D02*
X102536666Y-112206666D01*
X101965238Y-112492380D02*
X102298571Y-111492380D01*
X102631904Y-112492380D01*
X103536666Y-112397142D02*
X103489047Y-112444761D01*
X103346190Y-112492380D01*
X103250952Y-112492380D01*
X103108095Y-112444761D01*
X103012857Y-112349523D01*
X102965238Y-112254285D01*
X102917619Y-112063809D01*
X102917619Y-111920952D01*
X102965238Y-111730476D01*
X103012857Y-111635238D01*
X103108095Y-111540000D01*
X103250952Y-111492380D01*
X103346190Y-111492380D01*
X103489047Y-111540000D01*
X103536666Y-111587619D01*
X104489047Y-112492380D02*
X103917619Y-112492380D01*
X104203333Y-112492380D02*
X104203333Y-111492380D01*
X104108095Y-111635238D01*
X104012857Y-111730476D01*
X103917619Y-111778095D01*
X85264761Y-97252380D02*
X84788571Y-97252380D01*
X84788571Y-96252380D01*
X85550476Y-96966666D02*
X86026666Y-96966666D01*
X85455238Y-97252380D02*
X85788571Y-96252380D01*
X86121904Y-97252380D01*
X86788571Y-96728571D02*
X86931428Y-96776190D01*
X86979047Y-96823809D01*
X87026666Y-96919047D01*
X87026666Y-97061904D01*
X86979047Y-97157142D01*
X86931428Y-97204761D01*
X86836190Y-97252380D01*
X86455238Y-97252380D01*
X86455238Y-96252380D01*
X86788571Y-96252380D01*
X86883809Y-96300000D01*
X86931428Y-96347619D01*
X86979047Y-96442857D01*
X86979047Y-96538095D01*
X86931428Y-96633333D01*
X86883809Y-96680952D01*
X86788571Y-96728571D01*
X86455238Y-96728571D01*
X87360000Y-96252380D02*
X87979047Y-96252380D01*
X87645714Y-96633333D01*
X87788571Y-96633333D01*
X87883809Y-96680952D01*
X87931428Y-96728571D01*
X87979047Y-96823809D01*
X87979047Y-97061904D01*
X87931428Y-97157142D01*
X87883809Y-97204761D01*
X87788571Y-97252380D01*
X87502857Y-97252380D01*
X87407619Y-97204761D01*
X87360000Y-97157142D01*
X93519761Y-97252380D02*
X93043571Y-97252380D01*
X93043571Y-96252380D01*
X93805476Y-96966666D02*
X94281666Y-96966666D01*
X93710238Y-97252380D02*
X94043571Y-96252380D01*
X94376904Y-97252380D01*
X95043571Y-96728571D02*
X95186428Y-96776190D01*
X95234047Y-96823809D01*
X95281666Y-96919047D01*
X95281666Y-97061904D01*
X95234047Y-97157142D01*
X95186428Y-97204761D01*
X95091190Y-97252380D01*
X94710238Y-97252380D01*
X94710238Y-96252380D01*
X95043571Y-96252380D01*
X95138809Y-96300000D01*
X95186428Y-96347619D01*
X95234047Y-96442857D01*
X95234047Y-96538095D01*
X95186428Y-96633333D01*
X95138809Y-96680952D01*
X95043571Y-96728571D01*
X94710238Y-96728571D01*
X95662619Y-96347619D02*
X95710238Y-96300000D01*
X95805476Y-96252380D01*
X96043571Y-96252380D01*
X96138809Y-96300000D01*
X96186428Y-96347619D01*
X96234047Y-96442857D01*
X96234047Y-96538095D01*
X96186428Y-96680952D01*
X95615000Y-97252380D01*
X96234047Y-97252380D01*
X101774761Y-97252380D02*
X101298571Y-97252380D01*
X101298571Y-96252380D01*
X102060476Y-96966666D02*
X102536666Y-96966666D01*
X101965238Y-97252380D02*
X102298571Y-96252380D01*
X102631904Y-97252380D01*
X103298571Y-96728571D02*
X103441428Y-96776190D01*
X103489047Y-96823809D01*
X103536666Y-96919047D01*
X103536666Y-97061904D01*
X103489047Y-97157142D01*
X103441428Y-97204761D01*
X103346190Y-97252380D01*
X102965238Y-97252380D01*
X102965238Y-96252380D01*
X103298571Y-96252380D01*
X103393809Y-96300000D01*
X103441428Y-96347619D01*
X103489047Y-96442857D01*
X103489047Y-96538095D01*
X103441428Y-96633333D01*
X103393809Y-96680952D01*
X103298571Y-96728571D01*
X102965238Y-96728571D01*
X104489047Y-97252380D02*
X103917619Y-97252380D01*
X104203333Y-97252380D02*
X104203333Y-96252380D01*
X104108095Y-96395238D01*
X104012857Y-96490476D01*
X103917619Y-96538095D01*
X85336190Y-82012380D02*
X84860000Y-82012380D01*
X84860000Y-81012380D01*
X85621904Y-81726666D02*
X86098095Y-81726666D01*
X85526666Y-82012380D02*
X85860000Y-81012380D01*
X86193333Y-82012380D01*
X86479047Y-81726666D02*
X86955238Y-81726666D01*
X86383809Y-82012380D02*
X86717142Y-81012380D01*
X87050476Y-82012380D01*
X87288571Y-81012380D02*
X87907619Y-81012380D01*
X87574285Y-81393333D01*
X87717142Y-81393333D01*
X87812380Y-81440952D01*
X87860000Y-81488571D01*
X87907619Y-81583809D01*
X87907619Y-81821904D01*
X87860000Y-81917142D01*
X87812380Y-81964761D01*
X87717142Y-82012380D01*
X87431428Y-82012380D01*
X87336190Y-81964761D01*
X87288571Y-81917142D01*
X93591190Y-82012380D02*
X93115000Y-82012380D01*
X93115000Y-81012380D01*
X93876904Y-81726666D02*
X94353095Y-81726666D01*
X93781666Y-82012380D02*
X94115000Y-81012380D01*
X94448333Y-82012380D01*
X94734047Y-81726666D02*
X95210238Y-81726666D01*
X94638809Y-82012380D02*
X94972142Y-81012380D01*
X95305476Y-82012380D01*
X95591190Y-81107619D02*
X95638809Y-81060000D01*
X95734047Y-81012380D01*
X95972142Y-81012380D01*
X96067380Y-81060000D01*
X96115000Y-81107619D01*
X96162619Y-81202857D01*
X96162619Y-81298095D01*
X96115000Y-81440952D01*
X95543571Y-82012380D01*
X96162619Y-82012380D01*
X101846190Y-82012380D02*
X101370000Y-82012380D01*
X101370000Y-81012380D01*
X102131904Y-81726666D02*
X102608095Y-81726666D01*
X102036666Y-82012380D02*
X102370000Y-81012380D01*
X102703333Y-82012380D01*
X102989047Y-81726666D02*
X103465238Y-81726666D01*
X102893809Y-82012380D02*
X103227142Y-81012380D01*
X103560476Y-82012380D01*
X104417619Y-82012380D02*
X103846190Y-82012380D01*
X104131904Y-82012380D02*
X104131904Y-81012380D01*
X104036666Y-81155238D01*
X103941428Y-81250476D01*
X103846190Y-81298095D01*
X85288571Y-66772380D02*
X84812380Y-66772380D01*
X84812380Y-65772380D01*
X85574285Y-66486666D02*
X86050476Y-66486666D01*
X85479047Y-66772380D02*
X85812380Y-65772380D01*
X86145714Y-66772380D01*
X86526666Y-66772380D02*
X86717142Y-66772380D01*
X86812380Y-66724761D01*
X86860000Y-66677142D01*
X86955238Y-66534285D01*
X87002857Y-66343809D01*
X87002857Y-65962857D01*
X86955238Y-65867619D01*
X86907619Y-65820000D01*
X86812380Y-65772380D01*
X86621904Y-65772380D01*
X86526666Y-65820000D01*
X86479047Y-65867619D01*
X86431428Y-65962857D01*
X86431428Y-66200952D01*
X86479047Y-66296190D01*
X86526666Y-66343809D01*
X86621904Y-66391428D01*
X86812380Y-66391428D01*
X86907619Y-66343809D01*
X86955238Y-66296190D01*
X87002857Y-66200952D01*
X87336190Y-65772380D02*
X87955238Y-65772380D01*
X87621904Y-66153333D01*
X87764761Y-66153333D01*
X87860000Y-66200952D01*
X87907619Y-66248571D01*
X87955238Y-66343809D01*
X87955238Y-66581904D01*
X87907619Y-66677142D01*
X87860000Y-66724761D01*
X87764761Y-66772380D01*
X87479047Y-66772380D01*
X87383809Y-66724761D01*
X87336190Y-66677142D01*
X93543571Y-66772380D02*
X93067380Y-66772380D01*
X93067380Y-65772380D01*
X93829285Y-66486666D02*
X94305476Y-66486666D01*
X93734047Y-66772380D02*
X94067380Y-65772380D01*
X94400714Y-66772380D01*
X94781666Y-66772380D02*
X94972142Y-66772380D01*
X95067380Y-66724761D01*
X95115000Y-66677142D01*
X95210238Y-66534285D01*
X95257857Y-66343809D01*
X95257857Y-65962857D01*
X95210238Y-65867619D01*
X95162619Y-65820000D01*
X95067380Y-65772380D01*
X94876904Y-65772380D01*
X94781666Y-65820000D01*
X94734047Y-65867619D01*
X94686428Y-65962857D01*
X94686428Y-66200952D01*
X94734047Y-66296190D01*
X94781666Y-66343809D01*
X94876904Y-66391428D01*
X95067380Y-66391428D01*
X95162619Y-66343809D01*
X95210238Y-66296190D01*
X95257857Y-66200952D01*
X95638809Y-65867619D02*
X95686428Y-65820000D01*
X95781666Y-65772380D01*
X96019761Y-65772380D01*
X96115000Y-65820000D01*
X96162619Y-65867619D01*
X96210238Y-65962857D01*
X96210238Y-66058095D01*
X96162619Y-66200952D01*
X95591190Y-66772380D01*
X96210238Y-66772380D01*
X101798571Y-66772380D02*
X101322380Y-66772380D01*
X101322380Y-65772380D01*
X102084285Y-66486666D02*
X102560476Y-66486666D01*
X101989047Y-66772380D02*
X102322380Y-65772380D01*
X102655714Y-66772380D01*
X103036666Y-66772380D02*
X103227142Y-66772380D01*
X103322380Y-66724761D01*
X103370000Y-66677142D01*
X103465238Y-66534285D01*
X103512857Y-66343809D01*
X103512857Y-65962857D01*
X103465238Y-65867619D01*
X103417619Y-65820000D01*
X103322380Y-65772380D01*
X103131904Y-65772380D01*
X103036666Y-65820000D01*
X102989047Y-65867619D01*
X102941428Y-65962857D01*
X102941428Y-66200952D01*
X102989047Y-66296190D01*
X103036666Y-66343809D01*
X103131904Y-66391428D01*
X103322380Y-66391428D01*
X103417619Y-66343809D01*
X103465238Y-66296190D01*
X103512857Y-66200952D01*
X104465238Y-66772380D02*
X103893809Y-66772380D01*
X104179523Y-66772380D02*
X104179523Y-65772380D01*
X104084285Y-65915238D01*
X103989047Y-66010476D01*
X103893809Y-66058095D01*
X115768571Y-142972380D02*
X115292380Y-142972380D01*
X115292380Y-141972380D01*
X116054285Y-142686666D02*
X116530476Y-142686666D01*
X115959047Y-142972380D02*
X116292380Y-141972380D01*
X116625714Y-142972380D01*
X116863809Y-141972380D02*
X117530476Y-141972380D01*
X117101904Y-142972380D01*
X117816190Y-141972380D02*
X118435238Y-141972380D01*
X118101904Y-142353333D01*
X118244761Y-142353333D01*
X118340000Y-142400952D01*
X118387619Y-142448571D01*
X118435238Y-142543809D01*
X118435238Y-142781904D01*
X118387619Y-142877142D01*
X118340000Y-142924761D01*
X118244761Y-142972380D01*
X117959047Y-142972380D01*
X117863809Y-142924761D01*
X117816190Y-142877142D01*
X124023571Y-142972380D02*
X123547380Y-142972380D01*
X123547380Y-141972380D01*
X124309285Y-142686666D02*
X124785476Y-142686666D01*
X124214047Y-142972380D02*
X124547380Y-141972380D01*
X124880714Y-142972380D01*
X125118809Y-141972380D02*
X125785476Y-141972380D01*
X125356904Y-142972380D01*
X126118809Y-142067619D02*
X126166428Y-142020000D01*
X126261666Y-141972380D01*
X126499761Y-141972380D01*
X126595000Y-142020000D01*
X126642619Y-142067619D01*
X126690238Y-142162857D01*
X126690238Y-142258095D01*
X126642619Y-142400952D01*
X126071190Y-142972380D01*
X126690238Y-142972380D01*
X132278571Y-142972380D02*
X131802380Y-142972380D01*
X131802380Y-141972380D01*
X132564285Y-142686666D02*
X133040476Y-142686666D01*
X132469047Y-142972380D02*
X132802380Y-141972380D01*
X133135714Y-142972380D01*
X133373809Y-141972380D02*
X134040476Y-141972380D01*
X133611904Y-142972380D01*
X134945238Y-142972380D02*
X134373809Y-142972380D01*
X134659523Y-142972380D02*
X134659523Y-141972380D01*
X134564285Y-142115238D01*
X134469047Y-142210476D01*
X134373809Y-142258095D01*
X115768571Y-127732380D02*
X115292380Y-127732380D01*
X115292380Y-126732380D01*
X116054285Y-127446666D02*
X116530476Y-127446666D01*
X115959047Y-127732380D02*
X116292380Y-126732380D01*
X116625714Y-127732380D01*
X117387619Y-126732380D02*
X117197142Y-126732380D01*
X117101904Y-126780000D01*
X117054285Y-126827619D01*
X116959047Y-126970476D01*
X116911428Y-127160952D01*
X116911428Y-127541904D01*
X116959047Y-127637142D01*
X117006666Y-127684761D01*
X117101904Y-127732380D01*
X117292380Y-127732380D01*
X117387619Y-127684761D01*
X117435238Y-127637142D01*
X117482857Y-127541904D01*
X117482857Y-127303809D01*
X117435238Y-127208571D01*
X117387619Y-127160952D01*
X117292380Y-127113333D01*
X117101904Y-127113333D01*
X117006666Y-127160952D01*
X116959047Y-127208571D01*
X116911428Y-127303809D01*
X117816190Y-126732380D02*
X118435238Y-126732380D01*
X118101904Y-127113333D01*
X118244761Y-127113333D01*
X118340000Y-127160952D01*
X118387619Y-127208571D01*
X118435238Y-127303809D01*
X118435238Y-127541904D01*
X118387619Y-127637142D01*
X118340000Y-127684761D01*
X118244761Y-127732380D01*
X117959047Y-127732380D01*
X117863809Y-127684761D01*
X117816190Y-127637142D01*
X124023571Y-127732380D02*
X123547380Y-127732380D01*
X123547380Y-126732380D01*
X124309285Y-127446666D02*
X124785476Y-127446666D01*
X124214047Y-127732380D02*
X124547380Y-126732380D01*
X124880714Y-127732380D01*
X125642619Y-126732380D02*
X125452142Y-126732380D01*
X125356904Y-126780000D01*
X125309285Y-126827619D01*
X125214047Y-126970476D01*
X125166428Y-127160952D01*
X125166428Y-127541904D01*
X125214047Y-127637142D01*
X125261666Y-127684761D01*
X125356904Y-127732380D01*
X125547380Y-127732380D01*
X125642619Y-127684761D01*
X125690238Y-127637142D01*
X125737857Y-127541904D01*
X125737857Y-127303809D01*
X125690238Y-127208571D01*
X125642619Y-127160952D01*
X125547380Y-127113333D01*
X125356904Y-127113333D01*
X125261666Y-127160952D01*
X125214047Y-127208571D01*
X125166428Y-127303809D01*
X126118809Y-126827619D02*
X126166428Y-126780000D01*
X126261666Y-126732380D01*
X126499761Y-126732380D01*
X126595000Y-126780000D01*
X126642619Y-126827619D01*
X126690238Y-126922857D01*
X126690238Y-127018095D01*
X126642619Y-127160952D01*
X126071190Y-127732380D01*
X126690238Y-127732380D01*
X132278571Y-127732380D02*
X131802380Y-127732380D01*
X131802380Y-126732380D01*
X132564285Y-127446666D02*
X133040476Y-127446666D01*
X132469047Y-127732380D02*
X132802380Y-126732380D01*
X133135714Y-127732380D01*
X133897619Y-126732380D02*
X133707142Y-126732380D01*
X133611904Y-126780000D01*
X133564285Y-126827619D01*
X133469047Y-126970476D01*
X133421428Y-127160952D01*
X133421428Y-127541904D01*
X133469047Y-127637142D01*
X133516666Y-127684761D01*
X133611904Y-127732380D01*
X133802380Y-127732380D01*
X133897619Y-127684761D01*
X133945238Y-127637142D01*
X133992857Y-127541904D01*
X133992857Y-127303809D01*
X133945238Y-127208571D01*
X133897619Y-127160952D01*
X133802380Y-127113333D01*
X133611904Y-127113333D01*
X133516666Y-127160952D01*
X133469047Y-127208571D01*
X133421428Y-127303809D01*
X134945238Y-127732380D02*
X134373809Y-127732380D01*
X134659523Y-127732380D02*
X134659523Y-126732380D01*
X134564285Y-126875238D01*
X134469047Y-126970476D01*
X134373809Y-127018095D01*
X115768571Y-112492380D02*
X115292380Y-112492380D01*
X115292380Y-111492380D01*
X116054285Y-112206666D02*
X116530476Y-112206666D01*
X115959047Y-112492380D02*
X116292380Y-111492380D01*
X116625714Y-112492380D01*
X117435238Y-111492380D02*
X116959047Y-111492380D01*
X116911428Y-111968571D01*
X116959047Y-111920952D01*
X117054285Y-111873333D01*
X117292380Y-111873333D01*
X117387619Y-111920952D01*
X117435238Y-111968571D01*
X117482857Y-112063809D01*
X117482857Y-112301904D01*
X117435238Y-112397142D01*
X117387619Y-112444761D01*
X117292380Y-112492380D01*
X117054285Y-112492380D01*
X116959047Y-112444761D01*
X116911428Y-112397142D01*
X117816190Y-111492380D02*
X118435238Y-111492380D01*
X118101904Y-111873333D01*
X118244761Y-111873333D01*
X118340000Y-111920952D01*
X118387619Y-111968571D01*
X118435238Y-112063809D01*
X118435238Y-112301904D01*
X118387619Y-112397142D01*
X118340000Y-112444761D01*
X118244761Y-112492380D01*
X117959047Y-112492380D01*
X117863809Y-112444761D01*
X117816190Y-112397142D01*
X124023571Y-112492380D02*
X123547380Y-112492380D01*
X123547380Y-111492380D01*
X124309285Y-112206666D02*
X124785476Y-112206666D01*
X124214047Y-112492380D02*
X124547380Y-111492380D01*
X124880714Y-112492380D01*
X125690238Y-111492380D02*
X125214047Y-111492380D01*
X125166428Y-111968571D01*
X125214047Y-111920952D01*
X125309285Y-111873333D01*
X125547380Y-111873333D01*
X125642619Y-111920952D01*
X125690238Y-111968571D01*
X125737857Y-112063809D01*
X125737857Y-112301904D01*
X125690238Y-112397142D01*
X125642619Y-112444761D01*
X125547380Y-112492380D01*
X125309285Y-112492380D01*
X125214047Y-112444761D01*
X125166428Y-112397142D01*
X126118809Y-111587619D02*
X126166428Y-111540000D01*
X126261666Y-111492380D01*
X126499761Y-111492380D01*
X126595000Y-111540000D01*
X126642619Y-111587619D01*
X126690238Y-111682857D01*
X126690238Y-111778095D01*
X126642619Y-111920952D01*
X126071190Y-112492380D01*
X126690238Y-112492380D01*
X132278571Y-112492380D02*
X131802380Y-112492380D01*
X131802380Y-111492380D01*
X132564285Y-112206666D02*
X133040476Y-112206666D01*
X132469047Y-112492380D02*
X132802380Y-111492380D01*
X133135714Y-112492380D01*
X133945238Y-111492380D02*
X133469047Y-111492380D01*
X133421428Y-111968571D01*
X133469047Y-111920952D01*
X133564285Y-111873333D01*
X133802380Y-111873333D01*
X133897619Y-111920952D01*
X133945238Y-111968571D01*
X133992857Y-112063809D01*
X133992857Y-112301904D01*
X133945238Y-112397142D01*
X133897619Y-112444761D01*
X133802380Y-112492380D01*
X133564285Y-112492380D01*
X133469047Y-112444761D01*
X133421428Y-112397142D01*
X134945238Y-112492380D02*
X134373809Y-112492380D01*
X134659523Y-112492380D02*
X134659523Y-111492380D01*
X134564285Y-111635238D01*
X134469047Y-111730476D01*
X134373809Y-111778095D01*
X115768571Y-97252380D02*
X115292380Y-97252380D01*
X115292380Y-96252380D01*
X116054285Y-96966666D02*
X116530476Y-96966666D01*
X115959047Y-97252380D02*
X116292380Y-96252380D01*
X116625714Y-97252380D01*
X117387619Y-96585714D02*
X117387619Y-97252380D01*
X117149523Y-96204761D02*
X116911428Y-96919047D01*
X117530476Y-96919047D01*
X117816190Y-96252380D02*
X118435238Y-96252380D01*
X118101904Y-96633333D01*
X118244761Y-96633333D01*
X118340000Y-96680952D01*
X118387619Y-96728571D01*
X118435238Y-96823809D01*
X118435238Y-97061904D01*
X118387619Y-97157142D01*
X118340000Y-97204761D01*
X118244761Y-97252380D01*
X117959047Y-97252380D01*
X117863809Y-97204761D01*
X117816190Y-97157142D01*
X124023571Y-97252380D02*
X123547380Y-97252380D01*
X123547380Y-96252380D01*
X124309285Y-96966666D02*
X124785476Y-96966666D01*
X124214047Y-97252380D02*
X124547380Y-96252380D01*
X124880714Y-97252380D01*
X125642619Y-96585714D02*
X125642619Y-97252380D01*
X125404523Y-96204761D02*
X125166428Y-96919047D01*
X125785476Y-96919047D01*
X126118809Y-96347619D02*
X126166428Y-96300000D01*
X126261666Y-96252380D01*
X126499761Y-96252380D01*
X126595000Y-96300000D01*
X126642619Y-96347619D01*
X126690238Y-96442857D01*
X126690238Y-96538095D01*
X126642619Y-96680952D01*
X126071190Y-97252380D01*
X126690238Y-97252380D01*
X132278571Y-97252380D02*
X131802380Y-97252380D01*
X131802380Y-96252380D01*
X132564285Y-96966666D02*
X133040476Y-96966666D01*
X132469047Y-97252380D02*
X132802380Y-96252380D01*
X133135714Y-97252380D01*
X133897619Y-96585714D02*
X133897619Y-97252380D01*
X133659523Y-96204761D02*
X133421428Y-96919047D01*
X134040476Y-96919047D01*
X134945238Y-97252380D02*
X134373809Y-97252380D01*
X134659523Y-97252380D02*
X134659523Y-96252380D01*
X134564285Y-96395238D01*
X134469047Y-96490476D01*
X134373809Y-96538095D01*
X115768571Y-82012380D02*
X115292380Y-82012380D01*
X115292380Y-81012380D01*
X116054285Y-81726666D02*
X116530476Y-81726666D01*
X115959047Y-82012380D02*
X116292380Y-81012380D01*
X116625714Y-82012380D01*
X116863809Y-81012380D02*
X117482857Y-81012380D01*
X117149523Y-81393333D01*
X117292380Y-81393333D01*
X117387619Y-81440952D01*
X117435238Y-81488571D01*
X117482857Y-81583809D01*
X117482857Y-81821904D01*
X117435238Y-81917142D01*
X117387619Y-81964761D01*
X117292380Y-82012380D01*
X117006666Y-82012380D01*
X116911428Y-81964761D01*
X116863809Y-81917142D01*
X117816190Y-81012380D02*
X118435238Y-81012380D01*
X118101904Y-81393333D01*
X118244761Y-81393333D01*
X118340000Y-81440952D01*
X118387619Y-81488571D01*
X118435238Y-81583809D01*
X118435238Y-81821904D01*
X118387619Y-81917142D01*
X118340000Y-81964761D01*
X118244761Y-82012380D01*
X117959047Y-82012380D01*
X117863809Y-81964761D01*
X117816190Y-81917142D01*
X124023571Y-82012380D02*
X123547380Y-82012380D01*
X123547380Y-81012380D01*
X124309285Y-81726666D02*
X124785476Y-81726666D01*
X124214047Y-82012380D02*
X124547380Y-81012380D01*
X124880714Y-82012380D01*
X125118809Y-81012380D02*
X125737857Y-81012380D01*
X125404523Y-81393333D01*
X125547380Y-81393333D01*
X125642619Y-81440952D01*
X125690238Y-81488571D01*
X125737857Y-81583809D01*
X125737857Y-81821904D01*
X125690238Y-81917142D01*
X125642619Y-81964761D01*
X125547380Y-82012380D01*
X125261666Y-82012380D01*
X125166428Y-81964761D01*
X125118809Y-81917142D01*
X126118809Y-81107619D02*
X126166428Y-81060000D01*
X126261666Y-81012380D01*
X126499761Y-81012380D01*
X126595000Y-81060000D01*
X126642619Y-81107619D01*
X126690238Y-81202857D01*
X126690238Y-81298095D01*
X126642619Y-81440952D01*
X126071190Y-82012380D01*
X126690238Y-82012380D01*
X132278571Y-82012380D02*
X131802380Y-82012380D01*
X131802380Y-81012380D01*
X132564285Y-81726666D02*
X133040476Y-81726666D01*
X132469047Y-82012380D02*
X132802380Y-81012380D01*
X133135714Y-82012380D01*
X133373809Y-81012380D02*
X133992857Y-81012380D01*
X133659523Y-81393333D01*
X133802380Y-81393333D01*
X133897619Y-81440952D01*
X133945238Y-81488571D01*
X133992857Y-81583809D01*
X133992857Y-81821904D01*
X133945238Y-81917142D01*
X133897619Y-81964761D01*
X133802380Y-82012380D01*
X133516666Y-82012380D01*
X133421428Y-81964761D01*
X133373809Y-81917142D01*
X134945238Y-82012380D02*
X134373809Y-82012380D01*
X134659523Y-82012380D02*
X134659523Y-81012380D01*
X134564285Y-81155238D01*
X134469047Y-81250476D01*
X134373809Y-81298095D01*
X115768571Y-66772380D02*
X115292380Y-66772380D01*
X115292380Y-65772380D01*
X116054285Y-66486666D02*
X116530476Y-66486666D01*
X115959047Y-66772380D02*
X116292380Y-65772380D01*
X116625714Y-66772380D01*
X116911428Y-65867619D02*
X116959047Y-65820000D01*
X117054285Y-65772380D01*
X117292380Y-65772380D01*
X117387619Y-65820000D01*
X117435238Y-65867619D01*
X117482857Y-65962857D01*
X117482857Y-66058095D01*
X117435238Y-66200952D01*
X116863809Y-66772380D01*
X117482857Y-66772380D01*
X117816190Y-65772380D02*
X118435238Y-65772380D01*
X118101904Y-66153333D01*
X118244761Y-66153333D01*
X118340000Y-66200952D01*
X118387619Y-66248571D01*
X118435238Y-66343809D01*
X118435238Y-66581904D01*
X118387619Y-66677142D01*
X118340000Y-66724761D01*
X118244761Y-66772380D01*
X117959047Y-66772380D01*
X117863809Y-66724761D01*
X117816190Y-66677142D01*
X124023571Y-66772380D02*
X123547380Y-66772380D01*
X123547380Y-65772380D01*
X124309285Y-66486666D02*
X124785476Y-66486666D01*
X124214047Y-66772380D02*
X124547380Y-65772380D01*
X124880714Y-66772380D01*
X125166428Y-65867619D02*
X125214047Y-65820000D01*
X125309285Y-65772380D01*
X125547380Y-65772380D01*
X125642619Y-65820000D01*
X125690238Y-65867619D01*
X125737857Y-65962857D01*
X125737857Y-66058095D01*
X125690238Y-66200952D01*
X125118809Y-66772380D01*
X125737857Y-66772380D01*
X126118809Y-65867619D02*
X126166428Y-65820000D01*
X126261666Y-65772380D01*
X126499761Y-65772380D01*
X126595000Y-65820000D01*
X126642619Y-65867619D01*
X126690238Y-65962857D01*
X126690238Y-66058095D01*
X126642619Y-66200952D01*
X126071190Y-66772380D01*
X126690238Y-66772380D01*
X132278571Y-66772380D02*
X131802380Y-66772380D01*
X131802380Y-65772380D01*
X132564285Y-66486666D02*
X133040476Y-66486666D01*
X132469047Y-66772380D02*
X132802380Y-65772380D01*
X133135714Y-66772380D01*
X133421428Y-65867619D02*
X133469047Y-65820000D01*
X133564285Y-65772380D01*
X133802380Y-65772380D01*
X133897619Y-65820000D01*
X133945238Y-65867619D01*
X133992857Y-65962857D01*
X133992857Y-66058095D01*
X133945238Y-66200952D01*
X133373809Y-66772380D01*
X133992857Y-66772380D01*
X134945238Y-66772380D02*
X134373809Y-66772380D01*
X134659523Y-66772380D02*
X134659523Y-65772380D01*
X134564285Y-65915238D01*
X134469047Y-66010476D01*
X134373809Y-66058095D01*
X85288571Y-51532380D02*
X84812380Y-51532380D01*
X84812380Y-50532380D01*
X85574285Y-51246666D02*
X86050476Y-51246666D01*
X85479047Y-51532380D02*
X85812380Y-50532380D01*
X86145714Y-51532380D01*
X86621904Y-50960952D02*
X86526666Y-50913333D01*
X86479047Y-50865714D01*
X86431428Y-50770476D01*
X86431428Y-50722857D01*
X86479047Y-50627619D01*
X86526666Y-50580000D01*
X86621904Y-50532380D01*
X86812380Y-50532380D01*
X86907619Y-50580000D01*
X86955238Y-50627619D01*
X87002857Y-50722857D01*
X87002857Y-50770476D01*
X86955238Y-50865714D01*
X86907619Y-50913333D01*
X86812380Y-50960952D01*
X86621904Y-50960952D01*
X86526666Y-51008571D01*
X86479047Y-51056190D01*
X86431428Y-51151428D01*
X86431428Y-51341904D01*
X86479047Y-51437142D01*
X86526666Y-51484761D01*
X86621904Y-51532380D01*
X86812380Y-51532380D01*
X86907619Y-51484761D01*
X86955238Y-51437142D01*
X87002857Y-51341904D01*
X87002857Y-51151428D01*
X86955238Y-51056190D01*
X86907619Y-51008571D01*
X86812380Y-50960952D01*
X87336190Y-50532380D02*
X87955238Y-50532380D01*
X87621904Y-50913333D01*
X87764761Y-50913333D01*
X87860000Y-50960952D01*
X87907619Y-51008571D01*
X87955238Y-51103809D01*
X87955238Y-51341904D01*
X87907619Y-51437142D01*
X87860000Y-51484761D01*
X87764761Y-51532380D01*
X87479047Y-51532380D01*
X87383809Y-51484761D01*
X87336190Y-51437142D01*
X93543571Y-51532380D02*
X93067380Y-51532380D01*
X93067380Y-50532380D01*
X93829285Y-51246666D02*
X94305476Y-51246666D01*
X93734047Y-51532380D02*
X94067380Y-50532380D01*
X94400714Y-51532380D01*
X94876904Y-50960952D02*
X94781666Y-50913333D01*
X94734047Y-50865714D01*
X94686428Y-50770476D01*
X94686428Y-50722857D01*
X94734047Y-50627619D01*
X94781666Y-50580000D01*
X94876904Y-50532380D01*
X95067380Y-50532380D01*
X95162619Y-50580000D01*
X95210238Y-50627619D01*
X95257857Y-50722857D01*
X95257857Y-50770476D01*
X95210238Y-50865714D01*
X95162619Y-50913333D01*
X95067380Y-50960952D01*
X94876904Y-50960952D01*
X94781666Y-51008571D01*
X94734047Y-51056190D01*
X94686428Y-51151428D01*
X94686428Y-51341904D01*
X94734047Y-51437142D01*
X94781666Y-51484761D01*
X94876904Y-51532380D01*
X95067380Y-51532380D01*
X95162619Y-51484761D01*
X95210238Y-51437142D01*
X95257857Y-51341904D01*
X95257857Y-51151428D01*
X95210238Y-51056190D01*
X95162619Y-51008571D01*
X95067380Y-50960952D01*
X95638809Y-50627619D02*
X95686428Y-50580000D01*
X95781666Y-50532380D01*
X96019761Y-50532380D01*
X96115000Y-50580000D01*
X96162619Y-50627619D01*
X96210238Y-50722857D01*
X96210238Y-50818095D01*
X96162619Y-50960952D01*
X95591190Y-51532380D01*
X96210238Y-51532380D01*
X101798571Y-51532380D02*
X101322380Y-51532380D01*
X101322380Y-50532380D01*
X102084285Y-51246666D02*
X102560476Y-51246666D01*
X101989047Y-51532380D02*
X102322380Y-50532380D01*
X102655714Y-51532380D01*
X103131904Y-50960952D02*
X103036666Y-50913333D01*
X102989047Y-50865714D01*
X102941428Y-50770476D01*
X102941428Y-50722857D01*
X102989047Y-50627619D01*
X103036666Y-50580000D01*
X103131904Y-50532380D01*
X103322380Y-50532380D01*
X103417619Y-50580000D01*
X103465238Y-50627619D01*
X103512857Y-50722857D01*
X103512857Y-50770476D01*
X103465238Y-50865714D01*
X103417619Y-50913333D01*
X103322380Y-50960952D01*
X103131904Y-50960952D01*
X103036666Y-51008571D01*
X102989047Y-51056190D01*
X102941428Y-51151428D01*
X102941428Y-51341904D01*
X102989047Y-51437142D01*
X103036666Y-51484761D01*
X103131904Y-51532380D01*
X103322380Y-51532380D01*
X103417619Y-51484761D01*
X103465238Y-51437142D01*
X103512857Y-51341904D01*
X103512857Y-51151428D01*
X103465238Y-51056190D01*
X103417619Y-51008571D01*
X103322380Y-50960952D01*
X104465238Y-51532380D02*
X103893809Y-51532380D01*
X104179523Y-51532380D02*
X104179523Y-50532380D01*
X104084285Y-50675238D01*
X103989047Y-50770476D01*
X103893809Y-50818095D01*
X115768571Y-51532380D02*
X115292380Y-51532380D01*
X115292380Y-50532380D01*
X116054285Y-51246666D02*
X116530476Y-51246666D01*
X115959047Y-51532380D02*
X116292380Y-50532380D01*
X116625714Y-51532380D01*
X117482857Y-51532380D02*
X116911428Y-51532380D01*
X117197142Y-51532380D02*
X117197142Y-50532380D01*
X117101904Y-50675238D01*
X117006666Y-50770476D01*
X116911428Y-50818095D01*
X117816190Y-50532380D02*
X118435238Y-50532380D01*
X118101904Y-50913333D01*
X118244761Y-50913333D01*
X118340000Y-50960952D01*
X118387619Y-51008571D01*
X118435238Y-51103809D01*
X118435238Y-51341904D01*
X118387619Y-51437142D01*
X118340000Y-51484761D01*
X118244761Y-51532380D01*
X117959047Y-51532380D01*
X117863809Y-51484761D01*
X117816190Y-51437142D01*
X124023571Y-51532380D02*
X123547380Y-51532380D01*
X123547380Y-50532380D01*
X124309285Y-51246666D02*
X124785476Y-51246666D01*
X124214047Y-51532380D02*
X124547380Y-50532380D01*
X124880714Y-51532380D01*
X125737857Y-51532380D02*
X125166428Y-51532380D01*
X125452142Y-51532380D02*
X125452142Y-50532380D01*
X125356904Y-50675238D01*
X125261666Y-50770476D01*
X125166428Y-50818095D01*
X126118809Y-50627619D02*
X126166428Y-50580000D01*
X126261666Y-50532380D01*
X126499761Y-50532380D01*
X126595000Y-50580000D01*
X126642619Y-50627619D01*
X126690238Y-50722857D01*
X126690238Y-50818095D01*
X126642619Y-50960952D01*
X126071190Y-51532380D01*
X126690238Y-51532380D01*
X132278571Y-51532380D02*
X131802380Y-51532380D01*
X131802380Y-50532380D01*
X132564285Y-51246666D02*
X133040476Y-51246666D01*
X132469047Y-51532380D02*
X132802380Y-50532380D01*
X133135714Y-51532380D01*
X133992857Y-51532380D02*
X133421428Y-51532380D01*
X133707142Y-51532380D02*
X133707142Y-50532380D01*
X133611904Y-50675238D01*
X133516666Y-50770476D01*
X133421428Y-50818095D01*
X134945238Y-51532380D02*
X134373809Y-51532380D01*
X134659523Y-51532380D02*
X134659523Y-50532380D01*
X134564285Y-50675238D01*
X134469047Y-50770476D01*
X134373809Y-50818095D01*
D20*
X103923606Y-92612270D02*
X103923606Y-93163813D01*
X103886837Y-93274121D01*
X103813298Y-93347660D01*
X103702989Y-93384430D01*
X103629450Y-93384430D01*
X104291302Y-93384430D02*
X104291302Y-92612270D01*
X104585458Y-92612270D01*
X104658997Y-92649040D01*
X104695766Y-92685809D01*
X104732536Y-92759348D01*
X104732536Y-92869657D01*
X104695766Y-92943196D01*
X104658997Y-92979965D01*
X104585458Y-93016735D01*
X104291302Y-93016735D01*
X104989923Y-92612270D02*
X105467926Y-92612270D01*
X105210540Y-92906426D01*
X105320848Y-92906426D01*
X105394387Y-92943196D01*
X105431157Y-92979965D01*
X105467926Y-93053504D01*
X105467926Y-93237352D01*
X105431157Y-93310891D01*
X105394387Y-93347660D01*
X105320848Y-93384430D01*
X105100231Y-93384430D01*
X105026692Y-93347660D01*
X104989923Y-93310891D01*
D18*
X92741904Y-133112380D02*
X92741904Y-133921904D01*
X92789523Y-134017142D01*
X92837142Y-134064761D01*
X92932380Y-134112380D01*
X93122857Y-134112380D01*
X93218095Y-134064761D01*
X93265714Y-134017142D01*
X93313333Y-133921904D01*
X93313333Y-133112380D01*
X94313333Y-134112380D02*
X93741904Y-134112380D01*
X94027619Y-134112380D02*
X94027619Y-133112380D01*
X93932380Y-133255238D01*
X93837142Y-133350476D01*
X93741904Y-133398095D01*
X95170476Y-133445714D02*
X95170476Y-134112380D01*
X94932380Y-133064761D02*
X94694285Y-133779047D01*
X95313333Y-133779047D01*
X101631904Y-117237380D02*
X101631904Y-118046904D01*
X101679523Y-118142142D01*
X101727142Y-118189761D01*
X101822380Y-118237380D01*
X102012857Y-118237380D01*
X102108095Y-118189761D01*
X102155714Y-118142142D01*
X102203333Y-118046904D01*
X102203333Y-117237380D01*
X103203333Y-118237380D02*
X102631904Y-118237380D01*
X102917619Y-118237380D02*
X102917619Y-117237380D01*
X102822380Y-117380238D01*
X102727142Y-117475476D01*
X102631904Y-117523095D01*
X103536666Y-117237380D02*
X104155714Y-117237380D01*
X103822380Y-117618333D01*
X103965238Y-117618333D01*
X104060476Y-117665952D01*
X104108095Y-117713571D01*
X104155714Y-117808809D01*
X104155714Y-118046904D01*
X104108095Y-118142142D01*
X104060476Y-118189761D01*
X103965238Y-118237380D01*
X103679523Y-118237380D01*
X103584285Y-118189761D01*
X103536666Y-118142142D01*
X85296904Y-117237380D02*
X85296904Y-118046904D01*
X85344523Y-118142142D01*
X85392142Y-118189761D01*
X85487380Y-118237380D01*
X85677857Y-118237380D01*
X85773095Y-118189761D01*
X85820714Y-118142142D01*
X85868333Y-118046904D01*
X85868333Y-117237380D01*
X86868333Y-118237380D02*
X86296904Y-118237380D01*
X86582619Y-118237380D02*
X86582619Y-117237380D01*
X86487380Y-117380238D01*
X86392142Y-117475476D01*
X86296904Y-117523095D01*
X87249285Y-117332619D02*
X87296904Y-117285000D01*
X87392142Y-117237380D01*
X87630238Y-117237380D01*
X87725476Y-117285000D01*
X87773095Y-117332619D01*
X87820714Y-117427857D01*
X87820714Y-117523095D01*
X87773095Y-117665952D01*
X87201666Y-118237380D01*
X87820714Y-118237380D01*
X85296904Y-86757380D02*
X85296904Y-87566904D01*
X85344523Y-87662142D01*
X85392142Y-87709761D01*
X85487380Y-87757380D01*
X85677857Y-87757380D01*
X85773095Y-87709761D01*
X85820714Y-87662142D01*
X85868333Y-87566904D01*
X85868333Y-86757380D01*
X86868333Y-87757380D02*
X86296904Y-87757380D01*
X86582619Y-87757380D02*
X86582619Y-86757380D01*
X86487380Y-86900238D01*
X86392142Y-86995476D01*
X86296904Y-87043095D01*
X87820714Y-87757380D02*
X87249285Y-87757380D01*
X87535000Y-87757380D02*
X87535000Y-86757380D01*
X87439761Y-86900238D01*
X87344523Y-86995476D01*
X87249285Y-87043095D01*
X101631904Y-86757380D02*
X101631904Y-87566904D01*
X101679523Y-87662142D01*
X101727142Y-87709761D01*
X101822380Y-87757380D01*
X102012857Y-87757380D01*
X102108095Y-87709761D01*
X102155714Y-87662142D01*
X102203333Y-87566904D01*
X102203333Y-86757380D01*
X103203333Y-87757380D02*
X102631904Y-87757380D01*
X102917619Y-87757380D02*
X102917619Y-86757380D01*
X102822380Y-86900238D01*
X102727142Y-86995476D01*
X102631904Y-87043095D01*
X103822380Y-86757380D02*
X103917619Y-86757380D01*
X104012857Y-86805000D01*
X104060476Y-86852619D01*
X104108095Y-86947857D01*
X104155714Y-87138333D01*
X104155714Y-87376428D01*
X104108095Y-87566904D01*
X104060476Y-87662142D01*
X104012857Y-87709761D01*
X103917619Y-87757380D01*
X103822380Y-87757380D01*
X103727142Y-87709761D01*
X103679523Y-87662142D01*
X103631904Y-87566904D01*
X103584285Y-87376428D01*
X103584285Y-87138333D01*
X103631904Y-86947857D01*
X103679523Y-86852619D01*
X103727142Y-86805000D01*
X103822380Y-86757380D01*
X85773095Y-56277380D02*
X85773095Y-57086904D01*
X85820714Y-57182142D01*
X85868333Y-57229761D01*
X85963571Y-57277380D01*
X86154047Y-57277380D01*
X86249285Y-57229761D01*
X86296904Y-57182142D01*
X86344523Y-57086904D01*
X86344523Y-56277380D01*
X86868333Y-57277380D02*
X87058809Y-57277380D01*
X87154047Y-57229761D01*
X87201666Y-57182142D01*
X87296904Y-57039285D01*
X87344523Y-56848809D01*
X87344523Y-56467857D01*
X87296904Y-56372619D01*
X87249285Y-56325000D01*
X87154047Y-56277380D01*
X86963571Y-56277380D01*
X86868333Y-56325000D01*
X86820714Y-56372619D01*
X86773095Y-56467857D01*
X86773095Y-56705952D01*
X86820714Y-56801190D01*
X86868333Y-56848809D01*
X86963571Y-56896428D01*
X87154047Y-56896428D01*
X87249285Y-56848809D01*
X87296904Y-56801190D01*
X87344523Y-56705952D01*
X102108095Y-56277380D02*
X102108095Y-57086904D01*
X102155714Y-57182142D01*
X102203333Y-57229761D01*
X102298571Y-57277380D01*
X102489047Y-57277380D01*
X102584285Y-57229761D01*
X102631904Y-57182142D01*
X102679523Y-57086904D01*
X102679523Y-56277380D01*
X103298571Y-56705952D02*
X103203333Y-56658333D01*
X103155714Y-56610714D01*
X103108095Y-56515476D01*
X103108095Y-56467857D01*
X103155714Y-56372619D01*
X103203333Y-56325000D01*
X103298571Y-56277380D01*
X103489047Y-56277380D01*
X103584285Y-56325000D01*
X103631904Y-56372619D01*
X103679523Y-56467857D01*
X103679523Y-56515476D01*
X103631904Y-56610714D01*
X103584285Y-56658333D01*
X103489047Y-56705952D01*
X103298571Y-56705952D01*
X103203333Y-56753571D01*
X103155714Y-56801190D01*
X103108095Y-56896428D01*
X103108095Y-57086904D01*
X103155714Y-57182142D01*
X103203333Y-57229761D01*
X103298571Y-57277380D01*
X103489047Y-57277380D01*
X103584285Y-57229761D01*
X103631904Y-57182142D01*
X103679523Y-57086904D01*
X103679523Y-56896428D01*
X103631904Y-56801190D01*
X103584285Y-56753571D01*
X103489047Y-56705952D01*
X125603095Y-132477380D02*
X125603095Y-133286904D01*
X125650714Y-133382142D01*
X125698333Y-133429761D01*
X125793571Y-133477380D01*
X125984047Y-133477380D01*
X126079285Y-133429761D01*
X126126904Y-133382142D01*
X126174523Y-133286904D01*
X126174523Y-132477380D01*
X126555476Y-132477380D02*
X127222142Y-132477380D01*
X126793571Y-133477380D01*
X131318095Y-117237380D02*
X131318095Y-118046904D01*
X131365714Y-118142142D01*
X131413333Y-118189761D01*
X131508571Y-118237380D01*
X131699047Y-118237380D01*
X131794285Y-118189761D01*
X131841904Y-118142142D01*
X131889523Y-118046904D01*
X131889523Y-117237380D01*
X132794285Y-117237380D02*
X132603809Y-117237380D01*
X132508571Y-117285000D01*
X132460952Y-117332619D01*
X132365714Y-117475476D01*
X132318095Y-117665952D01*
X132318095Y-118046904D01*
X132365714Y-118142142D01*
X132413333Y-118189761D01*
X132508571Y-118237380D01*
X132699047Y-118237380D01*
X132794285Y-118189761D01*
X132841904Y-118142142D01*
X132889523Y-118046904D01*
X132889523Y-117808809D01*
X132841904Y-117713571D01*
X132794285Y-117665952D01*
X132699047Y-117618333D01*
X132508571Y-117618333D01*
X132413333Y-117665952D01*
X132365714Y-117713571D01*
X132318095Y-117808809D01*
X115618095Y-117237380D02*
X115618095Y-118046904D01*
X115665714Y-118142142D01*
X115713333Y-118189761D01*
X115808571Y-118237380D01*
X115999047Y-118237380D01*
X116094285Y-118189761D01*
X116141904Y-118142142D01*
X116189523Y-118046904D01*
X116189523Y-117237380D01*
X117141904Y-117237380D02*
X116665714Y-117237380D01*
X116618095Y-117713571D01*
X116665714Y-117665952D01*
X116760952Y-117618333D01*
X116999047Y-117618333D01*
X117094285Y-117665952D01*
X117141904Y-117713571D01*
X117189523Y-117808809D01*
X117189523Y-118046904D01*
X117141904Y-118142142D01*
X117094285Y-118189761D01*
X116999047Y-118237380D01*
X116760952Y-118237380D01*
X116665714Y-118189761D01*
X116618095Y-118142142D01*
X131318095Y-86757380D02*
X131318095Y-87566904D01*
X131365714Y-87662142D01*
X131413333Y-87709761D01*
X131508571Y-87757380D01*
X131699047Y-87757380D01*
X131794285Y-87709761D01*
X131841904Y-87662142D01*
X131889523Y-87566904D01*
X131889523Y-86757380D01*
X132794285Y-87090714D02*
X132794285Y-87757380D01*
X132556190Y-86709761D02*
X132318095Y-87424047D01*
X132937142Y-87424047D01*
X115618095Y-86757380D02*
X115618095Y-87566904D01*
X115665714Y-87662142D01*
X115713333Y-87709761D01*
X115808571Y-87757380D01*
X115999047Y-87757380D01*
X116094285Y-87709761D01*
X116141904Y-87662142D01*
X116189523Y-87566904D01*
X116189523Y-86757380D01*
X116570476Y-86757380D02*
X117189523Y-86757380D01*
X116856190Y-87138333D01*
X116999047Y-87138333D01*
X117094285Y-87185952D01*
X117141904Y-87233571D01*
X117189523Y-87328809D01*
X117189523Y-87566904D01*
X117141904Y-87662142D01*
X117094285Y-87709761D01*
X116999047Y-87757380D01*
X116713333Y-87757380D01*
X116618095Y-87709761D01*
X116570476Y-87662142D01*
X131318095Y-56277380D02*
X131318095Y-57086904D01*
X131365714Y-57182142D01*
X131413333Y-57229761D01*
X131508571Y-57277380D01*
X131699047Y-57277380D01*
X131794285Y-57229761D01*
X131841904Y-57182142D01*
X131889523Y-57086904D01*
X131889523Y-56277380D01*
X132318095Y-56372619D02*
X132365714Y-56325000D01*
X132460952Y-56277380D01*
X132699047Y-56277380D01*
X132794285Y-56325000D01*
X132841904Y-56372619D01*
X132889523Y-56467857D01*
X132889523Y-56563095D01*
X132841904Y-56705952D01*
X132270476Y-57277380D01*
X132889523Y-57277380D01*
X115618095Y-56277380D02*
X115618095Y-57086904D01*
X115665714Y-57182142D01*
X115713333Y-57229761D01*
X115808571Y-57277380D01*
X115999047Y-57277380D01*
X116094285Y-57229761D01*
X116141904Y-57182142D01*
X116189523Y-57086904D01*
X116189523Y-56277380D01*
X117189523Y-57277380D02*
X116618095Y-57277380D01*
X116903809Y-57277380D02*
X116903809Y-56277380D01*
X116808571Y-56420238D01*
X116713333Y-56515476D01*
X116618095Y-56563095D01*
X100957142Y-137772380D02*
X100623809Y-137296190D01*
X100385714Y-137772380D02*
X100385714Y-136772380D01*
X100766666Y-136772380D01*
X100861904Y-136820000D01*
X100909523Y-136867619D01*
X100957142Y-136962857D01*
X100957142Y-137105714D01*
X100909523Y-137200952D01*
X100861904Y-137248571D01*
X100766666Y-137296190D01*
X100385714Y-137296190D01*
X101909523Y-137772380D02*
X101338095Y-137772380D01*
X101623809Y-137772380D02*
X101623809Y-136772380D01*
X101528571Y-136915238D01*
X101433333Y-137010476D01*
X101338095Y-137058095D01*
X102766666Y-137105714D02*
X102766666Y-137772380D01*
X102528571Y-136724761D02*
X102290476Y-137439047D01*
X102909523Y-137439047D01*
X93819642Y-118402380D02*
X93486309Y-117926190D01*
X93248214Y-118402380D02*
X93248214Y-117402380D01*
X93629166Y-117402380D01*
X93724404Y-117450000D01*
X93772023Y-117497619D01*
X93819642Y-117592857D01*
X93819642Y-117735714D01*
X93772023Y-117830952D01*
X93724404Y-117878571D01*
X93629166Y-117926190D01*
X93248214Y-117926190D01*
X94772023Y-118402380D02*
X94200595Y-118402380D01*
X94486309Y-118402380D02*
X94486309Y-117402380D01*
X94391071Y-117545238D01*
X94295833Y-117640476D01*
X94200595Y-117688095D01*
X95105357Y-117402380D02*
X95724404Y-117402380D01*
X95391071Y-117783333D01*
X95533928Y-117783333D01*
X95629166Y-117830952D01*
X95676785Y-117878571D01*
X95724404Y-117973809D01*
X95724404Y-118211904D01*
X95676785Y-118307142D01*
X95629166Y-118354761D01*
X95533928Y-118402380D01*
X95248214Y-118402380D01*
X95152976Y-118354761D01*
X95105357Y-118307142D01*
X93819642Y-125072380D02*
X93486309Y-124596190D01*
X93248214Y-125072380D02*
X93248214Y-124072380D01*
X93629166Y-124072380D01*
X93724404Y-124120000D01*
X93772023Y-124167619D01*
X93819642Y-124262857D01*
X93819642Y-124405714D01*
X93772023Y-124500952D01*
X93724404Y-124548571D01*
X93629166Y-124596190D01*
X93248214Y-124596190D01*
X94772023Y-125072380D02*
X94200595Y-125072380D01*
X94486309Y-125072380D02*
X94486309Y-124072380D01*
X94391071Y-124215238D01*
X94295833Y-124310476D01*
X94200595Y-124358095D01*
X95152976Y-124167619D02*
X95200595Y-124120000D01*
X95295833Y-124072380D01*
X95533928Y-124072380D01*
X95629166Y-124120000D01*
X95676785Y-124167619D01*
X95724404Y-124262857D01*
X95724404Y-124358095D01*
X95676785Y-124500952D01*
X95105357Y-125072380D01*
X95724404Y-125072380D01*
X93184642Y-95227380D02*
X92851309Y-94751190D01*
X92613214Y-95227380D02*
X92613214Y-94227380D01*
X92994166Y-94227380D01*
X93089404Y-94275000D01*
X93137023Y-94322619D01*
X93184642Y-94417857D01*
X93184642Y-94560714D01*
X93137023Y-94655952D01*
X93089404Y-94703571D01*
X92994166Y-94751190D01*
X92613214Y-94751190D01*
X94137023Y-95227380D02*
X93565595Y-95227380D01*
X93851309Y-95227380D02*
X93851309Y-94227380D01*
X93756071Y-94370238D01*
X93660833Y-94465476D01*
X93565595Y-94513095D01*
X95089404Y-95227380D02*
X94517976Y-95227380D01*
X94803690Y-95227380D02*
X94803690Y-94227380D01*
X94708452Y-94370238D01*
X94613214Y-94465476D01*
X94517976Y-94513095D01*
X93184642Y-89192380D02*
X92851309Y-88716190D01*
X92613214Y-89192380D02*
X92613214Y-88192380D01*
X92994166Y-88192380D01*
X93089404Y-88240000D01*
X93137023Y-88287619D01*
X93184642Y-88382857D01*
X93184642Y-88525714D01*
X93137023Y-88620952D01*
X93089404Y-88668571D01*
X92994166Y-88716190D01*
X92613214Y-88716190D01*
X94137023Y-89192380D02*
X93565595Y-89192380D01*
X93851309Y-89192380D02*
X93851309Y-88192380D01*
X93756071Y-88335238D01*
X93660833Y-88430476D01*
X93565595Y-88478095D01*
X94756071Y-88192380D02*
X94851309Y-88192380D01*
X94946547Y-88240000D01*
X94994166Y-88287619D01*
X95041785Y-88382857D01*
X95089404Y-88573333D01*
X95089404Y-88811428D01*
X95041785Y-89001904D01*
X94994166Y-89097142D01*
X94946547Y-89144761D01*
X94851309Y-89192380D01*
X94756071Y-89192380D01*
X94660833Y-89144761D01*
X94613214Y-89097142D01*
X94565595Y-89001904D01*
X94517976Y-88811428D01*
X94517976Y-88573333D01*
X94565595Y-88382857D01*
X94613214Y-88287619D01*
X94660833Y-88240000D01*
X94756071Y-88192380D01*
X94448333Y-61252380D02*
X94115000Y-60776190D01*
X93876904Y-61252380D02*
X93876904Y-60252380D01*
X94257857Y-60252380D01*
X94353095Y-60300000D01*
X94400714Y-60347619D01*
X94448333Y-60442857D01*
X94448333Y-60585714D01*
X94400714Y-60680952D01*
X94353095Y-60728571D01*
X94257857Y-60776190D01*
X93876904Y-60776190D01*
X94924523Y-61252380D02*
X95115000Y-61252380D01*
X95210238Y-61204761D01*
X95257857Y-61157142D01*
X95353095Y-61014285D01*
X95400714Y-60823809D01*
X95400714Y-60442857D01*
X95353095Y-60347619D01*
X95305476Y-60300000D01*
X95210238Y-60252380D01*
X95019761Y-60252380D01*
X94924523Y-60300000D01*
X94876904Y-60347619D01*
X94829285Y-60442857D01*
X94829285Y-60680952D01*
X94876904Y-60776190D01*
X94924523Y-60823809D01*
X95019761Y-60871428D01*
X95210238Y-60871428D01*
X95305476Y-60823809D01*
X95353095Y-60776190D01*
X95400714Y-60680952D01*
X94448333Y-58077380D02*
X94115000Y-57601190D01*
X93876904Y-58077380D02*
X93876904Y-57077380D01*
X94257857Y-57077380D01*
X94353095Y-57125000D01*
X94400714Y-57172619D01*
X94448333Y-57267857D01*
X94448333Y-57410714D01*
X94400714Y-57505952D01*
X94353095Y-57553571D01*
X94257857Y-57601190D01*
X93876904Y-57601190D01*
X95019761Y-57505952D02*
X94924523Y-57458333D01*
X94876904Y-57410714D01*
X94829285Y-57315476D01*
X94829285Y-57267857D01*
X94876904Y-57172619D01*
X94924523Y-57125000D01*
X95019761Y-57077380D01*
X95210238Y-57077380D01*
X95305476Y-57125000D01*
X95353095Y-57172619D01*
X95400714Y-57267857D01*
X95400714Y-57315476D01*
X95353095Y-57410714D01*
X95305476Y-57458333D01*
X95210238Y-57505952D01*
X95019761Y-57505952D01*
X94924523Y-57553571D01*
X94876904Y-57601190D01*
X94829285Y-57696428D01*
X94829285Y-57886904D01*
X94876904Y-57982142D01*
X94924523Y-58029761D01*
X95019761Y-58077380D01*
X95210238Y-58077380D01*
X95305476Y-58029761D01*
X95353095Y-57982142D01*
X95400714Y-57886904D01*
X95400714Y-57696428D01*
X95353095Y-57601190D01*
X95305476Y-57553571D01*
X95210238Y-57505952D01*
X116038333Y-135072380D02*
X115705000Y-134596190D01*
X115466904Y-135072380D02*
X115466904Y-134072380D01*
X115847857Y-134072380D01*
X115943095Y-134120000D01*
X115990714Y-134167619D01*
X116038333Y-134262857D01*
X116038333Y-134405714D01*
X115990714Y-134500952D01*
X115943095Y-134548571D01*
X115847857Y-134596190D01*
X115466904Y-134596190D01*
X116371666Y-134072380D02*
X117038333Y-134072380D01*
X116609761Y-135072380D01*
X124928333Y-125547380D02*
X124595000Y-125071190D01*
X124356904Y-125547380D02*
X124356904Y-124547380D01*
X124737857Y-124547380D01*
X124833095Y-124595000D01*
X124880714Y-124642619D01*
X124928333Y-124737857D01*
X124928333Y-124880714D01*
X124880714Y-124975952D01*
X124833095Y-125023571D01*
X124737857Y-125071190D01*
X124356904Y-125071190D01*
X125785476Y-124547380D02*
X125595000Y-124547380D01*
X125499761Y-124595000D01*
X125452142Y-124642619D01*
X125356904Y-124785476D01*
X125309285Y-124975952D01*
X125309285Y-125356904D01*
X125356904Y-125452142D01*
X125404523Y-125499761D01*
X125499761Y-125547380D01*
X125690238Y-125547380D01*
X125785476Y-125499761D01*
X125833095Y-125452142D01*
X125880714Y-125356904D01*
X125880714Y-125118809D01*
X125833095Y-125023571D01*
X125785476Y-124975952D01*
X125690238Y-124928333D01*
X125499761Y-124928333D01*
X125404523Y-124975952D01*
X125356904Y-125023571D01*
X125309285Y-125118809D01*
X124928333Y-121262380D02*
X124595000Y-120786190D01*
X124356904Y-121262380D02*
X124356904Y-120262380D01*
X124737857Y-120262380D01*
X124833095Y-120310000D01*
X124880714Y-120357619D01*
X124928333Y-120452857D01*
X124928333Y-120595714D01*
X124880714Y-120690952D01*
X124833095Y-120738571D01*
X124737857Y-120786190D01*
X124356904Y-120786190D01*
X125833095Y-120262380D02*
X125356904Y-120262380D01*
X125309285Y-120738571D01*
X125356904Y-120690952D01*
X125452142Y-120643333D01*
X125690238Y-120643333D01*
X125785476Y-120690952D01*
X125833095Y-120738571D01*
X125880714Y-120833809D01*
X125880714Y-121071904D01*
X125833095Y-121167142D01*
X125785476Y-121214761D01*
X125690238Y-121262380D01*
X125452142Y-121262380D01*
X125356904Y-121214761D01*
X125309285Y-121167142D01*
X124293333Y-92367380D02*
X123960000Y-91891190D01*
X123721904Y-92367380D02*
X123721904Y-91367380D01*
X124102857Y-91367380D01*
X124198095Y-91415000D01*
X124245714Y-91462619D01*
X124293333Y-91557857D01*
X124293333Y-91700714D01*
X124245714Y-91795952D01*
X124198095Y-91843571D01*
X124102857Y-91891190D01*
X123721904Y-91891190D01*
X125150476Y-91700714D02*
X125150476Y-92367380D01*
X124912380Y-91319761D02*
X124674285Y-92034047D01*
X125293333Y-92034047D01*
X124141333Y-88557380D02*
X123808000Y-88081190D01*
X123569904Y-88557380D02*
X123569904Y-87557380D01*
X123950857Y-87557380D01*
X124046095Y-87605000D01*
X124093714Y-87652619D01*
X124141333Y-87747857D01*
X124141333Y-87890714D01*
X124093714Y-87985952D01*
X124046095Y-88033571D01*
X123950857Y-88081190D01*
X123569904Y-88081190D01*
X124474666Y-87557380D02*
X125093714Y-87557380D01*
X124760380Y-87938333D01*
X124903238Y-87938333D01*
X124998476Y-87985952D01*
X125046095Y-88033571D01*
X125093714Y-88128809D01*
X125093714Y-88366904D01*
X125046095Y-88462142D01*
X124998476Y-88509761D01*
X124903238Y-88557380D01*
X124617523Y-88557380D01*
X124522285Y-88509761D01*
X124474666Y-88462142D01*
X124293333Y-61887380D02*
X123960000Y-61411190D01*
X123721904Y-61887380D02*
X123721904Y-60887380D01*
X124102857Y-60887380D01*
X124198095Y-60935000D01*
X124245714Y-60982619D01*
X124293333Y-61077857D01*
X124293333Y-61220714D01*
X124245714Y-61315952D01*
X124198095Y-61363571D01*
X124102857Y-61411190D01*
X123721904Y-61411190D01*
X124674285Y-60982619D02*
X124721904Y-60935000D01*
X124817142Y-60887380D01*
X125055238Y-60887380D01*
X125150476Y-60935000D01*
X125198095Y-60982619D01*
X125245714Y-61077857D01*
X125245714Y-61173095D01*
X125198095Y-61315952D01*
X124626666Y-61887380D01*
X125245714Y-61887380D01*
X124293333Y-58077380D02*
X123960000Y-57601190D01*
X123721904Y-58077380D02*
X123721904Y-57077380D01*
X124102857Y-57077380D01*
X124198095Y-57125000D01*
X124245714Y-57172619D01*
X124293333Y-57267857D01*
X124293333Y-57410714D01*
X124245714Y-57505952D01*
X124198095Y-57553571D01*
X124102857Y-57601190D01*
X123721904Y-57601190D01*
X125245714Y-58077380D02*
X124674285Y-58077380D01*
X124960000Y-58077380D02*
X124960000Y-57077380D01*
X124864761Y-57220238D01*
X124769523Y-57315476D01*
X124674285Y-57363095D01*
D20*
X116846769Y-71400794D02*
X116221687Y-71400794D01*
X116148148Y-71437564D01*
X116111379Y-71474333D01*
X116074609Y-71547873D01*
X116074609Y-71694951D01*
X116111379Y-71768490D01*
X116148148Y-71805259D01*
X116221687Y-71842029D01*
X116846769Y-71842029D01*
X116074609Y-72614189D02*
X116074609Y-72172954D01*
X116074609Y-72393572D02*
X116846769Y-72393572D01*
X116736460Y-72320033D01*
X116662921Y-72246493D01*
X116626152Y-72172954D01*
X116846769Y-73312810D02*
X116846769Y-72945114D01*
X116479074Y-72908345D01*
X116515843Y-72945114D01*
X116552613Y-73018653D01*
X116552613Y-73202501D01*
X116515843Y-73276040D01*
X116479074Y-73312810D01*
X116405535Y-73349579D01*
X116221687Y-73349579D01*
X116148148Y-73312810D01*
X116111379Y-73276040D01*
X116074609Y-73202501D01*
X116074609Y-73018653D01*
X116111379Y-72945114D01*
X116148148Y-72908345D01*
D21*
X83553904Y-104487934D02*
X83496452Y-104660291D01*
X83496452Y-104947553D01*
X83553904Y-105062458D01*
X83611357Y-105119910D01*
X83726261Y-105177363D01*
X83841166Y-105177363D01*
X83956071Y-105119910D01*
X84013523Y-105062458D01*
X84070976Y-104947553D01*
X84128428Y-104717744D01*
X84185880Y-104602839D01*
X84243333Y-104545387D01*
X84358238Y-104487934D01*
X84473142Y-104487934D01*
X84588047Y-104545387D01*
X84645500Y-104602839D01*
X84702952Y-104717744D01*
X84702952Y-105005006D01*
X84645500Y-105177363D01*
X84702952Y-105579529D02*
X83496452Y-105866791D01*
X84358238Y-106096601D01*
X83496452Y-106326410D01*
X84702952Y-106613672D01*
X83496452Y-107073291D02*
X84702952Y-107073291D01*
X84702952Y-107360553D01*
X84645500Y-107532910D01*
X84530595Y-107647815D01*
X84415690Y-107705267D01*
X84185880Y-107762720D01*
X84013523Y-107762720D01*
X83783714Y-107705267D01*
X83668809Y-107647815D01*
X83553904Y-107532910D01*
X83496452Y-107360553D01*
X83496452Y-107073291D01*
X83496452Y-108911767D02*
X83496452Y-108222339D01*
X83496452Y-108567053D02*
X84702952Y-108567053D01*
X84530595Y-108452148D01*
X84415690Y-108337244D01*
X84358238Y-108222339D01*
X86728904Y-104487934D02*
X86671452Y-104660291D01*
X86671452Y-104947553D01*
X86728904Y-105062458D01*
X86786357Y-105119910D01*
X86901261Y-105177363D01*
X87016166Y-105177363D01*
X87131071Y-105119910D01*
X87188523Y-105062458D01*
X87245976Y-104947553D01*
X87303428Y-104717744D01*
X87360880Y-104602839D01*
X87418333Y-104545387D01*
X87533238Y-104487934D01*
X87648142Y-104487934D01*
X87763047Y-104545387D01*
X87820500Y-104602839D01*
X87877952Y-104717744D01*
X87877952Y-105005006D01*
X87820500Y-105177363D01*
X87877952Y-105579529D02*
X86671452Y-105866791D01*
X87533238Y-106096601D01*
X86671452Y-106326410D01*
X87877952Y-106613672D01*
X86786357Y-107762720D02*
X86728904Y-107705267D01*
X86671452Y-107532910D01*
X86671452Y-107418006D01*
X86728904Y-107245648D01*
X86843809Y-107130744D01*
X86958714Y-107073291D01*
X87188523Y-107015839D01*
X87360880Y-107015839D01*
X87590690Y-107073291D01*
X87705595Y-107130744D01*
X87820500Y-107245648D01*
X87877952Y-107418006D01*
X87877952Y-107532910D01*
X87820500Y-107705267D01*
X87763047Y-107762720D01*
X86671452Y-108911767D02*
X86671452Y-108222339D01*
X86671452Y-108567053D02*
X87877952Y-108567053D01*
X87705595Y-108452148D01*
X87590690Y-108337244D01*
X87533238Y-108222339D01*
D20*
X90895230Y-105456575D02*
X90527535Y-105713962D01*
X90895230Y-105897810D02*
X90123070Y-105897810D01*
X90123070Y-105603653D01*
X90159840Y-105530114D01*
X90196609Y-105493345D01*
X90270148Y-105456575D01*
X90380457Y-105456575D01*
X90453996Y-105493345D01*
X90490765Y-105530114D01*
X90527535Y-105603653D01*
X90527535Y-105897810D01*
X90895230Y-104721185D02*
X90895230Y-105162419D01*
X90895230Y-104941802D02*
X90123070Y-104941802D01*
X90233379Y-105015341D01*
X90306918Y-105088880D01*
X90343687Y-105162419D01*
X90123070Y-104059333D02*
X90123070Y-104206412D01*
X90159840Y-104279951D01*
X90196609Y-104316720D01*
X90306918Y-104390259D01*
X90453996Y-104427029D01*
X90748152Y-104427029D01*
X90821691Y-104390259D01*
X90858460Y-104353490D01*
X90895230Y-104279951D01*
X90895230Y-104132873D01*
X90858460Y-104059333D01*
X90821691Y-104022564D01*
X90748152Y-103985794D01*
X90564304Y-103985794D01*
X90490765Y-104022564D01*
X90453996Y-104059333D01*
X90417226Y-104132873D01*
X90417226Y-104279951D01*
X90453996Y-104353490D01*
X90490765Y-104390259D01*
X90564304Y-104427029D01*
X100420230Y-105456575D02*
X100052535Y-105713962D01*
X100420230Y-105897810D02*
X99648070Y-105897810D01*
X99648070Y-105603653D01*
X99684840Y-105530114D01*
X99721609Y-105493345D01*
X99795148Y-105456575D01*
X99905457Y-105456575D01*
X99978996Y-105493345D01*
X100015765Y-105530114D01*
X100052535Y-105603653D01*
X100052535Y-105897810D01*
X100420230Y-104721185D02*
X100420230Y-105162419D01*
X100420230Y-104941802D02*
X99648070Y-104941802D01*
X99758379Y-105015341D01*
X99831918Y-105088880D01*
X99868687Y-105162419D01*
X99648070Y-104022564D02*
X99648070Y-104390259D01*
X100015765Y-104427029D01*
X99978996Y-104390259D01*
X99942226Y-104316720D01*
X99942226Y-104132873D01*
X99978996Y-104059333D01*
X100015765Y-104022564D01*
X100089304Y-103985794D01*
X100273152Y-103985794D01*
X100346691Y-104022564D01*
X100383460Y-104059333D01*
X100420230Y-104132873D01*
X100420230Y-104316720D01*
X100383460Y-104390259D01*
X100346691Y-104427029D01*
X126475420Y-106098460D02*
X126585728Y-106135230D01*
X126769576Y-106135230D01*
X126843115Y-106098460D01*
X126879885Y-106061691D01*
X126916654Y-105988152D01*
X126916654Y-105914613D01*
X126879885Y-105841074D01*
X126843115Y-105804304D01*
X126769576Y-105767535D01*
X126622498Y-105730765D01*
X126548959Y-105693996D01*
X126512189Y-105657226D01*
X126475420Y-105583687D01*
X126475420Y-105510148D01*
X126512189Y-105436609D01*
X126548959Y-105399840D01*
X126622498Y-105363070D01*
X126806346Y-105363070D01*
X126916654Y-105399840D01*
X127174041Y-105363070D02*
X127357888Y-106135230D01*
X127504966Y-105583687D01*
X127652045Y-106135230D01*
X127835892Y-105363070D01*
X128534513Y-106135230D02*
X128093279Y-106135230D01*
X128313896Y-106135230D02*
X128313896Y-105363070D01*
X128240357Y-105473379D01*
X128166818Y-105546918D01*
X128093279Y-105583687D01*
X93117609Y-106036326D02*
X93889769Y-106036326D01*
X93889769Y-106330482D01*
X93853000Y-106404021D01*
X93816230Y-106440791D01*
X93742691Y-106477560D01*
X93632382Y-106477560D01*
X93558843Y-106440791D01*
X93522074Y-106404021D01*
X93485304Y-106330482D01*
X93485304Y-106036326D01*
X93889769Y-106734947D02*
X93117609Y-106918794D01*
X93669152Y-107065873D01*
X93117609Y-107212951D01*
X93889769Y-107396798D01*
X93117609Y-108132189D02*
X93485304Y-107874802D01*
X93117609Y-107690954D02*
X93889769Y-107690954D01*
X93889769Y-107985111D01*
X93853000Y-108058650D01*
X93816230Y-108095419D01*
X93742691Y-108132189D01*
X93632382Y-108132189D01*
X93558843Y-108095419D01*
X93522074Y-108058650D01*
X93485304Y-107985111D01*
X93485304Y-107690954D01*
X93117609Y-108867579D02*
X93117609Y-108426345D01*
X93117609Y-108646962D02*
X93889769Y-108646962D01*
X93779460Y-108573423D01*
X93705921Y-108499884D01*
X93669152Y-108426345D01*
X95657609Y-108320728D02*
X95657609Y-107953033D01*
X96429769Y-107953033D01*
X95657609Y-108982579D02*
X95657609Y-108541345D01*
X95657609Y-108761962D02*
X96429769Y-108761962D01*
X96319460Y-108688423D01*
X96245921Y-108614884D01*
X96209152Y-108541345D01*
X112664208Y-107814867D02*
X112118208Y-107268868D01*
X113184207Y-107190868D02*
X113184207Y-107242868D01*
X113132208Y-107346868D01*
X113080208Y-107398867D01*
X112976208Y-107450867D01*
X112872208Y-107450867D01*
X112794208Y-107424867D01*
X112664208Y-107346868D01*
X112586208Y-107268868D01*
X112508208Y-107138868D01*
X112482208Y-107060868D01*
X112482208Y-106956868D01*
X112534208Y-106852868D01*
X112586208Y-106800868D01*
X112690208Y-106748868D01*
X112742208Y-106748868D01*
X112872208Y-106514868D02*
X113210207Y-106176868D01*
X113236207Y-106566868D01*
X113314207Y-106488868D01*
X113392207Y-106462868D01*
X113444207Y-106462868D01*
X113522207Y-106488868D01*
X113652207Y-106618868D01*
X113678207Y-106696868D01*
X113678207Y-106748868D01*
X113652207Y-106826868D01*
X113496207Y-106982868D01*
X113418207Y-107008868D01*
X113366207Y-107008868D01*
D22*
X123212377Y-75567695D02*
X123212377Y-75181615D01*
X123304301Y-75181615D01*
X123359455Y-75200000D01*
X123396225Y-75236769D01*
X123414609Y-75273539D01*
X123432994Y-75347078D01*
X123432994Y-75402232D01*
X123414609Y-75475771D01*
X123396225Y-75512540D01*
X123359455Y-75549310D01*
X123304301Y-75567695D01*
X123212377Y-75567695D01*
X123800689Y-75567695D02*
X123580072Y-75567695D01*
X123690381Y-75567695D02*
X123690381Y-75181615D01*
X123653611Y-75236769D01*
X123616842Y-75273539D01*
X123580072Y-75291923D01*
X124131615Y-75181615D02*
X124058076Y-75181615D01*
X124021306Y-75200000D01*
X124002922Y-75218384D01*
X123966152Y-75273539D01*
X123947767Y-75347078D01*
X123947767Y-75494156D01*
X123966152Y-75530925D01*
X123984537Y-75549310D01*
X124021306Y-75567695D01*
X124094846Y-75567695D01*
X124131615Y-75549310D01*
X124150000Y-75530925D01*
X124168385Y-75494156D01*
X124168385Y-75402232D01*
X124150000Y-75365462D01*
X124131615Y-75347078D01*
X124094846Y-75328693D01*
X124021306Y-75328693D01*
X123984537Y-75347078D01*
X123966152Y-75365462D01*
X123947767Y-75402232D01*
X123212377Y-72392695D02*
X123212377Y-72006615D01*
X123304301Y-72006615D01*
X123359455Y-72025000D01*
X123396225Y-72061769D01*
X123414609Y-72098539D01*
X123432994Y-72172078D01*
X123432994Y-72227232D01*
X123414609Y-72300771D01*
X123396225Y-72337540D01*
X123359455Y-72374310D01*
X123304301Y-72392695D01*
X123212377Y-72392695D01*
X123800689Y-72392695D02*
X123580072Y-72392695D01*
X123690381Y-72392695D02*
X123690381Y-72006615D01*
X123653611Y-72061769D01*
X123616842Y-72098539D01*
X123580072Y-72116923D01*
X124150000Y-72006615D02*
X123966152Y-72006615D01*
X123947767Y-72190462D01*
X123966152Y-72172078D01*
X124002922Y-72153693D01*
X124094846Y-72153693D01*
X124131615Y-72172078D01*
X124150000Y-72190462D01*
X124168385Y-72227232D01*
X124168385Y-72319156D01*
X124150000Y-72355925D01*
X124131615Y-72374310D01*
X124094846Y-72392695D01*
X124002922Y-72392695D01*
X123966152Y-72374310D01*
X123947767Y-72355925D01*
D20*
X135789851Y-75611575D02*
X135826620Y-75648345D01*
X135863390Y-75758653D01*
X135863390Y-75832193D01*
X135826620Y-75942501D01*
X135753081Y-76016040D01*
X135679542Y-76052810D01*
X135532464Y-76089579D01*
X135422156Y-76089579D01*
X135275078Y-76052810D01*
X135201539Y-76016040D01*
X135128000Y-75942501D01*
X135091230Y-75832193D01*
X135091230Y-75758653D01*
X135128000Y-75648345D01*
X135164769Y-75611575D01*
X135422156Y-75170341D02*
X135385386Y-75243880D01*
X135348617Y-75280650D01*
X135275078Y-75317419D01*
X135238308Y-75317419D01*
X135164769Y-75280650D01*
X135128000Y-75243880D01*
X135091230Y-75170341D01*
X135091230Y-75023263D01*
X135128000Y-74949724D01*
X135164769Y-74912954D01*
X135238308Y-74876185D01*
X135275078Y-74876185D01*
X135348617Y-74912954D01*
X135385386Y-74949724D01*
X135422156Y-75023263D01*
X135422156Y-75170341D01*
X135458925Y-75243880D01*
X135495695Y-75280650D01*
X135569234Y-75317419D01*
X135716312Y-75317419D01*
X135789851Y-75280650D01*
X135826620Y-75243880D01*
X135863390Y-75170341D01*
X135863390Y-75023263D01*
X135826620Y-74949724D01*
X135789851Y-74912954D01*
X135716312Y-74876185D01*
X135569234Y-74876185D01*
X135495695Y-74912954D01*
X135458925Y-74949724D01*
X135422156Y-75023263D01*
X119589189Y-108347691D02*
X119552419Y-108384460D01*
X119442111Y-108421230D01*
X119368572Y-108421230D01*
X119258263Y-108384460D01*
X119184724Y-108310921D01*
X119147954Y-108237382D01*
X119111185Y-108090304D01*
X119111185Y-107979996D01*
X119147954Y-107832918D01*
X119184724Y-107759379D01*
X119258263Y-107685840D01*
X119368572Y-107649070D01*
X119442111Y-107649070D01*
X119552419Y-107685840D01*
X119589189Y-107722609D01*
X119846575Y-107649070D02*
X120324579Y-107649070D01*
X120067193Y-107943226D01*
X120177501Y-107943226D01*
X120251040Y-107979996D01*
X120287810Y-108016765D01*
X120324579Y-108090304D01*
X120324579Y-108274152D01*
X120287810Y-108347691D01*
X120251040Y-108384460D01*
X120177501Y-108421230D01*
X119956884Y-108421230D01*
X119883345Y-108384460D01*
X119846575Y-108347691D01*
X125048424Y-104791691D02*
X125011654Y-104828460D01*
X124901346Y-104865230D01*
X124827806Y-104865230D01*
X124717498Y-104828460D01*
X124643959Y-104754921D01*
X124607189Y-104681382D01*
X124570420Y-104534304D01*
X124570420Y-104423996D01*
X124607189Y-104276918D01*
X124643959Y-104203379D01*
X124717498Y-104129840D01*
X124827806Y-104093070D01*
X124901346Y-104093070D01*
X125011654Y-104129840D01*
X125048424Y-104166609D01*
X125342580Y-104166609D02*
X125379349Y-104129840D01*
X125452888Y-104093070D01*
X125636736Y-104093070D01*
X125710275Y-104129840D01*
X125747045Y-104166609D01*
X125783814Y-104240148D01*
X125783814Y-104313687D01*
X125747045Y-104423996D01*
X125305810Y-104865230D01*
X125783814Y-104865230D01*
X110599189Y-90323851D02*
X110562419Y-90360620D01*
X110452111Y-90397390D01*
X110378572Y-90397390D01*
X110268263Y-90360620D01*
X110194724Y-90287081D01*
X110157954Y-90213542D01*
X110121185Y-90066464D01*
X110121185Y-89956156D01*
X110157954Y-89809078D01*
X110194724Y-89735539D01*
X110268263Y-89662000D01*
X110378572Y-89625230D01*
X110452111Y-89625230D01*
X110562419Y-89662000D01*
X110599189Y-89698769D01*
X111334579Y-90397390D02*
X110893345Y-90397390D01*
X111113962Y-90397390D02*
X111113962Y-89625230D01*
X111040423Y-89735539D01*
X110966884Y-89809078D01*
X110893345Y-89845847D01*
M02*
